<?xml version="1.0" encoding="UTF-8"?>
<svg version="1.1" xmlns="http://www.w3.org/2000/svg" width="500" height="500">
<path d="M0 0 C20.79 -0.0928125 20.79 -0.0928125 42 -0.1875 C46.36476563 -0.21481201 50.72953125 -0.24212402 55.2265625 -0.27026367 C60.5859375 -0.28381348 60.5859375 -0.28381348 63.10058594 -0.28633118 C64.84442445 -0.29091634 66.58825387 -0.30142263 68.33203125 -0.31672668 C70.98454124 -0.33882797 73.63647363 -0.34171332 76.2890625 -0.34057617 C77.05658844 -0.3513705 77.82411438 -0.36216482 78.61489868 -0.37328625 C84.01183537 -0.34251211 88.07395218 0.75445631 93 3 C93.495 3.99 93.495 3.99 94 5 C92.88536076 7.78939871 91.41371466 10.34393004 90 13 C94.455 13.99 94.455 13.99 99 15 C99 17.31 99 19.62 99 22 C106.26 22 113.52 22 121 22 C121 25 121 25 119.5390625 26.82421875 C118.59160156 27.74654297 118.59160156 27.74654297 117.625 28.6875 C116.99851562 29.31011719 116.37203125 29.93273437 115.7265625 30.57421875 C114 32 114 32 112 32 C111.61328125 32.87398437 111.61328125 32.87398437 111.21875 33.765625 C109.90165983 36.1802903 108.44911616 37.81740177 106.5 39.75 C105.8915625 40.36359375 105.283125 40.9771875 104.65625 41.609375 C103 43 103 43 101 43 C101 43.66 101 44.32 101 45 C100.34 45 99.68 45 99 45 C99.02320313 45.62648437 99.04640625 46.25296875 99.0703125 46.8984375 C99.08835937 47.71570313 99.10640625 48.53296875 99.125 49.375 C99.14820313 50.18710938 99.17140625 50.99921875 99.1953125 51.8359375 C99 54 99 54 97 56 C93.41686909 57.00556002 89.81047447 57.85696859 86.1875 58.70703125 C82.85867292 59.63230093 82.85867292 59.63230093 81.98046875 62.234375 C81.65691406 63.14703125 81.33335937 64.0596875 81 65 C78.95416523 67.34231589 76.63070649 69.36882977 74.3125 71.4375 C72.95554264 72.67557685 71.59877751 73.91386441 70.2421875 75.15234375 C69.54319336 75.7851123 68.84419922 76.41788086 68.12402344 77.06982422 C64.69933848 80.18195747 61.31917758 83.34129953 57.9375 86.5 C57.33139893 87.06259521 56.72529785 87.62519043 56.10083008 88.20483398 C53.2273192 90.87915514 50.42116116 93.58481497 47.69140625 96.40625 C45 99 45 99 43 99 C43 99.66 43 100.32 43 101 C42.34 101 41.68 101 41 101 C41 101.66 41 102.32 41 103 C40.34 103 39.68 103 39 103 C39 103.66 39 104.32 39 105 C37.4609375 106.515625 37.4609375 106.515625 35.375 108.25 C32.65952241 110.54660073 30.08737736 112.87150775 27.625 115.4375 C25 118 25 118 23 118 C23 118.66 23 119.32 23 120 C22.34 120 21.68 120 21 120 C21 120.66 21 121.32 21 122 C19.53125 123.4453125 19.53125 123.4453125 17.5 125.125 C13.73074357 128.3071864 10.32107776 131.69593983 6.95703125 135.30078125 C5 137 5 137 0 139 C0 93.13 0 47.26 0 0 Z " fill="#6838B5" transform="translate(252,194)"/>
<path d="M0 0 C1.23365091 6.71302327 1.14054962 13.36220647 1.12939453 20.17138672 C1.13202301 22.1456086 1.13202301 22.1456086 1.13470459 24.15971375 C1.13924469 27.75223645 1.1375042 31.34473029 1.1343255 34.93725348 C1.13178735 38.69906534 1.1341432 42.4608748 1.13571167 46.22268677 C1.13752777 52.53225141 1.13514033 58.84180433 1.13037109 65.15136719 C1.12491539 72.45362148 1.12670284 79.75584791 1.1321975 87.05810153 C1.13672771 93.32912176 1.13738006 99.60013357 1.13475883 105.8711549 C1.13319737 109.61636699 1.13299902 113.36156594 1.13629532 117.10677719 C1.13970656 121.27286192 1.13498592 125.43889811 1.12939453 129.60498047 C1.13141876 130.85273758 1.13344299 132.10049469 1.13552856 133.38606262 C1.13270874 134.51323196 1.12988892 135.64040131 1.12698364 136.80172729 C1.1264181 138.28001164 1.1264181 138.28001164 1.12584114 139.78816032 C1 142 1 142 0 143 C-1.74626524 143.09629597 -3.49645905 143.12187539 -5.24537659 143.12025452 C-6.38266205 143.12162918 -7.51994751 143.12300385 -8.69169617 143.12442017 C-10.5798278 143.11902725 -10.5798278 143.11902725 -12.50610352 143.11352539 C-13.82298157 143.11367142 -15.13985962 143.11381744 -16.49664307 143.1139679 C-20.11838268 143.11425587 -23.74008946 143.10835924 -27.36182141 143.10139394 C-31.14281884 143.0951603 -34.92381695 143.09455659 -38.70481873 143.09336853 C-45.8694429 143.09025524 -53.0340519 143.08204189 -60.19866937 143.07201904 C-68.35331162 143.06085782 -76.50795457 143.05534743 -84.66260254 143.05032361 C-101.44174393 143.03985928 -118.22087003 143.02225989 -135 143 C-133.57268007 140.07153324 -132.13071088 137.48582937 -130 135 C-129.34 135 -128.68 135 -128 135 C-127.79503906 134.46632813 -127.59007813 133.93265625 -127.37890625 133.3828125 C-125.42167354 130.00062566 -122.7403035 127.56962512 -119.9375 124.875 C-115.9955106 121.30446634 -115.9955106 121.30446634 -113 117 C-112.34 117 -111.68 117 -111 117 C-111 116.34 -111 115.68 -111 115 C-110.34 115 -109.68 115 -109 115 C-109 114.34 -109 113.68 -109 113 C-108.34 113 -107.68 113 -107 113 C-107 112.34 -107 111.68 -107 111 C-106.34 111 -105.68 111 -105 111 C-104.76667969 110.43796875 -104.53335938 109.8759375 -104.29296875 109.296875 C-102.68062924 106.43265858 -100.6806438 104.52747979 -98.3125 102.25 C-93.26360924 97.30266739 -88.63513366 92.12989345 -84.0859375 86.7265625 C-83.45945313 85.99179687 -82.83296875 85.25703125 -82.1875 84.5 C-81.62417969 83.8296875 -81.06085938 83.159375 -80.48046875 82.46875 C-79 81 -79 81 -77 81 C-76.79761719 80.46890625 -76.59523437 79.9378125 -76.38671875 79.390625 C-74.39547378 75.95783085 -71.65534428 73.4910158 -68.8125 70.75 C-64.56420317 66.58533334 -60.47688011 62.39000134 -56.62890625 57.84765625 C-54.09668135 54.97537237 -51.35015669 52.32775803 -48.6015625 49.6640625 C-46.91371276 48.07577267 -46.91371276 48.07577267 -46 46 C-45.34 46 -44.68 46 -44 46 C-44 45.34 -44 44.68 -44 44 C-43.34 44 -42.68 44 -42 44 C-41.66548828 43.17242187 -41.66548828 43.17242187 -41.32421875 42.328125 C-39.58445903 39.2694324 -37.34235518 37.1926188 -34.8125 34.75 C-30.94184532 30.96985755 -27.27245203 27.10404558 -23.765625 22.984375 C-20.93344484 19.80130526 -17.87307151 16.85278482 -14.8203125 13.8828125 C-12.93616102 12.12246661 -12.93616102 12.12246661 -12 10 C-11.34 10 -10.68 10 -10 10 C-10 9.34 -10 8.68 -10 8 C-9.34 8 -8.68 8 -8 8 C-7.7525 7.4225 -7.505 6.845 -7.25 6.25 C-5.58207452 3.24773413 -3.67725381 0 0 0 Z M-29.0625 83.875 C-29.98160156 84.77992188 -30.90070313 85.68484375 -31.84765625 86.6171875 C-34.22343596 88.71219806 -34.22343596 88.71219806 -34 91 C-34.66 91 -35.32 91 -36 91 C-37.50049936 92.48361694 -37.50049936 92.48361694 -39.0625 94.4375 C-42.57070655 98.58961788 -46.35450405 102.35807233 -50.27734375 106.1171875 C-52.2250104 107.82060216 -52.2250104 107.82060216 -52 110 C-52.66 110 -53.32 110 -54 110 C-54 110.66 -54 111.32 -54 112 C-54.66 112 -55.32 112 -56 112 C-56 112.66 -56 113.32 -56 114 C-56.66 114 -57.32 114 -58 114 C-59.53457367 115.51719983 -59.53457367 115.51719983 -61.125 117.5 C-64.39361572 121.3604072 -67.86602424 124.91373508 -71.49609375 128.43359375 C-73.11542821 129.75831047 -73.11542821 129.75831047 -73 131 C-63.14338534 131.83922689 -53.39340415 132.15473969 -43.5 132.125 C-42.18257812 132.12886719 -40.86515625 132.13273437 -39.5078125 132.13671875 C-38.23679688 132.13542969 -36.96578125 132.13414062 -35.65625 132.1328125 C-34.51994141 132.13168457 -33.38363281 132.13055664 -32.21289062 132.12939453 C-28.51565156 132.04730802 -28.51565156 132.04730802 -23 131 C-23 113.84 -23 96.68 -23 79 C-25.21981435 79 -27.64863548 82.47107827 -29.0625 83.875 Z " fill="#6837B5" transform="translate(230,191)"/>
<path d="M0 0 C0.99 0.33 1.98 0.66 3 1 C1.68 3.97 0.36 6.94 -1 10 C1.97 10.66 4.94 11.32 8 12 C8 14.31 8 16.62 8 19 C15.26 19 22.52 19 30 19 C30 22 30 22 28.5390625 23.82421875 C27.90742188 24.43910156 27.27578125 25.05398437 26.625 25.6875 C25.99851562 26.31011719 25.37203125 26.93273437 24.7265625 27.57421875 C23 29 23 29 21 29 C20.61328125 29.87398437 20.61328125 29.87398437 20.21875 30.765625 C18.90165983 33.1802903 17.44911616 34.81740177 15.5 36.75 C14.58734375 37.67039062 14.58734375 37.67039062 13.65625 38.609375 C12 40 12 40 10 40 C10 40.66 10 41.32 10 42 C9.34 42 8.68 42 8 42 C8 44.97 8 47.94 8 51 C7.67 51 7.34 51 7 51 C7 44.73 7 38.46 7 32 C1.16545804 33.64266963 1.16545804 33.64266963 -4.66748047 35.29101562 C-5.39338379 35.49404297 -6.11928711 35.69707031 -6.8671875 35.90625 C-7.61081543 36.11572266 -8.35444336 36.32519531 -9.12060547 36.54101562 C-11 37 -11 37 -13 37 C-13 38.32 -13 39.64 -13 41 C-13.66 40.67 -14.32 40.34 -15 40 C-14.67 39.34 -14.34 38.68 -14 38 C-14.66 38 -15.32 38 -16 38 C-16 37.34 -16 36.68 -16 36 C-18.64 36.33 -21.28 36.66 -24 37 C-24 31.06 -24 25.12 -24 19 C-22.02 18.01 -20.04 17.02 -18 16 C-17.67 15.34 -17.34 14.68 -17 14 C-15.109375 13.33203125 -15.109375 13.33203125 -12.75 12.8125 C-11.98171875 12.63332031 -11.2134375 12.45414063 -10.421875 12.26953125 C-7.72343849 11.96922138 -5.62113071 12.34471732 -3 13 C-2.86722656 12.22914063 -2.73445313 11.45828125 -2.59765625 10.6640625 C-2.42105469 9.66117188 -2.24445313 8.65828125 -2.0625 7.625 C-1.88847656 6.62726563 -1.71445312 5.62953125 -1.53515625 4.6015625 C-1 2 -1 2 0 0 Z " fill="#6738AE" transform="translate(343,197)"/>
<path d="M0 0 C1.76279117 3.52558233 1.22713881 7.55395591 1.25 11.4375 C1.270625 12.30955078 1.29125 13.18160156 1.3125 14.08007812 C1.31765625 14.91861328 1.3228125 15.75714844 1.328125 16.62109375 C1.34214355 17.77242798 1.34214355 17.77242798 1.35644531 18.94702148 C0.89903563 21.58151326 0.10832763 22.39191803 -2 24 C-3.83764648 24.79956055 -3.83764648 24.79956055 -5.87109375 25.38671875 C-6.61037109 25.60263672 -7.34964844 25.81855469 -8.11132812 26.04101562 C-9.2627832 26.36102539 -9.2627832 26.36102539 -10.4375 26.6875 C-11.20126953 26.91244141 -11.96503906 27.13738281 -12.75195312 27.36914062 C-16.40861524 28.41617442 -19.13116679 29 -23 29 C-23 21.41 -23 13.82 -23 6 C-19.9475 5.01 -16.895 4.02 -13.75 3 C-12.79448242 2.68675781 -11.83896484 2.37351563 -10.85449219 2.05078125 C-10.09297852 1.80714844 -9.33146484 1.56351563 -8.546875 1.3125 C-7.77182617 1.06113281 -6.99677734 0.80976563 -6.19824219 0.55078125 C-4 0 -4 0 0 0 Z " fill="#7D4FB8" transform="translate(404,167)"/>
<path d="M0 0 C0.66 0 1.32 0 2 0 C2.02332838 17.58454118 2.04097887 35.16907754 2.05181217 52.75363064 C2.05697526 60.91787164 2.0640182 69.08210305 2.07543945 77.24633789 C2.0853859 84.35971284 2.09185333 91.47308085 2.09408849 98.58646256 C2.09539567 102.35525724 2.09848194 106.12403203 2.10573006 109.89282036 C2.11374316 114.09318816 2.11399116 118.29352108 2.11352539 122.49389648 C2.11712067 123.75265091 2.12071594 125.01140533 2.12442017 126.30830383 C2.1230455 127.44558929 2.12167084 128.58287476 2.12025452 129.75462341 C2.12163721 131.24654536 2.12163721 131.24654536 2.12304783 132.76860714 C2 135 2 135 1 136 C-0.74626524 136.09629597 -2.49645905 136.12187539 -4.24537659 136.12025452 C-5.38266205 136.12162918 -6.51994751 136.12300385 -7.69169617 136.12442017 C-9.5798278 136.11902725 -9.5798278 136.11902725 -11.50610352 136.11352539 C-12.82298157 136.11367142 -14.13985962 136.11381744 -15.49664307 136.1139679 C-19.11838268 136.11425587 -22.74008946 136.10835924 -26.36182141 136.10139394 C-30.14281884 136.0951603 -33.92381695 136.09455659 -37.70481873 136.09336853 C-44.8694429 136.09025524 -52.0340519 136.08204189 -59.19866937 136.07201904 C-67.35331162 136.06085782 -75.50795457 136.05534743 -83.66260254 136.05032361 C-100.44174393 136.03985928 -117.22087003 136.02225989 -134 136 C-134 135.34 -134 134.68 -134 134 C-89.78 134 -45.56 134 0 134 C0 89.78 0 45.56 0 0 Z " fill="#7D5DAB" transform="translate(229,198)"/>
<path d="M0 0 C0 6.93 0 13.86 0 21 C-13.33333333 26 -13.33333333 26 -21 26 C-21 19.07 -21 12.14 -21 5 C-6 0 -6 0 0 0 Z " fill="#412664" transform="translate(381,234)"/>
<path d="M0 0 C0 6.6 0 13.2 0 20 C-7.11851177 22.66944191 -12.61639048 23.9092395 -20 25 C-20 18.4 -20 11.8 -20 5 C-17.628125 4.175 -15.25625 3.35 -12.8125 2.5 C-12.07491455 2.23896484 -11.3373291 1.97792969 -10.57739258 1.70898438 C-6.72835498 0.39911608 -4.15756073 0 0 0 Z " fill="#412168" transform="translate(350,229)"/>
<path d="M0 0 C27.06 0 54.12 0 82 0 C82 0.33 82 0.66 82 1 C55.6 1 29.2 1 2 1 C2.33 46.21 2.66 91.42 3 138 C2.01 138.33 1.02 138.66 0 139 C0 93.13 0 47.26 0 0 Z " fill="#7452A7" transform="translate(252,194)"/>
<path d="M0 0 C0 5.94 0 11.88 0 18 C-5.96977039 20.08468172 -11.80744808 21.72217183 -18 23 C-18 17.06 -18 11.12 -18 5 C-15.79726531 4.2657551 -13.59439699 3.53190686 -11.390625 2.80078125 C-9.4629535 2.15507429 -7.54269978 1.48724622 -5.625 0.8125 C-3 0 -3 0 0 0 Z " fill="#967DC8" transform="translate(337,211)"/>
<path d="M0 0 C0 4.62 0 9.24 0 14 C-10.17857143 17.34821429 -10.17857143 17.34821429 -14 16 C-14.05389087 14.04196493 -14.09274217 12.08351091 -14.125 10.125 C-14.14820313 9.03445312 -14.17140625 7.94390625 -14.1953125 6.8203125 C-14 4 -14 4 -12 2 C-7.68489841 0.5344938 -4.6159923 0 0 0 Z " fill="#7D4EB3" transform="translate(405,225)"/>
<path d="M0 0 C2.59400506 2.59400506 2.32711615 3.83184616 2.375 7.4375 C2.40335937 8.40558594 2.43171875 9.37367188 2.4609375 10.37109375 C2 13 2 13 0.3046875 14.7734375 C-3.62325282 16.86390065 -7.63271515 17.25296443 -12 18 C-12 13.38 -12 8.76 -12 4 C-8 2.66666667 -4 1.33333333 0 0 Z " fill="#6838AE" transform="translate(370,197)"/>
<path d="M0 0 C1 1 1 1 1.1328125 2.9609375 C1.13023437 3.75757813 1.12765625 4.55421875 1.125 5.375 C1.12757813 6.16648438 1.13015625 6.95796875 1.1328125 7.7734375 C1 10 1 10 0 13 C-1.92578125 13.94921875 -1.92578125 13.94921875 -4.3125 14.6875 C-5.09238281 14.93886719 -5.87226563 15.19023437 -6.67578125 15.44921875 C-9 16 -9 16 -13 16 C-13 11.38 -13 6.76 -13 2 C-7.90933997 0.30311332 -5.15775555 -0.30339739 0 0 Z " fill="#8058B0" transform="translate(371,175)"/>
<path d="M0 0 C0.66 0 1.32 0 2 0 C2 17.82 2 35.64 2 54 C-2.28574353 56.14287176 -4.35696746 56.25718461 -9.06640625 56.265625 C-10.07936012 56.26849518 -10.07936012 56.26849518 -11.11277771 56.27142334 C-12.53571955 56.27278047 -13.95867396 56.26911703 -15.3815918 56.26074219 C-17.55871339 56.25001865 -19.73501304 56.2606614 -21.91210938 56.2734375 C-23.29687682 56.27211615 -24.68164375 56.26955425 -26.06640625 56.265625 C-27.32396729 56.26336914 -28.58152832 56.26111328 -29.87719727 56.25878906 C-33 56 -33 56 -36 54 C-31.83744602 53.85627913 -27.67484861 53.71390923 -23.51220703 53.57275391 C-22.09813205 53.52461656 -20.68406926 53.47611954 -19.27001953 53.42724609 C-17.22952375 53.356785 -15.18898663 53.28764671 -13.1484375 53.21875 C-11.31031494 53.1559082 -11.31031494 53.1559082 -9.43505859 53.09179688 C-6.29101267 53.00777688 -3.14516838 53 0 53 C0 35.51 0 18.02 0 0 Z " fill="#634098" transform="translate(207,269)"/>
<path d="M0 0 C0 4.29 0 8.58 0 13 C-4.93367347 15.00691802 -7.55520605 16 -13 16 C-13 11.71 -13 7.42 -13 3 C-4.5 0 -4.5 0 0 0 Z " fill="#967CC9" transform="translate(320,243)"/>
<path d="M0 0 C0.08082094 1.95766281 0.13910778 3.91626728 0.1875 5.875 C0.22230469 6.96554688 0.25710938 8.05609375 0.29296875 9.1796875 C0.19628906 10.11039063 0.09960938 11.04109375 0 12 C-2.81405967 13.87603978 -4.40924666 14.49092802 -7.625 15.1875 C-8.81996094 15.45626953 -8.81996094 15.45626953 -10.0390625 15.73046875 C-10.68617188 15.81941406 -11.33328125 15.90835938 -12 16 C-13 15 -13 15 -13.09765625 12.27734375 C-13.08605469 11.17519531 -13.07445312 10.07304687 -13.0625 8.9375 C-13.05347656 7.83277344 -13.04445313 6.72804687 -13.03515625 5.58984375 C-13.02355469 4.73519531 -13.01195312 3.88054687 -13 3 C-11.58603098 2.49242138 -10.16868271 1.99425075 -8.75 1.5 C-7.96109375 1.2215625 -7.1721875 0.943125 -6.359375 0.65625 C-4 0 -4 0 0 0 Z " fill="#7C5BA9" transform="translate(393,203)"/>
<path d="M0 0 C0 2.64 0 5.28 0 8 C6.93 8 13.86 8 21 8 C21 8.33 21 8.66 21 9 C17.37501666 9.02893932 13.75006287 9.04677792 10.125 9.0625 C8.57619141 9.07506836 8.57619141 9.07506836 6.99609375 9.08789062 C6.00996094 9.09111328 5.02382813 9.09433594 4.0078125 9.09765625 C3.09660645 9.10289307 2.18540039 9.10812988 1.24658203 9.11352539 C-1 9 -1 9 -3 8 C-3.20625 8.78375 -3.4125 9.5675 -3.625 10.375 C-5 13 -5 13 -8.125 14.3125 C-9.07375 14.539375 -10.0225 14.76625 -11 15 C-12 14 -12 14 -12.09765625 11.49609375 C-12.08605469 10.48675781 -12.07445312 9.47742188 -12.0625 8.4375 C-12.05347656 7.42558594 -12.04445313 6.41367188 -12.03515625 5.37109375 C-12.02355469 4.58863281 -12.01195312 3.80617187 -12 3 C-10.68 3 -9.36 3 -8 3 C-8 2.01 -8 1.02 -8 0 C-5.13822943 -1.43088528 -3.06624227 -0.59991697 0 0 Z " fill="#6A39B5" transform="translate(350,209)"/>
<path d="M0 0 C0 3.63 0 7.26 0 11 C-3.61973402 12.31626692 -6.09567131 13 -10 13 C-10 9.7 -10 6.4 -10 3 C-1.125 0 -1.125 0 0 0 Z " fill="#301A4D" transform="translate(349,264)"/>
<path d="M0 0 C0.33 0 0.66 0 1 0 C1 2.31 1 4.62 1 7 C8.26 7 15.52 7 23 7 C23 10 23 10 21.5390625 11.82421875 C20.59160156 12.74654297 20.59160156 12.74654297 19.625 13.6875 C18.99851562 14.31011719 18.37203125 14.93273437 17.7265625 15.57421875 C16 17 16 17 14 17 C13.375 15.1875 13.375 15.1875 13 13 C13.66 12.01 14.32 11.02 15 10 C10.38 10 5.76 10 1 10 C-0.60725635 6.78548731 -0.05748185 3.56387464 0 0 Z " fill="#926DC7" transform="translate(350,209)"/>
<path d="M0 0 C0.66 0 1.32 0 2 0 C1.72613359 4.655729 -0.24528011 6.58661828 -3.52734375 9.5703125 C-5.24140895 11.13395217 -5.24140895 11.13395217 -7 14 C-7.66 13.67 -8.32 13.34 -9 13 C-9.33 13.99 -9.66 14.98 -10 16 C-11.4375 17.6875 -11.4375 17.6875 -13 19 C-13.66 19 -14.32 19 -15 19 C-14.67 19.99 -14.34 20.98 -14 22 C-14.99 22.33 -15.98 22.66 -17 23 C-17 22.34 -17 21.68 -17 21 C-17.66 20.67 -18.32 20.34 -19 20 C-18.14535156 19.15695313 -17.29070312 18.31390625 -16.41015625 17.4453125 C-15.29413953 16.33867407 -14.17826128 15.23189598 -13.0625 14.125 C-12.49853516 13.56941406 -11.93457031 13.01382813 -11.35351562 12.44140625 C-8.30139972 9.5078429 -8.30139972 9.5078429 -6 6 C-5.34 6 -4.68 6 -4 6 C-4 5.34 -4 4.68 -4 4 C-3.34 4 -2.68 4 -2 4 C-1.34 2.68 -0.68 1.36 0 0 Z " fill="#6037A2" transform="translate(190,231)"/>
<path d="M0 0 C1.17426264 2.34852528 1.11508173 3.73774065 1.09765625 6.3515625 C1.09443359 7.20234375 1.09121094 8.053125 1.08789062 8.9296875 C1.07951172 9.81914062 1.07113281 10.70859375 1.0625 11.625 C1.05798828 12.5221875 1.05347656 13.419375 1.04882812 14.34375 C1.03702591 16.56256648 1.02056155 18.78125018 1 21 C0.34 21.33 -0.32 21.66 -1 22 C-1.33 16.06 -1.66 10.12 -2 4 C-3.98 4.99 -5.96 5.98 -8 7 C-8 6.01 -8 5.02 -8 4 C-8.99 4.495 -8.99 4.495 -10 5 C-12.6723621 5.13415472 -15.32250488 5.04318541 -18 5 C-15.06729118 3.4386041 -12.17931727 2.33461101 -9 1.375 C-8.154375 1.11460937 -7.30875 0.85421875 -6.4375 0.5859375 C-4 0 -4 0 0 0 Z " fill="#8D6EB2" transform="translate(404,167)"/>
<path d="M0 0 C0 3.3 0 6.6 0 10 C-4.455 10.495 -4.455 10.495 -9 11 C-9 8.03 -9 5.06 -9 2 C-5.62902617 0.50178941 -3.79557881 0 0 0 Z " fill="#422070" transform="translate(313,205)"/>
<path d="M0 0 C0.58203125 1.859375 0.58203125 1.859375 1 4 C-0.3125 6.25 -0.3125 6.25 -2 8 C-2.66 8 -3.32 8 -4 8 C-4 8.66 -4 9.32 -4 10 C-7.09007389 13.61980085 -9.17965738 15.58682778 -14 16 C-14 16.66 -14 17.32 -14 18 C-14.66 18 -15.32 18 -16 18 C-16 18.66 -16 19.32 -16 20 C-16.99 19.67 -17.98 19.34 -19 19 C-18.34 19 -17.68 19 -17 19 C-17 18.34 -17 17.68 -17 17 C-16.34 17 -15.68 17 -15 17 C-15 16.34 -15 15.68 -15 15 C-14.34 15 -13.68 15 -13 15 C-13 14.34 -13 13.68 -13 13 C-12.34 13 -11.68 13 -11 13 C-10.76539062 12.43796875 -10.53078125 11.8759375 -10.2890625 11.296875 C-8.69337 8.45364109 -6.71075457 6.51901873 -4.375 4.25 C-3.55773437 3.45078125 -2.74046875 2.6515625 -1.8984375 1.828125 C-0.95871094 0.92320312 -0.95871094 0.92320312 0 0 Z " fill="#7755AB" transform="translate(136,289)"/>
<path d="M0 0 C0.04241723 2.33294775 0.04092937 4.66702567 0 7 C-1 8 -1 8 -3.5625 8.0625 C-4.366875 8.041875 -5.17125 8.02125 -6 8 C-5.67 8.99 -5.34 9.98 -5 11 C-5.99 10.67 -6.98 10.34 -8 10 C-8 6.7 -8 3.4 -8 0 C-2.25 -1.125 -2.25 -1.125 0 0 Z " fill="#6E3CB4" transform="translate(390,207)"/>
<path d="M0 0 C0.33 0 0.66 0 1 0 C1.3125 2.1875 1.3125 2.1875 1 5 C-2.09813918 8.66143721 -5.85170903 11.62347331 -9.546875 14.66796875 C-11.12779183 15.9579691 -11.12779183 15.9579691 -12 18 C-12.99 18.33 -13.98 18.66 -15 19 C-16.66710346 20.49985609 -16.66710346 20.49985609 -18 22 C-18.33 21.34 -18.66 20.68 -19 20 C-18.34 20 -17.68 20 -17 20 C-16.73123047 19.40453369 -16.46246094 18.80906738 -16.18554688 18.19555664 C-14.99645396 15.99343296 -13.820257 14.60232843 -12.03125 12.87109375 C-11.46019531 12.31099609 -10.88914063 11.75089844 -10.30078125 11.17382812 C-9.40939453 10.3143457 -9.40939453 10.3143457 -8.5 9.4375 C-7.32065437 8.29269053 -6.14348348 7.14563543 -4.96875 5.99609375 C-4.44732422 5.49263428 -3.92589844 4.9891748 -3.38867188 4.47045898 C-1.7743892 2.84358092 -1.7743892 2.84358092 0 0 Z " fill="#7859AC" transform="translate(170,252)"/>
<path d="M0 0 C0.99 0 1.98 0 3 0 C2.95875 0.78375 2.9175 1.5675 2.875 2.375 C2.71271266 5.16116119 2.71271266 5.16116119 5 7 C4.01 7.99 3.02 8.98 2 10 C4.31 10.66 6.62 11.32 9 12 C9 12.33 9 12.66 9 13 C5.7 13.66 2.4 14.32 -1 15 C-1.02685412 12.68756208 -1.04632841 10.3750373 -1.0625 8.0625 C-1.07410156 6.77472656 -1.08570313 5.48695313 -1.09765625 4.16015625 C-1 1 -1 1 0 0 Z M1 5 C2 7 2 7 2 7 Z " fill="#7B54B2" transform="translate(359,200)"/>
<path d="M0 0 C1.32 0 2.64 0 4 0 C3.15233735 4.63596678 0.30762457 6.99266429 -3 10.125 C-6.97988997 13.68912684 -6.97988997 13.68912684 -10 18 C-10.66 17.67 -11.32 17.34 -12 17 C-11.67 15.02 -11.34 13.04 -11 11 C-10.05125 10.9175 -9.1025 10.835 -8.125 10.75 C-4.97383613 10.35777743 -4.97383613 10.35777743 -3.8125 8.3125 C-3.544375 7.549375 -3.27625 6.78625 -3 6 C-2 4 -1 2 0 0 Z " fill="#7455A6" transform="translate(188,283)"/>
<path d="M0 0 C0.66 0.66 1.32 1.32 2 2 C0.73786958 5.78639125 -0.65345351 6.04104596 -4 8 C-4.99 9.485 -4.99 9.485 -6 11 C-5.01 12.485 -5.01 12.485 -4 14 C-4.99 14.495 -4.99 14.495 -6 15 C-8 14.125 -8 14.125 -10 13 C-10.66 12.67 -11.32 12.34 -12 12 C-8.04 8.04 -4.08 4.08 0 0 Z " fill="#7F61B2" transform="translate(115,311)"/>
<path d="M0 0 C0.99 0.33 1.98 0.66 3 1 C-0.96 4.96 -4.92 8.92 -9 13 C-6.03 13.495 -6.03 13.495 -3 14 C-3 14.33 -3 14.66 -3 15 C-5.64 15 -8.28 15 -11 15 C-11.33 13.35 -11.66 11.7 -12 10 C-10.68 10 -9.36 10 -8 10 C-8 9.34 -8 8.68 -8 8 C-7.34 8 -6.68 8 -6 8 C-5.67 6.68 -5.34 5.36 -5 4 C-4.01 4 -3.02 4 -2 4 C-1.34 2.68 -0.68 1.36 0 0 Z " fill="#8664B3" transform="translate(167,308)"/>
<path d="M0 0 C0.66 0.33 1.32 0.66 2 1 C2 1.66 2 2.32 2 3 C1.34 3 0.68 3 0 3 C-0.33 3.99 -0.66 4.98 -1 6 C-2.4375 7.6875 -2.4375 7.6875 -4 9 C-4.66 9 -5.32 9 -6 9 C-5.67 9.99 -5.34 10.98 -5 12 C-5.99 12.33 -6.98 12.66 -8 13 C-8 12.34 -8 11.68 -8 11 C-8.66 10.67 -9.32 10.34 -10 10 C-6.7 6.7 -3.4 3.4 0 0 Z " fill="#7D59B2" transform="translate(181,241)"/>
<path d="M0 0 C2 2 2 2 2.1953125 4.6015625 C2.17210937 5.59929687 2.14890625 6.59703125 2.125 7.625 C2.10695313 8.62789062 2.08890625 9.63078125 2.0703125 10.6640625 C2.03550781 11.82035156 2.03550781 11.82035156 2 13 C1.01 13 0.02 13 -1 13 C-0.67 9.7 -0.34 6.4 0 3 C-0.66 3.66 -1.32 4.32 -2 5 C-4.93453261 4.63318342 -5.86437246 4.13562754 -8 2 C-6.71254964 1.61077082 -5.41980403 1.23901964 -4.125 0.875 C-3.04605469 0.56175781 -3.04605469 0.56175781 -1.9453125 0.2421875 C-1.30335938 0.16226563 -0.66140625 0.08234375 0 0 Z " fill="#9573B6" transform="translate(370,197)"/>
<path d="M0 0 C2.475 0.99 2.475 0.99 5 2 C3.625 4 3.625 4 2 6 C1.34 6 0.68 6 0 6 C0 6.66 0 7.32 0 8 C-0.66 8 -1.32 8 -2 8 C-2 8.66 -2 9.32 -2 10 C-3.98 10.99 -3.98 10.99 -6 12 C-5.67 10.35 -5.34 8.7 -5 7 C-4.01 7 -3.02 7 -2 7 C-1.855625 6.030625 -1.71125 5.06125 -1.5625 4.0625 C-1 1 -1 1 0 0 Z " fill="#825FB3" transform="translate(275,306)"/>
<path d="M0 0 C0 6.93 0 13.86 0 21 C-0.33 21 -0.66 21 -1 21 C-1 14.73 -1 8.46 -1 2 C-2.98 2.66 -4.96 3.32 -7 4 C-9.875 3.625 -9.875 3.625 -12 3 C-7.80491562 0.75263337 -4.79167039 0 0 0 Z " fill="#453758" transform="translate(381,234)"/>
<path d="M0 0 C1.32 0 2.64 0 4 0 C4 2.64 4 5.28 4 8 C10.93 8 17.86 8 25 8 C25 8.33 25 8.66 25 9 C17.74 9 10.48 9 3 9 C2.67 6.69 2.34 4.38 2 2 C1.34 2 0.68 2 0 2 C0 1.34 0 0.68 0 0 Z " fill="#4B2483" transform="translate(346,209)"/>
<path d="M0 0 C0 2.83967231 -0.40267181 5.23735711 -1 8 C-1.66 8 -2.32 8 -3 8 C-3 9.32 -3 10.64 -3 12 C-3.99 12.33 -4.98 12.66 -6 13 C-6.9375 10.4375 -6.9375 10.4375 -7 7 C-4.95937374 4.32368126 -2.56785409 2.16442564 0 0 Z " fill="#774CB3" transform="translate(209,211)"/>
<path d="M0 0 C-1.49097658 3.7952131 -3.75700849 5.61042731 -7 8 C-7.66 6.35 -8.32 4.7 -9 3 C-6.31795079 0.31795079 -3.73391546 0 0 0 Z " fill="#7B5CB0" transform="translate(364,226)"/>
<path d="M0 0 C2.46800047 1.15173355 4.04783565 2.04783565 6 4 C4.71034824 5.37562854 3.37310707 6.70766393 2 8 C1.34 8 0.68 8 0 8 C-0.38063221 5.6739143 -0.71269945 3.33944736 -1 1 C-0.67 0.67 -0.34 0.34 0 0 Z " fill="#7C56B0" transform="translate(255,323)"/>
<path d="M0 0 C0.33 0.66 0.66 1.32 1 2 C-0.98 2 -2.96 2 -5 2 C-4.67 5.96 -4.34 9.92 -4 14 C-4.99 13.67 -5.98 13.34 -7 13 C-7 9.04 -7 5.08 -7 1 C-3.535 0.505 -3.535 0.505 0 0 Z " fill="#7150A3" transform="translate(387,205)"/>
<path d="M0 0 C0.33 0 0.66 0 1 0 C1.33 1.98 1.66 3.96 2 6 C4.31 6 6.62 6 9 6 C9.33 6.66 9.66 7.32 10 8 C6.38026598 9.31626692 3.90432869 10 0 10 C0 6.7 0 3.4 0 0 Z " fill="#7F6E91" transform="translate(339,267)"/>
<path d="M0 0 C-0.99 0.66 -1.98 1.32 -3 2 C-3.61824717 4.12376704 -3.61824717 4.12376704 -3.75 6.5 C-3.82734375 7.2940625 -3.9046875 8.088125 -3.984375 8.90625 C-4.15884436 11.06054111 -4.15884436 11.06054111 -3 13 C-3.99 13 -4.98 13 -6 13 C-6 8.71 -6 4.42 -6 0 C-3.50907189 -1.24546405 -2.58919267 -0.7767578 0 0 Z " fill="#9E7DD7" transform="translate(313,246)"/>
<path d="M0 0 C2.625 0.375 2.625 0.375 5 1 C4.01 2.485 4.01 2.485 3 4 C2.34 4 1.68 4 1 4 C1 4.66 1 5.32 1 6 C0.34 6 -0.32 6 -1 6 C-1 8.97 -1 11.94 -1 15 C-1.33 15 -1.66 15 -2 15 C-2.05386629 12.87527424 -2.09273071 10.75016348 -2.125 8.625 C-2.14820313 7.44164062 -2.17140625 6.25828125 -2.1953125 5.0390625 C-2 2 -2 2 0 0 Z " fill="#9472B7" transform="translate(352,233)"/>
<path d="M0 0 C-2.91765 1.9451 -4.62537285 2.45276317 -8 3 C-8 4.32 -8 5.64 -8 7 C-8.66 6.67 -9.32 6.34 -10 6 C-9.67 5.34 -9.34 4.68 -9 4 C-9.66 4 -10.32 4 -11 4 C-10.67 2.68 -10.34 1.36 -10 0 C-6.42355152 -1.2380014 -3.66305234 -0.74926071 0 0 Z " fill="#623AA1" transform="translate(338,231)"/>
<path d="M0 0 C3.63 0 7.26 0 11 0 C10.67 2.64 10.34 5.28 10 8 C9.34 8 8.68 8 8 8 C8 5.69 8 3.38 8 1 C5.03 1.66 2.06 2.32 -1 3 C-0.67 2.01 -0.34 1.02 0 0 Z " fill="#6138A4" transform="translate(305,204)"/>
<path d="M0 0 C0.33 0 0.66 0 1 0 C1 3.3 1 6.6 1 10 C4.3 10 7.6 10 11 10 C7.53958935 12.30694043 5.09789669 12.62056512 1 13 C0 12 0 12 -0.09765625 9.27734375 C-0.08605469 8.17519531 -0.07445312 7.07304687 -0.0625 5.9375 C-0.05347656 4.83277344 -0.04445313 3.72804687 -0.03515625 2.58984375 C-0.02355469 1.73519531 -0.01195312 0.88054687 0 0 Z " fill="#B297C5" transform="translate(391,229)"/>
<path d="M0 0 C0.66 0 1.32 0 2 0 C2 0.99 2 1.98 2 3 C1.01 3.33 0.02 3.66 -1 4 C-0.67 2.68 -0.34 1.36 0 0 Z M-5 4 C-3.68 4 -2.36 4 -1 4 C-1 4.66 -1 5.32 -1 6 C-1.639375 6.474375 -2.27875 6.94875 -2.9375 7.4375 C-5.28372963 8.9091365 -5.28372963 8.9091365 -6 12 C-6.66 12 -7.32 12 -8 12 C-6.125 5.125 -6.125 5.125 -5 4 Z " fill="#663BA8" transform="translate(221,200)"/>
<path d="M0 0 C0.33 0 0.66 0 1 0 C1.3125 2.1875 1.3125 2.1875 1 5 C-1.5 7.8125 -1.5 7.8125 -4 10 C-4.99 9.34 -5.98 8.68 -7 8 C-5.85760183 6.66372225 -4.71098945 5.33104612 -3.5625 4 C-2.92441406 3.2575 -2.28632813 2.515 -1.62890625 1.75 C-1.09136719 1.1725 -0.55382812 0.595 0 0 Z " fill="#7B56AE" transform="translate(170,252)"/>
<path d="M0 0 C1 2 1 2 0.375 4 C-1 6 -1 6 -3.5625 7 C-4.366875 7.33 -5.17125 7.66 -6 8 C-6.88693303 10.04105639 -6.88693303 10.04105639 -7 12 C-7.99 11.67 -8.98 11.34 -10 11 C-9.67 10.34 -9.34 9.68 -9 9 C-8.34 9 -7.68 9 -7 9 C-7 8.34 -7 7.68 -7 7 C-6.34 7 -5.68 7 -5 7 C-4.731875 6.401875 -4.46375 5.80375 -4.1875 5.1875 C-3.01506533 3.02775192 -1.80630718 1.64209744 0 0 Z " fill="#8A6FB0" transform="translate(227,192)"/>
<path d="M0 0 C0.33 0 0.66 0 1 0 C1 4.62 1 9.24 1 14 C-0.65 14 -2.3 14 -4 14 C-3.67 13.01 -3.34 12.02 -3 11 C-2.34 11 -1.68 11 -1 11 C-0.67 7.37 -0.34 3.74 0 0 Z " fill="#704F99" transform="translate(404,225)"/>
<path d="M0 0 C-2.64 2.64 -5.28 5.28 -8 8 C-8.66 7.34 -9.32 6.68 -10 6 C-8.68 5.34 -7.36 4.68 -6 4 C-6 2.68 -6 1.36 -6 0 C-3 -1 -3 -1 0 0 Z " fill="#8061AD" transform="translate(289,300)"/>
<path d="M0 0 C0.66 0 1.32 0 2 0 C1.34 2.97 0.68 5.94 0 9 C-0.66 9 -1.32 9 -2 9 C-2.33 6.69 -2.66 4.38 -3 2 C-2.01 2 -1.02 2 0 2 C0 1.34 0 0.68 0 0 Z M-5 5 C-4.01 5.495 -4.01 5.495 -3 6 C-3.99 6.495 -3.99 6.495 -5 7 C-5 6.34 -5 5.68 -5 5 Z " fill="#6536AB" transform="translate(341,197)"/>
<path d="M0 0 C-5.29151818 2.84927902 -9.95448991 4.28788143 -16 4 C-11.95384951 -0.04615049 -5.4704121 -1.94111397 0 0 Z " fill="#916FB6" transform="translate(402,190)"/>
<path d="M0 0 C1.32 0 2.64 0 4 0 C3.65120368 3.25543229 2.97866739 4.01873107 0.4375 6.25 C-0.366875 6.8275 -1.17125 7.405 -2 8 C-1.125 2.25 -1.125 2.25 0 0 Z " fill="#8764B3" transform="translate(188,283)"/>
<path d="M0 0 C-1.5830577 4.2742558 -4.50568404 6.26531794 -8 9 C-7.37344168 6.07606119 -6.5838192 3.55170871 -5 1 C-2 0 -2 0 0 0 Z " fill="#7F62B2" transform="translate(322,267)"/>
<path d="M0 0 C0.99 0.33 1.98 0.66 3 1 C1.02 5.455 1.02 5.455 -1 10 C-0.34 10.33 0.32 10.66 1 11 C0.01 11 -0.98 11 -2 11 C-1.85892253 9.54119891 -1.71197585 8.08296449 -1.5625 6.625 C-1.48128906 5.81289062 -1.40007812 5.00078125 -1.31640625 4.1640625 C-1 2 -1 2 0 0 Z " fill="#7D61AC" transform="translate(343,197)"/>
<path d="M0 0 C0.66 0.99 1.32 1.98 2 3 C1.01 3 0.02 3 -1 3 C-1 3.99 -1 4.98 -1 6 C-0.34 6 0.32 6 1 6 C1 6.66 1 7.32 1 8 C-1.31 8 -3.62 8 -6 8 C-4.7260411 5.96166576 -3.38938077 3.96147874 -2 2 C-1.34 2 -0.68 2 0 2 C0 1.34 0 0.68 0 0 Z " fill="#8260B3" transform="translate(102,324)"/>
<path d="M0 0 C0.33 1.32 0.66 2.64 1 4 C-0.98 4.66 -2.96 5.32 -5 6 C-4.625 3.5625 -4.625 3.5625 -4 1 C-2 0 -2 0 0 0 Z M1 1 C3 2 3 2 3 2 Z " fill="#6338A4" transform="translate(154,273)"/>
<path d="M0 0 C0.99 0.33 1.98 0.66 3 1 C0.36 3.64 -2.28 6.28 -5 9 C-5.33 8.01 -5.66 7.02 -6 6 C-2.83636364 1.41818182 -2.83636364 1.41818182 0 0 Z " fill="#795DA3" transform="translate(371,217)"/>
<path d="M0 0 C0.66 0 1.32 0 2 0 C2 2.31 2 4.62 2 7 C0.02 7.66 -1.96 8.32 -4 9 C-4 8.34 -4 7.68 -4 7 C-3.34 7 -2.68 7 -2 7 C-1.34 4.69 -0.68 2.38 0 0 Z " fill="#653EA0" transform="translate(228,191)"/>
<path d="M0 0 C0.33 0 0.66 0 1 0 C1.04898437 1.05960938 1.09796875 2.11921875 1.1484375 3.2109375 C1.22346709 4.59898497 1.29901485 5.98700451 1.375 7.375 C1.4059375 8.07367188 1.436875 8.77234375 1.46875 9.4921875 C1.59499498 13.70185827 1.59499498 13.70185827 4 17 C2.68 17.33 1.36 17.66 0 18 C0 12.06 0 6.12 0 0 Z " fill="#9A74D5" transform="translate(319,216)"/>
<path d="M0 0 C0 2.31 0 4.62 0 7 C-0.37125 6.525625 -0.7425 6.05125 -1.125 5.5625 C-3.62646962 3.47794198 -5.81593418 3.35378509 -9 3 C-6.17608653 1.48718921 -3.28056633 0 0 0 Z " fill="#5D5273" transform="translate(349,264)"/>
<path d="M0 0 C0.99 0.33 1.98 0.66 3 1 C0.93243723 3.7972908 -0.14440371 4.02692273 -3.6875 4.6875 C-4.780625 4.790625 -5.87375 4.89375 -7 5 C-7 4.01 -7 3.02 -7 2 C-5.824375 1.7834375 -5.824375 1.7834375 -4.625 1.5625 C-2.03578982 1.12201075 -2.03578982 1.12201075 0 0 Z " fill="#4F3C66" transform="translate(342,248)"/>
<path d="M0 0 C1.485 0.99 1.485 0.99 3 2 C3.40843923 4.71203652 3.13336867 7.2437142 3 10 C2.01 9.67 1.02 9.34 0 9 C0 6.03 0 3.06 0 0 Z " fill="#321957" transform="translate(347,238)"/>
<path d="M0 0 C-0.33 1.32 -0.66 2.64 -1 4 C-1.33 3.67 -1.66 3.34 -2 3 C-3.51928038 2.92820036 -5.04167482 2.91607993 -6.5625 2.9375 C-7.80193359 2.95103516 -7.80193359 2.95103516 -9.06640625 2.96484375 C-10.02353516 2.98224609 -10.02353516 2.98224609 -11 3 C-7.13828168 1.00255949 -4.44822596 0 0 0 Z " fill="#9174B2" transform="translate(404,225)"/>
<path d="M0 0 C0.66 0 1.32 0 2 0 C1.62005832 2.75457718 1.1926367 3.82020574 -0.875 5.75 C-3 7 -3 7 -6 7 C-5.67 6.01 -5.34 5.02 -5 4 C-4.01 4 -3.02 4 -2 4 C-2 3.34 -2 2.68 -2 2 C-1.34 2 -0.68 2 0 2 C0 1.34 0 0.68 0 0 Z " fill="#6039A2" transform="translate(122,305)"/>
<path d="M0 0 C1.65 0.33 3.3 0.66 5 1 C4.01 1.495 4.01 1.495 3 2 C3 2.66 3 3.32 3 4 C2.34 4 1.68 4 1 4 C0.67 4.99 0.34 5.98 0 7 C-0.66 5.68 -1.32 4.36 -2 3 C-1.34 2.01 -0.68 1.02 0 0 Z " fill="#8568B3" transform="translate(171,301)"/>
<path d="M0 0 C1.32 0 2.64 0 4 0 C3.67 0.99 3.34 1.98 3 3 C5.97 3.495 5.97 3.495 9 4 C9 4.33 9 4.66 9 5 C6.36 5 3.72 5 1 5 C0.67 3.35 0.34 1.7 0 0 Z " fill="#A88EC8" transform="translate(155,318)"/>
<path d="M0 0 C1.32 0.33 2.64 0.66 4 1 C3.3125 2.9375 3.3125 2.9375 2 5 C-0.625 5.75 -0.625 5.75 -3 6 C-2.01 4.02 -1.02 2.04 0 0 Z " fill="#5F38A0" transform="translate(138,287)"/>
<path d="M0 0 C-1.39332574 3.36720387 -2.9789286 4.9859524 -6 7 C-5.67 5.02 -5.34 3.04 -5 1 C-2 0 -2 0 0 0 Z " fill="#7756A6" transform="translate(305,283)"/>
<path d="M0 0 C0.33 0.66 0.66 1.32 1 2 C1.66 2.33 2.32 2.66 3 3 C0.69 4.65 -1.62 6.3 -4 8 C-3.14135976 4.56543904 -2.521063 2.521063 0 0 Z " fill="#7B5BB0" transform="translate(311,274)"/>
<path d="M0 0 C0.66 0 1.32 0 2 0 C1.65120368 3.25543229 0.97866739 4.01873107 -1.5625 6.25 C-2.366875 6.8275 -3.17125 7.405 -4 8 C-3.67 6.35 -3.34 4.7 -3 3 C-2.01 3 -1.02 3 0 3 C0 2.01 0 1.02 0 0 Z " fill="#68479D" transform="translate(199,273)"/>
<path d="M0 0 C0 0.66 0 1.32 0 2 C-4.12168689 3.62950412 -6.70700357 4.26264601 -11 3 C-7.25667087 0.99464511 -4.26323685 0 0 0 Z " fill="#5D4B73" transform="translate(380,234)"/>
<path d="M0 0 C0.99 0 1.98 0 3 0 C2.83628906 0.56203125 2.67257812 1.1240625 2.50390625 1.703125 C1.97135003 4.13059056 1.90101319 6.26889681 1.9375 8.75 C1.94652344 9.54921875 1.95554687 10.3484375 1.96484375 11.171875 C1.97644531 11.77515625 1.98804688 12.3784375 2 13 C1.34 13 0.68 13 0 13 C0 8.71 0 4.42 0 0 Z " fill="#533389" transform="translate(358,201)"/>
<path d="M0 0 C-0.33 1.98 -0.66 3.96 -1 6 C-2.32 5.34 -3.64 4.68 -5 4 C-5 3.34 -5 2.68 -5 2 C-5.66 1.67 -6.32 1.34 -7 1 C-4.53721199 -0.231394 -2.7204945 -0.07159196 0 0 Z " fill="#8C66B8" transform="translate(369,175)"/>
<path d="M0 0 C2 0.1875 2 0.1875 4 1 C4.66 1.99 5.32 2.98 6 4 C5.01 4.495 5.01 4.495 4 5 C2 4.125 2 4.125 0 3 C-0.66 2.67 -1.32 2.34 -2 2 C-1.34 1.34 -0.68 0.68 0 0 Z " fill="#7B4FB0" transform="translate(105,321)"/>
<path d="M0 0 C0 2.62113708 -0.31292445 4.50935112 -1 7 C-2.65 7 -4.3 7 -6 7 C-4.02 4.69 -2.04 2.38 0 0 Z " fill="#8C6AB9" transform="translate(144,280)"/>
<path d="M0 0 C-0.33 1.65 -0.66 3.3 -1 5 C-2.32 4.67 -3.64 4.34 -5 4 C-5 3.01 -5 2.02 -5 1 C-2 0 -2 0 0 0 Z " fill="#411F68" transform="translate(346,269)"/>
<path d="M0 0 C1.32 0.66 2.64 1.32 4 2 C2.02 2.99 2.02 2.99 0 4 C0 4.66 0 5.32 0 6 C-0.99 5.67 -1.98 5.34 -3 5 C-3 4.34 -3 3.68 -3 3 C-2.01 2.67 -1.02 2.34 0 2 C0 1.34 0 0.68 0 0 Z " fill="#8768B7" transform="translate(295,289)"/>
<path d="M0 0 C2.475 0.495 2.475 0.495 5 1 C4.01 1.66 3.02 2.32 2 3 C1.26393501 6.56769552 1.26393501 6.56769552 1 10 C0.67 10 0.34 10 0 10 C0 6.7 0 3.4 0 0 Z " fill="#73509A" transform="translate(392,228)"/>
<path d="M0 0 C0 2.83967231 -0.40267181 5.23735711 -1 8 C-1.66 8 -2.32 8 -3 8 C-3 7.34 -3 6.68 -3 6 C-3.66 5.67 -4.32 5.34 -5 5 C-3.35 3.35 -1.7 1.7 0 0 Z " fill="#936BBF" transform="translate(209,211)"/>
<path d="M0 0 C1.32 0 2.64 0 4 0 C4.33 2.97 4.66 5.94 5 9 C4.34 9 3.68 9 3 9 C2.67 6.69 2.34 4.38 2 2 C1.34 2 0.68 2 0 2 C0 1.34 0 0.68 0 0 Z " fill="#583292" transform="translate(346,209)"/>
<path d="M0 0 C0.66 1.32 1.32 2.64 2 4 C1.195625 4.12375 0.39125 4.2475 -0.4375 4.375 C-1.7059375 4.684375 -1.7059375 4.684375 -3 5 C-3.33 5.66 -3.66 6.32 -4 7 C-4 6.01 -4 5.02 -4 4 C-3.34 3.67 -2.68 3.34 -2 3 C-2 2.34 -2 1.68 -2 1 C-1.34 0.67 -0.68 0.34 0 0 Z " fill="#5C33A2" transform="translate(105,323)"/>
<path d="M0 0 C-1.36983503 3.16115776 -1.9890638 3.9927092 -5 6 C-5 4.35 -5 2.7 -5 1 C-2 0 -2 0 0 0 Z " fill="#8868B8" transform="translate(266,320)"/>
<path d="M0 0 C0.99 0.33 1.98 0.66 3 1 C2.34 2.32 1.68 3.64 1 5 C-0.32 5 -1.64 5 -3 5 C-3 4.34 -3 3.68 -3 3 C-2.01 3 -1.02 3 0 3 C0 2.01 0 1.02 0 0 Z " fill="#6335AB" transform="translate(116,313)"/>
<path d="M0 0 C0.99 0.33 1.98 0.66 3 1 C2.49396008 3.16874252 2.00016187 4.99967627 1 7 C0.34 6.67 -0.32 6.34 -1 6 C-0.67 4.02 -0.34 2.04 0 0 Z " fill="#7C59B2" transform="translate(177,294)"/>
<path d="M0 0 C0.99 0.33 1.98 0.66 3 1 C2.67 1.66 2.34 2.32 2 3 C1.01 3.33 0.02 3.66 -1 4 C-2.66710346 5.49985609 -2.66710346 5.49985609 -4 7 C-4.33 6.34 -4.66 5.68 -5 5 C-4.34 5 -3.68 5 -3 5 C-2.5359375 4.0409375 -2.5359375 4.0409375 -2.0625 3.0625 C-1 1 -1 1 0 0 Z " fill="#9777BE" transform="translate(156,267)"/>
<path d="M0 0 C-1.65 1.32 -3.3 2.64 -5 4 C-5.66 2.68 -6.32 1.36 -7 0 C-3.86650268 -1.04449911 -3.01031744 -0.93423645 0 0 Z " fill="#9377BA" transform="translate(333,259)"/>
<path d="M0 0 C0.33 0.99 0.66 1.98 1 3 C0.67 3.66 0.34 4.32 0 5 C-0.99 5 -1.98 5 -3 5 C-3 5.66 -3 6.32 -3 7 C-3.99 7.33 -4.98 7.66 -6 8 C-6 7.34 -6 6.68 -6 6 C-5.34 6 -4.68 6 -4 6 C-4 5.34 -4 4.68 -4 4 C-3.34 4 -2.68 4 -2 4 C-1.34 2.68 -0.68 1.36 0 0 Z " fill="#9A77BD" transform="translate(190,231)"/>
</svg>
