<?xml version="1.0" encoding="UTF-8"?>
<svg version="1.1" xmlns="http://www.w3.org/2000/svg" width="500" height="500">
<path d="M0 0 C0.66 0 1.32 0 2 0 C2 27.06 2 54.12 2 82 C-25.39 82 -52.78 82 -81 82 C-78.76985381 76.42463451 -78.76985381 76.42463451 -75.61669922 73.92749023 C-72.05249465 70.95214597 -68.71257237 67.81551202 -65.44189453 64.52368164 C-64.94214552 64.0212667 -64.44239651 63.51885176 -63.92750359 63.00121212 C-62.87420468 61.93999686 -61.82182631 60.87786726 -60.770298 59.81489754 C-59.10007402 58.12707277 -57.42614993 56.44299693 -55.75119019 54.75987244 C-50.99580319 49.98019385 -46.24633137 45.19466748 -41.50097656 40.4050293 C-38.58470181 37.46205353 -35.66363916 34.52390204 -32.73952866 31.58871269 C-31.62841772 30.47138441 -30.51920908 29.35216111 -29.41193008 28.23103523 C-27.87301403 26.67301292 -26.32813711 25.12114695 -24.78173828 23.57055664 C-23.90429962 22.68566055 -23.02686096 21.80076447 -22.12283325 20.88905334 C-20 19 -20 19 -18 19 C-18 18.34 -18 17.68 -18 17 C-17.34 17 -16.68 17 -16 17 C-16 16.34 -16 15.68 -16 15 C-13.625 12.375 -13.625 12.375 -11 10 C-10.34 10 -9.68 10 -9 10 C-9 9.34 -9 8.68 -9 8 C-7.28515625 6.30859375 -7.28515625 6.30859375 -5.0625 4.4375 C-3.96615234 3.50744141 -3.96615234 3.50744141 -2.84765625 2.55859375 C-2.23792969 2.04425781 -1.62820312 1.52992188 -1 1 C-0.67 0.67 -0.34 0.34 0 0 Z M-16.37670898 48.27905273 C-17.41888944 49.32820209 -18.45849486 50.37991305 -19.49609375 51.43359375 C-20.04483658 51.9861232 -20.59357941 52.53865265 -21.15895081 53.10792542 C-23.51733438 55.48273102 -25.86984515 57.86332484 -28.22290039 60.2434082 C-29.936944 61.97548688 -31.65393397 63.70460527 -33.37109375 65.43359375 C-34.17117104 66.24611855 -34.17117104 66.24611855 -34.9874115 67.07505798 C-38.77438235 70.88719117 -38.77438235 70.88719117 -41 72 C-41 72.66 -41 73.32 -41 74 C-41.66 74.33 -42.32 74.66 -43 75 C-33.1 75 -23.2 75 -13 75 C-13 65.43 -13 55.86 -13 46 C-14.42851083 45.88464621 -14.42851083 45.88464621 -16.37670898 48.27905273 Z " fill="#683DB1" transform="translate(131,210)"/>
<path d="M0 0 C1.125 6.75 1.125 6.75 0 9 C0.31947145 10.9312796 0.31947145 10.9312796 0.9375 13 C1.97448298 16.73588572 2.27698536 19.27545937 1 23 C-0.99115514 25.84450735 -2.82524781 27.87101624 -5.625 29.9375 C-8.47044237 32.40854205 -9.09859263 34.39437053 -10 38 C-13.465 38.495 -13.465 38.495 -17 39 C-17.13764771 39.88969482 -17.13764771 39.88969482 -17.27807617 40.79736328 C-18.17785615 43.54265072 -19.31546549 44.43913329 -21.55078125 46.2421875 C-26.01523092 49.97500495 -30.10024816 53.98690197 -34.1875 58.125 C-34.87263672 58.81464844 -35.55777344 59.50429688 -36.26367188 60.21484375 C-37.59293827 61.55306575 -38.92118385 62.89230269 -40.24829102 64.23266602 C-41.65338877 65.65029705 -43.06407068 67.06239234 -44.4765625 68.47265625 C-46.63474039 70.63417497 -48.77806895 72.80872093 -50.91796875 74.98828125 C-52.34104467 76.42978738 -53.76422394 77.87119148 -55.1875 79.3125 C-56.27321289 80.42334961 -56.27321289 80.42334961 -57.38085938 81.55664062 C-58.07373047 82.25595703 -58.76660156 82.95527344 -59.48046875 83.67578125 C-60.10848389 84.31427002 -60.73649902 84.95275879 -61.38354492 85.6105957 C-63 87 -63 87 -65 87 C-65 61.26 -65 35.52 -65 9 C-62.65282645 7.82641322 -61.24564128 7.86723744 -58.62963867 7.85473633 C-57.7249736 7.84835648 -56.82030853 7.84197662 -55.88822937 7.83540344 C-54.41795036 7.83373421 -54.41795036 7.83373421 -52.91796875 7.83203125 C-51.91163895 7.82870285 -50.90530914 7.82537445 -49.8684845 7.82194519 C-47.73581398 7.81687549 -45.60313552 7.81453688 -43.47045898 7.81469727 C-40.21129199 7.81251592 -36.9524662 7.79437476 -33.69335938 7.77539062 C-31.62239699 7.77245568 -29.551433 7.77047156 -27.48046875 7.76953125 C-26.50635544 7.76234573 -25.53224213 7.75516022 -24.52861023 7.74775696 C-15.76936467 7.77723767 -15.76936467 7.77723767 -12 10 C-10.48299404 12.88231132 -9.70464827 15.82908279 -9 19 C-8.34 19 -7.68 19 -7 19 C-7 16.69 -7 14.38 -7 12 C-5.35 11.34 -3.7 10.68 -2 10 C-4.475 9.01 -4.475 9.01 -7 8 C-7.1875 5.125 -7.1875 5.125 -7 2 C-4 0 -4 0 0 0 Z " fill="#6C3EB8" transform="translate(209,203)"/>
<path d="M0 0 C0.66 0.99 1.32 1.98 2 3 C1.125 5.6875 1.125 5.6875 0 8 C-4.455 7.01 -4.455 7.01 -9 6 C-6.8653125 6.6496875 -6.8653125 6.6496875 -4.6875 7.3125 C-0.96517325 8.44538205 0.09907498 9.09907498 3 12 C3 8.04 3 4.08 3 0 C6.09916296 -1.54958148 9.35071849 -1.26681073 12.75 -1.3125 C13.45382812 -1.34150391 14.15765625 -1.37050781 14.8828125 -1.40039062 C20.05728884 -1.46290753 22.86083048 -0.33983888 27 3 C29.87441778 5.87441778 29.71228758 8.50987125 30.03125 12.45703125 C29.97644537 16.91675797 28.2150076 19.59806816 25.375 22.875 C21.71915992 24.60671372 17.98284662 24.42009741 14 24 C13.67 23.67 13.34 23.34 13 23 C12.67 25.64 12.34 28.28 12 31 C9.6739143 31.38063221 7.33944736 31.71269945 5 32 C3.26934789 30.26934789 3.62901594 27.85898994 3.4375 25.5 C3.31181641 23.99953125 3.31181641 23.99953125 3.18359375 22.46875 C3 20 3 20 3 19 C2.38125 19.639375 1.7625 20.27875 1.125 20.9375 C-2.60290636 24.55576205 -5.5194369 24.20409235 -10.51171875 24.16796875 C-13.32773943 23.9778763 -15.5090036 23.32853141 -18 22 C-18.25 16.375 -18.25 16.375 -16 13 C-16.66 12.01 -17.32 11.02 -18 10 C-17.77984085 3.83554377 -17.77984085 3.83554377 -15.25 1.125 C-10.01502333 -1.49248833 -5.61578472 -1.10474454 0 0 Z M14 7 C11.70362221 9.75895635 11.70362221 9.75895635 12.25 12.5625 C12.83808052 15.15000567 12.83808052 15.15000567 15 17 C18.30683466 16.71016731 18.30683466 16.71016731 21 15 C21.25005386 12.04182893 21.25005386 12.04182893 21 9 C19.17084359 6.76154985 19.17084359 6.76154985 16.5 6.6875 C15.675 6.790625 14.85 6.89375 14 7 Z M-15 14 C-14.01 14.495 -14.01 14.495 -13 15 C-13 15.66 -13 16.32 -13 17 C-11.35 16.67 -9.7 16.34 -8 16 C-9.83883881 13.71271266 -9.83883881 13.71271266 -12.625 13.875 C-13.800625 13.936875 -13.800625 13.936875 -15 14 Z " fill="#7454A7" transform="translate(326,268)"/>
<path d="M0 0 C2.64 0 5.28 0 8 0 C8.33 1.98 8.66 3.96 9 6 C9.59167969 6.08636719 10.18335938 6.17273438 10.79296875 6.26171875 C11.58316406 6.40222656 12.37335938 6.54273438 13.1875 6.6875 C13.96480469 6.81511719 14.74210937 6.94273437 15.54296875 7.07421875 C19.14134804 8.43004688 20.71959462 9.8845166 23 13 C23.59324302 16.29722484 23.47421104 19.47627692 23.3125 22.8125 C23.28994141 23.69615234 23.26738281 24.57980469 23.24414062 25.49023438 C23.18547428 27.6608891 23.09579979 29.8306669 23 32 C20.36 32 17.72 32 15 32 C15 26.72 15 21.44 15 16 C12.69 16 10.38 16 8 16 C8.01160156 17.07121094 8.02320313 18.14242188 8.03515625 19.24609375 C8.04453299 20.64322743 8.05363331 22.04036299 8.0625 23.4375 C8.07087891 24.14455078 8.07925781 24.85160156 8.08789062 25.58007812 C8.09653588 27.38693559 8.05220011 29.19387603 8 31 C7.67 31.33 7.34 31.66 7 32 C4.69 32 2.38 32 0 32 C0 21.44 0 10.88 0 0 Z " fill="#7B5BAB" transform="translate(358,260)"/>
<path d="M0 0 C2.60888843 1.8501513 3.35048348 3.08585415 5 6 C5.3125 9.875 5.3125 9.875 5 13 C3.35 13.33 1.7 13.66 0 14 C0.515625 14.4125 1.03125 14.825 1.5625 15.25 C3 17 3 17 2.9375 19.0625 C1.69937203 21.6212978 0.61755418 21.96114401 -2 23 C-4.4375 23.265625 -4.4375 23.265625 -7 23.25 C-8.2684375 23.25773437 -8.2684375 23.25773437 -9.5625 23.265625 C-12.13478811 22.98531155 -13.7803108 22.2948187 -16 21 C-16 20.34 -16 19.68 -16 19 C-16.66 19 -17.32 19 -18 19 C-21.0165906 14.47511409 -20.42767705 9.35222377 -19.5 4.25 C-14.85536726 -2.71694911 -7.23158861 -3.03900379 0 0 Z M-11 6 C-11 6.66 -11 7.32 -11 8 C-8.69 8 -6.38 8 -4 8 C-4.66 7.01 -5.32 6.02 -6 5 C-8.9254644 4.7763932 -8.9254644 4.7763932 -11 6 Z M-11 13 C-10.67 13.99 -10.34 14.98 -10 16 C-7.08365871 16.2502157 -7.08365871 16.2502157 -4 16 C-3.34 15.01 -2.68 14.02 -2 13 C-4.97 13 -7.94 13 -11 13 Z " fill="#7448AA" transform="translate(236,269)"/>
<path d="M0 0 C2.76833269 2.6973498 4.62219093 5.09597299 5 9 C4.5625 11.25 4.5625 11.25 4 13 C2.68 13.33 1.36 13.66 0 14 C0 14.66 0 15.32 0 16 C0.66 16 1.32 16 2 16 C2.33 16.99 2.66 17.98 3 19 C0.68228712 21.42306346 -0.76002249 22.88587818 -4.20703125 23.203125 C-13.42055903 23.36888562 -13.42055903 23.36888562 -17 20 C-19.22781586 16.60313225 -20.75573125 13.31294453 -21.5 9.3125 C-20.62961187 5.28695492 -18.04062166 2.93991634 -15.0625 0.25 C-10.06336526 -2.77977863 -5.23256308 -2.23314408 0 0 Z M-9 5 C-9.99 6.485 -9.99 6.485 -11 8 C-9.02 8 -7.04 8 -5 8 C-4.67 7.34 -4.34 6.68 -4 6 C-5.65 5.67 -7.3 5.34 -9 5 Z M-11 13 C-11 13.66 -11 14.32 -11 15 C-8.69 15.33 -6.38 15.66 -4 16 C-4 15.01 -4 14.02 -4 13 C-6.31 13 -8.62 13 -11 13 Z " fill="#6E4BA5" transform="translate(444,269)"/>
<path d="M0 0 C2.91531122 2.28497366 4.70943963 4.54314188 6 8 C6.008458 10.62479843 5.91766333 13.08640688 5.6875 15.6875 C5.63916016 16.37650391 5.59082031 17.06550781 5.54101562 17.77539062 C5.14655517 22.85344483 5.14655517 22.85344483 4 24 C1.39811084 24.20791352 -1.1444787 24.32454096 -3.75 24.375 C-4.46671875 24.41238281 -5.1834375 24.44976562 -5.921875 24.48828125 C-9.94321803 24.55481082 -11.78257264 24.16582009 -15.01171875 21.703125 C-17 19 -17 19 -17.0625 15.375 C-16 12 -16 12 -14.4375 10.125 C-10.96652275 8.5230105 -7.80666905 8.31722242 -4 8 C-5.32 7.34 -6.64 6.68 -8 6 C-8.33 6.66 -8.66 7.32 -9 8 C-11.375 8.125 -11.375 8.125 -14 8 C-14.66 7.34 -15.32 6.68 -16 6 C-15.625 3.375 -15.625 3.375 -15 1 C-9.59088985 -0.61324338 -5.60364874 -1.50867466 0 0 Z M-8 14 C-8.33 14.99 -8.66 15.98 -9 17 C-8.01 17.33 -7.02 17.66 -6 18 C-5.01 17.01 -4.02 16.02 -3 15 C-4.65 14.67 -6.3 14.34 -8 14 Z " fill="#7550B1" transform="translate(258,268)"/>
<path d="M0 0 C2.03671464 3.90370305 1.79594828 6.50976292 1.5 10.875 C0.18 11.205 -1.14 11.535 -2.5 11.875 C-2.5 12.535 -2.5 13.195 -2.5 13.875 C-1.84 13.875 -1.18 13.875 -0.5 13.875 C-0.17 14.865 0.16 15.855 0.5 16.875 C-1.81771288 19.29806346 -3.26002249 20.76087818 -6.70703125 21.078125 C-15.91389456 21.24376572 -15.91389456 21.24376572 -19.5 17.875 C-22.33658527 13.14735788 -23.05563094 9.42554652 -22.20703125 3.9609375 C-20.92910501 0.19070209 -18.86280768 -1.05557989 -15.5 -3.125 C-10.07289364 -5.26727883 -4.31858765 -3.67079951 0 0 Z M-13.5 3.875 C-13.5 4.535 -13.5 5.195 -13.5 5.875 C-11.52 5.875 -9.54 5.875 -7.5 5.875 C-7.17 5.215 -6.84 4.555 -6.5 3.875 C-10.08327753 2.87282936 -10.08327753 2.87282936 -13.5 3.875 Z M-13.5 10.875 C-13.17 11.865 -12.84 12.855 -12.5 13.875 C-9.86 13.545 -7.22 13.215 -4.5 12.875 C-4.5 12.215 -4.5 11.555 -4.5 10.875 C-7.47 10.875 -10.44 10.875 -13.5 10.875 Z " fill="#6E4EA0" transform="translate(405.5,271.125)"/>
<path d="M0 0 C2.06533128 1.86674173 2.92390775 3.32939332 3.23901367 6.10644531 C3.29548285 8.6605895 3.26105459 11.19633537 3.1875 13.75 C3.16719727 15.08224609 3.16719727 15.08224609 3.14648438 16.44140625 C3.11121309 18.62822578 3.06192752 20.81379966 3 23 C0.66705225 23.04241723 -1.66702567 23.04092937 -4 23 C-5.99616554 21.00383446 -5.40983427 17.18298037 -5.5625 14.4375 C-5.60568359 13.72658203 -5.64886719 13.01566406 -5.69335938 12.28320312 C-5.79971777 10.52238088 -5.90038846 8.7612168 -6 7 C-7.32 6.67 -8.64 6.34 -10 6 C-10 6.66 -10 7.32 -10 8 C-10.66 8 -11.32 8 -12 8 C-11.98839844 8.99902344 -11.97679687 9.99804688 -11.96484375 11.02734375 C-11.95582031 12.31769531 -11.94679688 13.60804688 -11.9375 14.9375 C-11.92589844 16.22527344 -11.91429687 17.51304687 -11.90234375 18.83984375 C-12 22 -12 22 -13 23 C-15.31 23 -17.62 23 -20 23 C-20 15.08 -20 7.16 -20 -1 C-5.4 -3.08571429 -5.4 -3.08571429 0 0 Z " fill="#7350AA" transform="translate(303,269)"/>
<path d="M0 0 C1.75994274 3.16789693 2.24872886 5.24364431 3 9 C10.92 9 18.84 9 27 9 C27 7.35 27 5.7 27 4 C37.23 4.33 47.46 4.66 58 5 C58 5.66 58 6.32 58 7 C56.02 7.33 54.04 7.66 52 8 C55.0211434 10.0140956 55.80660017 10.26836596 59.23046875 10.4140625 C60.43413086 10.47207031 60.43413086 10.47207031 61.66210938 10.53125 C62.91217773 10.57765625 62.91217773 10.57765625 64.1875 10.625 C65.03248047 10.66367187 65.87746094 10.70234375 66.74804688 10.7421875 C68.83167524 10.83636279 70.91580753 10.91926675 73 11 C73 11.33 73 11.66 73 12 C45.61 12 18.22 12 -10 12 C-8.13033061 7.32582653 -7.4948194 6.16509338 -3.875 3.1875 C-3.15054688 2.58292969 -2.42609375 1.97835938 -1.6796875 1.35546875 C-0.84824219 0.68451172 -0.84824219 0.68451172 0 0 Z " fill="#724FAA" transform="translate(60,280)"/>
<path d="M0 0 C6.75 -0.125 6.75 -0.125 9 1 C11.3329866 1.04022391 13.66706666 1.04320247 16 1 C16 2.98 16 4.96 16 7 C14.02 7.66 12.04 8.32 10 9 C9.93941406 10.07121094 9.87882812 11.14242188 9.81640625 12.24609375 C9.73201463 13.64324391 9.64736594 15.04037857 9.5625 16.4375 C9.52318359 17.14455078 9.48386719 17.85160156 9.44335938 18.58007812 C9.11328125 23.88671875 9.11328125 23.88671875 8 25 C4.5 25.125 4.5 25.125 1 25 C0 24 0 24 -0.11352539 21.68334961 C-0.10828857 20.68311768 -0.10305176 19.68288574 -0.09765625 18.65234375 C-0.09443359 17.57275391 -0.09121094 16.49316406 -0.08789062 15.38085938 C-0.07951172 14.24455078 -0.07113281 13.10824219 -0.0625 11.9375 C-0.05798828 10.79732422 -0.05347656 9.65714844 -0.04882812 8.48242188 C-0.03699747 5.65489649 -0.0205141 2.8274736 0 0 Z " fill="#876CAB" transform="translate(266,267)"/>
<path d="M0 0 C0 10.56 0 21.12 0 32 C-2.64 32 -5.28 32 -8 32 C-8 21.44 -8 10.88 -8 0 C-2 -1 -2 -1 0 0 Z " fill="#7350A9" transform="translate(214,260)"/>
<path d="M0 0 C0.88300781 0.10183594 1.76601563 0.20367187 2.67578125 0.30859375 C3.33964844 0.39238281 4.00351562 0.47617187 4.6875 0.5625 C4.6875 2.8725 4.6875 5.1825 4.6875 7.5625 C2.7075 8.5525 0.7275 9.5425 -1.3125 10.5625 C-1.30089844 11.48933594 -1.28929687 12.41617187 -1.27734375 13.37109375 C-1.26832031 14.56863281 -1.25929688 15.76617187 -1.25 17 C-1.23839844 18.19496094 -1.22679687 19.38992188 -1.21484375 20.62109375 C-1.3125 23.5625 -1.3125 23.5625 -2.3125 24.5625 C-5.8125 24.6875 -5.8125 24.6875 -9.3125 24.5625 C-10.3125 23.5625 -10.3125 23.5625 -10.42602539 21.33764648 C-10.42078857 20.37930908 -10.41555176 19.42097168 -10.41015625 18.43359375 C-10.40693359 17.39912109 -10.40371094 16.36464844 -10.40039062 15.29882812 C-10.39201172 14.21021484 -10.38363281 13.12160156 -10.375 12 C-10.37048828 10.90751953 -10.36597656 9.81503906 -10.36132812 8.68945312 C-10.34949826 5.98041505 -10.33301543 3.27148401 -10.3125 0.5625 C-6.64895355 -0.23462329 -3.73308742 -0.44797049 0 0 Z " fill="#7248B1" transform="translate(419.3125,267.4375)"/>
<path d="M0 0 C1.125 6.75 1.125 6.75 0 9 C0.31947145 10.9312796 0.31947145 10.9312796 0.9375 13 C1.97448298 16.73588572 2.27698536 19.27545937 1 23 C-1.01026995 25.87181422 -2.86860778 27.90221975 -5.6875 30 C-8.35802248 32.30964106 -8.71241619 33.54899426 -9 37 C-9.33 37 -9.66 37 -10 37 C-10 34.69 -10 32.38 -10 30 C-9.34 30 -8.68 30 -8 30 C-8.33 28.02 -8.66 26.04 -9 24 C-9.66 24 -10.32 24 -11 24 C-11 23.34 -11 22.68 -11 22 C-11.66 21.67 -12.32 21.34 -13 21 C-12.67 19.35 -12.34 17.7 -12 16 C-11.01 16 -10.02 16 -9 16 C-9 16.99 -9 17.98 -9 19 C-8.34 19 -7.68 19 -7 19 C-7 16.69 -7 14.38 -7 12 C-5.35 11.34 -3.7 10.68 -2 10 C-4.475 9.01 -4.475 9.01 -7 8 C-7.1875 5.125 -7.1875 5.125 -7 2 C-4 0 -4 0 0 0 Z " fill="#693BB4" transform="translate(209,203)"/>
<path d="M0 0 C0.99 0 1.98 0 3 0 C3 2.64 3 5.28 3 8 C1.68 8.33 0.36 8.66 -1 9 C-1 9.66 -1 10.32 -1 11 C-0.34 11 0.32 11 1 11 C1.33 11.99 1.66 12.98 2 14 C-0.40313638 16.51236985 -1.78319518 17.95013095 -5.3828125 18.09765625 C-6.28773438 18.08605469 -7.19265625 18.07445312 -8.125 18.0625 C-9.03507812 18.05347656 -9.94515625 18.04445313 -10.8828125 18.03515625 C-11.93082031 18.01775391 -11.93082031 18.01775391 -13 18 C-13.33 17.34 -13.66 16.68 -14 16 C-11.69 16 -9.38 16 -7 16 C-9.12780579 13.65941363 -11.11562221 12.29299694 -14 11 C-13.67 10.34 -13.34 9.68 -13 9 C-11.906875 9.165 -10.81375 9.33 -9.6875 9.5 C-6.12474127 10.06718184 -6.12474127 10.06718184 -3 10 C-3 9.34 -3 8.68 -3 8 C-6.63 8 -10.26 8 -14 8 C-14 7.01 -14 6.02 -14 5 C-14.99 5 -15.98 5 -17 5 C-17 6.98 -17 8.96 -17 11 C-17.66 11 -18.32 11 -19 11 C-19 8.69 -19 6.38 -19 4 C-18.34 4 -17.68 4 -17 4 C-17 3.34 -17 2.68 -17 2 C-16.01 1.67 -15.02 1.34 -14 1 C-13.67 1.99 -13.34 2.98 -13 4 C-7.41499433 3.80101292 -7.41499433 3.80101292 -3 1 C-3 1.66 -3 2.32 -3 3 C-2.34 3.33 -1.68 3.66 -1 4 C-0.67 4.33 -0.34 4.66 0 5 C0 3.35 0 1.7 0 0 Z " fill="#7152A0" transform="translate(404,274)"/>
<path d="M0 0 C0.77988281 -0.01417969 1.55976563 -0.02835938 2.36328125 -0.04296875 C4.8907668 0.20765587 6.50468031 0.92376228 8.6875 2.1875 C7.6975 2.8475 6.7075 3.5075 5.6875 4.1875 C5.30338725 6.797121 5.08456803 9.1933074 5 11.8125 C4.96583984 12.51890625 4.93167969 13.2253125 4.89648438 13.953125 C4.81398692 15.69735688 4.74906665 17.44240395 4.6875 19.1875 C1.7175 19.8475 -1.2525 20.5075 -4.3125 21.1875 C-4.3125 17.8875 -4.3125 14.5875 -4.3125 11.1875 C-4.9725 11.1875 -5.6325 11.1875 -6.3125 11.1875 C-6.5 8.3125 -6.5 8.3125 -6.3125 5.1875 C-5.3225 4.5275 -4.3325 3.8675 -3.3125 3.1875 C-3.9725 2.5275 -4.6325 1.8675 -5.3125 1.1875 C-3.74222683 -0.38277317 -2.16980053 0.01775614 0 0 Z " fill="#6E48B6" transform="translate(187.3125,210.8125)"/>
<path d="M0 0 C2.64 0.33 5.28 0.66 8 1 C8.8421096 3.88554752 9.08213157 6.2966228 8.9140625 9.29296875 C8.87023437 10.08767578 8.82640625 10.88238281 8.78125 11.70117188 C8.7296875 12.52166016 8.678125 13.34214844 8.625 14.1875 C8.58117187 15.01958984 8.53734375 15.85167969 8.4921875 16.70898438 C8.13070211 22.86929789 8.13070211 22.86929789 7 24 C4.69 24 2.38 24 0 24 C0 16.08 0 8.16 0 0 Z " fill="#613AA0" transform="translate(283,268)"/>
<path d="M0 0 C2.475 0.495 2.475 0.495 5 1 C4.96519531 1.88751953 4.96519531 1.88751953 4.9296875 2.79296875 C4.82305633 7.46189082 5.14292629 10.66682802 7 15 C6.67149974 16.3345323 6.33718867 17.66763643 6 19 C5.93311409 20.91561254 5.91468281 22.83335592 5.9375 24.75 C5.95103516 26.22726562 5.95103516 26.22726562 5.96484375 27.734375 C5.97644531 28.48203125 5.98804688 29.2296875 6 30 C4.02 30 2.04 30 0 30 C0 20.1 0 10.2 0 0 Z " fill="#633BA2" transform="translate(358,261)"/>
<path d="M0 0 C2.52017426 2.52017426 2.29730377 3.51499849 2.3125 7 C2.32925781 7.886875 2.34601563 8.77375 2.36328125 9.6875 C2.24339844 10.450625 2.12351563 11.21375 2 12 C-0.65468714 13.76979142 -2.07499931 14.42140171 -5.0625 15.125 C-5.75472656 15.29257813 -6.44695312 15.46015625 -7.16015625 15.6328125 C-9 16 -9 16 -11 16 C-11 12.04 -11 8.08 -11 4 C-2.61290323 0.29032258 -2.61290323 0.29032258 0 0 Z " fill="#7A51B4" transform="translate(224,199)"/>
<path d="M0 0 C0.33 0.45375 0.66 0.9075 1 1.375 C-0.15803349 4.84910048 -0.88193159 5.57733811 -4 7.375 C-6.796875 7.66796875 -6.796875 7.66796875 -9.75 7.5625 C-10.73484375 7.53542969 -11.7196875 7.50835937 -12.734375 7.48046875 C-13.48203125 7.44566406 -14.2296875 7.41085937 -15 7.375 C-15 6.715 -15 6.055 -15 5.375 C-16.98 5.705 -18.96 6.035 -21 6.375 C-20.712641 2.92669199 -20.23781351 1.61281351 -17.75 -0.875 C-12.04696354 -4.50420502 -5.36765591 -4.36122043 0 0 Z M-11 3.375 C-11.99 4.86 -11.99 4.86 -13 6.375 C-11.02 6.375 -9.04 6.375 -7 6.375 C-6.67 5.715 -6.34 5.055 -6 4.375 C-7.65 4.045 -9.3 3.715 -11 3.375 Z " fill="#7652AB" transform="translate(446,270.625)"/>
<path d="M0 0 C0.66 0.99 1.32 1.98 2 3 C1.125 5.6875 1.125 5.6875 0 8 C-4.455 7.01 -4.455 7.01 -9 6 C-9 6.99 -9 7.98 -9 9 C-9.99 9 -10.98 9 -12 9 C-11.67 9.99 -11.34 10.98 -11 12 C-12.65 12.33 -14.3 12.66 -16 13 C-18 10 -18 10 -17.875 6.5 C-17 3 -17 3 -15.25 1.125 C-10.01502333 -1.49248833 -5.61578472 -1.10474454 0 0 Z " fill="#7453A5" transform="translate(326,268)"/>
<path d="M0 0 C0 4.29 0 8.58 0 13 C-4.26616316 14.13764351 -7.56486311 15 -12 15 C-12.33 11.37 -12.66 7.74 -13 4 C-5.17391304 0 -5.17391304 0 0 0 Z " fill="#514165" transform="translate(215,231)"/>
<path d="M0 0 C1.33804688 0.17982422 1.33804688 0.17982422 2.703125 0.36328125 C3.37859375 0.47027344 4.0540625 0.57726562 4.75 0.6875 C4.75 2.0075 4.75 3.3275 4.75 4.6875 C2.77 4.6875 0.79 4.6875 -1.25 4.6875 C-0.74396008 6.85624252 -0.25016187 8.68717627 0.75 10.6875 C1.74 11.0175 2.73 11.3475 3.75 11.6875 C3.42 12.6775 3.09 13.6675 2.75 14.6875 C-4.35583942 15.28968978 -4.35583942 15.28968978 -8.3125 12.625 C-10.25 9.6875 -10.25 9.6875 -10.3125 6.0625 C-8.52677825 0.39020739 -5.7200866 -0.82790727 0 0 Z " fill="#724EA5" transform="translate(251.25,277.3125)"/>
<path d="M0 0 C1.69648253 2.29433932 1.83025895 3.98790047 2.046875 6.81640625 C2.12421875 7.69425781 2.2015625 8.57210938 2.28125 9.4765625 C2.296875 11.75390625 2.296875 11.75390625 1.296875 13.75390625 C0.6575 13.58890625 0.018125 13.42390625 -0.640625 13.25390625 C-2.51139321 12.71463958 -2.51139321 12.71463958 -3.703125 12.75390625 C-4.363125 12.42390625 -5.023125 12.09390625 -5.703125 11.75390625 C-5.703125 9.77390625 -5.703125 7.79390625 -5.703125 5.75390625 C-9.49854163 3.53991322 -13.45941921 2.74410427 -17.703125 1.75390625 C-17.703125 0.76390625 -17.703125 -0.22609375 -17.703125 -1.24609375 C-15.78728853 -1.44189465 -13.87039961 -1.62741589 -11.953125 -1.80859375 C-10.35210937 -1.96521484 -10.35210937 -1.96521484 -8.71875 -2.125 C-5.10713264 -2.27002609 -2.93433126 -2.1469075 0 0 Z " fill="#6A43A5" transform="translate(353.703125,271.24609375)"/>
<path d="M0 0 C0.33 0.66 0.66 1.32 1 2 C1.66 2.309375 2.32 2.61875 3 2.9375 C5 4 5 4 6 7 C3.69 7.33 1.38 7.66 -1 8 C-1 8.66 -1 9.32 -1 10 C1.64 10.33 4.28 10.66 7 11 C7.33 10.34 7.66 9.68 8 9 C8 9.99 8 10.98 8 12 C6.68 12.33 5.36 12.66 4 13 C4.33 13.66 4.66 14.32 5 15 C2.69 15 0.38 15 -2 15 C-2 15.99 -2 16.98 -2 18 C-2.66 18 -3.32 18 -4 18 C-4 16.35 -4 14.7 -4 13 C-4.99 13.66 -5.98 14.32 -7 15 C-9.125 7.375 -9.125 7.375 -8 4 C-6.15234375 2.83203125 -6.15234375 2.83203125 -3.9375 1.8125 C-3.20402344 1.46832031 -2.47054687 1.12414062 -1.71484375 0.76953125 C-1.14894531 0.51558594 -0.58304688 0.26164062 0 0 Z " fill="#6A44A5" transform="translate(226,267)"/>
<path d="M0 0 C0 3.63 0 7.26 0 11 C-3.63 11.66 -7.26 12.32 -11 13 C-11 9.37 -11 5.74 -11 2 C-6.9402698 0.48940272 -4.45389333 0 0 0 Z " fill="#3C1B68" transform="translate(199,230)"/>
<path d="M0 0 C0.73734375 -0.01224609 1.4746875 -0.02449219 2.234375 -0.03710938 C4.15770058 -0.04237395 6.08054263 0.06546553 8 0.1875 C8.66 0.8475 9.32 1.5075 10 2.1875 C8.35337258 3.83412742 6.32325947 3.58545099 4.0625 3.8125 C3.16660156 3.90789062 2.27070313 4.00328125 1.34765625 4.1015625 C-1 4.1875 -1 4.1875 -3 3.1875 C-3 4.1775 -3 5.1675 -3 6.1875 C-0.36 6.5175 2.28 6.8475 5 7.1875 C4.360625 7.290625 3.72125 7.39375 3.0625 7.5 C2.381875 7.726875 1.70125 7.95375 1 8.1875 C0.67 9.1775 0.34 10.1675 0 11.1875 C-1.65 11.5175 -3.3 11.8475 -5 12.1875 C-5.33 10.2075 -5.66 8.2275 -6 6.1875 C-6.66 6.1875 -7.32 6.1875 -8 6.1875 C-8 7.8375 -8 9.4875 -8 11.1875 C-8.66 10.8575 -9.32 10.5275 -10 10.1875 C-10 7.2175 -10 4.2475 -10 1.1875 C-6.84044583 -0.39227708 -3.46536183 0.00302916 0 0 Z " fill="#8163AD" transform="translate(339,266.8125)"/>
<path d="M0 0 C-0.33 0.66 -0.66 1.32 -1 2 C-4.96 1.67 -8.92 1.34 -13 1 C-11.329375 1.4021875 -11.329375 1.4021875 -9.625 1.8125 C-6 3 -6 3 -4 6 C-4.33 6.66 -4.66 7.32 -5 8 C-6.65 8 -8.3 8 -10 8 C-9.01 7.34 -8.02 6.68 -7 6 C-8.32 5.34 -9.64 4.68 -11 4 C-11.33 4.66 -11.66 5.32 -12 6 C-14.375 6.125 -14.375 6.125 -17 6 C-17.66 5.34 -18.32 4.68 -19 4 C-18.625 1.375 -18.625 1.375 -18 -1 C-11.40184057 -2.96787211 -6.08784624 -4.05856416 0 0 Z " fill="#7D5BA8" transform="translate(261,270)"/>
<path d="M0 0 C1.32 0 2.64 0 4 0 C4.66 1.98 5.32 3.96 6 6 C5.34 6 4.68 6 4 6 C3.66501699 8.33165034 3.66501699 8.33165034 4 11 C5.89586384 13.14589423 5.89586384 13.14589423 8 15 C8.33 15.99 8.66 16.98 9 18 C8.67 18.66 8.34 19.32 8 20 C7.34 20 6.68 20 6 20 C6 19.01 6 18.02 6 17 C3.69 17.33 1.38 17.66 -1 18 C-1.02684312 15.18743719 -1.04676188 12.37512759 -1.0625 9.5625 C-1.07087891 8.76005859 -1.07925781 7.95761719 -1.08789062 7.13085938 C-1.0965143 5.08704779 -1.0522815 3.04316098 -1 1 C-0.67 0.67 -0.34 0.34 0 0 Z " fill="#6339AC" transform="translate(193,213)"/>
<path d="M0 0 C1.65 0 3.3 0 5 0 C4.67 0.66 4.34 1.32 4 2 C3.34 2 2.68 2 2 2 C2 8.6 2 15.2 2 22 C3.32 22 4.64 22 6 22 C5.98839844 21.16855469 5.97679687 20.33710938 5.96484375 19.48046875 C5.95130859 17.85044922 5.95130859 17.85044922 5.9375 16.1875 C5.92589844 15.10855469 5.91429687 14.02960938 5.90234375 12.91796875 C6 10 6 10 7 7 C8.65 7 10.3 7 12 7 C11.50757813 7.53238281 11.01515625 8.06476563 10.5078125 8.61328125 C8.5720576 11.67739068 8.72634598 13.59794265 8.875 17.1875 C8.9452542 19.12417414 8.99413634 21.06206089 9 23 C8 24 8 24 4.5 24.125 C1 24 1 24 0 23 C-0.08713831 21.29227642 -0.10700007 19.58101351 -0.09765625 17.87109375 C-0.09443359 16.83662109 -0.09121094 15.80214844 -0.08789062 14.73632812 C-0.07951172 13.64771484 -0.07113281 12.55910156 -0.0625 11.4375 C-0.05798828 10.34501953 -0.05347656 9.25253906 -0.04882812 8.12695312 C-0.03699826 5.41791505 -0.02051543 2.70898401 0 0 Z " fill="#70549E" transform="translate(409,268)"/>
<path d="M0 0 C1.65 0 3.3 0 5 0 C4.979375 0.763125 4.95875 1.52625 4.9375 2.3125 C4.87057159 5.10185786 4.87057159 5.10185786 6 8 C5.91382274 10.232269 5.76077759 12.46238486 5.5625 14.6875 C5.46066406 15.86699219 5.35882813 17.04648437 5.25390625 18.26171875 C5.17011719 19.16535156 5.08632813 20.06898438 5 21 C3.35 20.67 1.7 20.34 0 20 C0 13.4 0 6.8 0 0 Z " fill="#663BA9" transform="translate(268,269)"/>
<path d="M0 0 C2.95499718 2.06849802 3.82179362 4.64664338 5 8 C4.34 8 3.68 8 3 8 C2.34 9.32 1.68 10.64 1 12 C0.34 10.68 -0.32 9.36 -1 8 C-0.34 8 0.32 8 1 8 C1 7.01 1 6.02 1 5 C0.34 5 -0.32 5 -1 5 C-1 4.34 -1 3.68 -1 3 C-2.32 3 -3.64 3 -5 3 C-5 3.66 -5 4.32 -5 5 C-8.69541586 5.95024979 -11.30458414 5.95024979 -15 5 C-14.505 4.54625 -14.01 4.0925 -13.5 3.625 C-11.77390663 2.12364481 -11.77390663 2.12364481 -12 0 C-8.01432432 -2.98925676 -4.31056515 -1.63599274 0 0 Z " fill="#764EAD" transform="translate(326,277)"/>
<path d="M0 0 C6.11090483 -0.09945415 11.97403427 -0.0712828 18 1 C18 1.33 18 1.66 18 2 C15.36 2.66 12.72 3.32 10 4 C10 5.98 10 7.96 10 10 C10.66 10.33 11.32 10.66 12 11 C11.34 12.32 10.68 13.64 10 15 C9.5875 14.525625 9.175 14.05125 8.75 13.5625 C6.817815 11.83733482 5.51807725 11.43415125 3 11 C3 9.35 3 7.7 3 6 C3.99 5.67 4.98 5.34 6 5 C5.67 4.01 5.34 3.02 5 2 C3.35 1.67 1.7 1.34 0 1 C0 0.67 0 0.34 0 0 Z " fill="#6841AA" transform="translate(171,212)"/>
<path d="M0 0 C0.625 1.8125 0.625 1.8125 1 4 C0.01 5.485 0.01 5.485 -1 7 C-1.66 7 -2.32 7 -3 7 C-3 7.66 -3 8.32 -3 9 C-3.66 9 -4.32 9 -5 9 C-5.268125 9.639375 -5.53625 10.27875 -5.8125 10.9375 C-7 13 -7 13 -10 14 C-10.73323796 16.01508358 -10.73323796 16.01508358 -11 18 C-12.65 18.33 -14.3 18.66 -16 19 C-16 19.99 -16 20.98 -16 22 C-17.65 22 -19.3 22 -21 22 C-17.0060348 17.09312847 -12.6959047 12.55729437 -8.25 8.0625 C-7.67096924 7.47057861 -7.09193848 6.87865723 -6.49536133 6.26879883 C-5.03589071 4.80590875 -3.52187506 3.39785485 -2 2 C-1.34 2 -0.68 2 0 2 C0 1.34 0 0.68 0 0 Z " fill="#8568B4" transform="translate(113,227)"/>
<path d="M0 0 C0.99 0 1.98 0 3 0 C2.44175115 3.61682353 1.25399273 4.97916829 -1.5625 7.25 C-5.97109047 10.92515408 -9.99213417 14.89620122 -14 19 C-14.66 18.34 -15.32 17.68 -16 17 C-14.71937515 15.2925002 -13.38232443 13.62626404 -12 12 C-11.34 12 -10.68 12 -10 12 C-10 11.34 -10 10.68 -10 10 C-8.5 8.375 -8.5 8.375 -7 7 C-7.66 7 -8.32 7 -9 7 C-9 5.35 -9 3.7 -9 2 C-7.6078125 2.3403125 -7.6078125 2.3403125 -6.1875 2.6875 C-5.135625 2.790625 -4.08375 2.89375 -3 3 C-1.2912354 1.62485459 -1.2912354 1.62485459 0 0 Z " fill="#6E47AA" transform="translate(189,242)"/>
<path d="M0 0 C0.66 0 1.32 0 2 0 C2.66 1.32 3.32 2.64 4 4 C4.99 4 5.98 4 7 4 C6.67 5.65 6.34 7.3 6 9 C6.66 9 7.32 9 8 9 C8.33 8.01 8.66 7.02 9 6 C9.66 8.31 10.32 10.62 11 13 C8.625 14.0625 8.625 14.0625 6 15 C5.34 14.67 4.68 14.34 4 14 C4 13.34 4 12.68 4 12 C3.34 12 2.68 12 2 12 C-0.60018816 8.09971775 -0.15085514 4.52565431 0 0 Z " fill="#744DAE" transform="translate(216,276)"/>
<path d="M0 0 C0.33 0 0.66 0 1 0 C1.33 21.45 1.66 42.9 2 65 C2.66 65.33 3.32 65.66 4 66 C3.34 67.65 2.68 69.3 2 71 C1.34 71 0.68 71 0 71 C0 47.57 0 24.14 0 0 Z " fill="#5A348F" transform="translate(145,218)"/>
<path d="M0 0 C0 2.97 0 5.94 0 9 C-2.97 9.66 -5.94 10.32 -9 11 C-9 7.7 -9 4.4 -9 1 C-5.846632 0.29925156 -3.27275026 0 0 0 Z " fill="#9F8DCE" transform="translate(192,221)"/>
<path d="M0 0 C0 2.64 0 5.28 0 8 C-4.43076923 10.09230769 -4.43076923 10.09230769 -7.3125 9.625 C-7.869375 9.41875 -8.42625 9.2125 -9 9 C-9.89674777 6.48910624 -10.13172674 5.35464891 -9.1875 2.8125 C-6.83988479 -0.77070217 -3.95949234 -0.08607592 0 0 Z " fill="#845EB0" transform="translate(227,227)"/>
<path d="M0 0 C0 4.29 0 8.58 0 13 C-0.66 13 -1.32 13 -2 13 C-2.33 11.35 -2.66 9.7 -3 8 C-3.66 8 -4.32 8 -5 8 C-5 8.66 -5 9.32 -5 10 C-6.75 11.7265625 -6.75 11.7265625 -9 13.625 C-9.7425 14.25664062 -10.485 14.88828125 -11.25 15.5390625 C-11.8275 16.02117187 -12.405 16.50328125 -13 17 C-13.33 16.34 -13.66 15.68 -14 15 C-14.66 14.67 -15.32 14.34 -16 14 C-14.37660195 12.29115995 -12.70680947 10.62553283 -11 9 C-10.34 9 -9.68 9 -9 9 C-9 8.34 -9 7.68 -9 7 C-7.28515625 5.2734375 -7.28515625 5.2734375 -5.0625 3.375 C-4.33160156 2.74335938 -3.60070312 2.11171875 -2.84765625 1.4609375 C-1 0 -1 0 0 0 Z " fill="#623AA8" transform="translate(131,211)"/>
<path d="M0 0 C1.32 0.33 2.64 0.66 4 1 C4 4.57643579 3.74637226 8.12176091 3.5 11.6875 C3.45230469 12.38939453 3.40460938 13.09128906 3.35546875 13.81445312 C3.23787848 15.54303016 3.11905865 17.27152348 3 19 C1.68 19 0.36 19 -1 19 C-1.22237877 16.58388467 -1.42832339 14.1682283 -1.625 11.75 C-1.72167969 10.72712891 -1.72167969 10.72712891 -1.8203125 9.68359375 C-2.11594735 5.8772951 -2.17561392 3.22190154 0 0 Z " fill="#673DAC" transform="translate(376,271)"/>
<path d="M0 0 C0.33 0 0.66 0 1 0 C1.33 1.98 1.66 3.96 2 6 C2.99 6 3.98 6 5 6 C6.6875 7.5 6.6875 7.5 8 9 C4.25 13.875 4.25 13.875 2 15 C0.45976004 15.06950541 -1.08334988 15.08452357 -2.625 15.0625 C-3.85089844 15.04896484 -3.85089844 15.04896484 -5.1015625 15.03515625 C-6.04128906 15.01775391 -6.04128906 15.01775391 -7 15 C-7 14.34 -7 13.68 -7 13 C-5.02 12.67 -3.04 12.34 -1 12 C-1.33 11.01 -1.66 10.02 -2 9 C-1.01 9 -0.02 9 1 9 C0.01 8.34 -0.98 7.68 -2 7 C-1.34 4.69 -0.68 2.38 0 0 Z " fill="#7E5BAE" transform="translate(347,277)"/>
<path d="M0 0 C1.125 6.75 1.125 6.75 0 9 C0.31763653 10.99896911 0.31763653 10.99896911 0.9375 13.125 C1.22947266 14.21167969 1.22947266 14.21167969 1.52734375 15.3203125 C1.68332031 15.87460938 1.83929688 16.42890625 2 17 C1.34 17.33 0.68 17.66 0 18 C0 16.02 0 14.04 0 12 C-1.98 12 -3.96 12 -6 12 C-4.68 11.34 -3.36 10.68 -2 10 C-4.475 9.01 -4.475 9.01 -7 8 C-7.1875 5.125 -7.1875 5.125 -7 2 C-4 0 -4 0 0 0 Z " fill="#8B68B7" transform="translate(209,203)"/>
<path d="M0 0 C0.66 0.33 1.32 0.66 2 1 C2 6.61 2 12.22 2 18 C-0.64 18 -3.28 18 -6 18 C-6 12.39 -6 6.78 -6 1 C-5.01 1.495 -5.01 1.495 -4 2 C-4 6.62 -4 11.24 -4 16 C-2.68 16 -1.36 16 0 16 C0 10.72 0 5.44 0 0 Z " fill="#725799" transform="translate(379,274)"/>
<path d="M0 0 C2.0625 1.125 2.0625 1.125 3.0625 3.125 C2.0725 3.125 1.0825 3.125 0.0625 3.125 C0.0625 2.465 0.0625 1.805 0.0625 1.125 C-0.5975 1.125 -1.2575 1.125 -1.9375 1.125 C-1.6075 2.445 -1.2775 3.765 -0.9375 5.125 C-3.9375 7.125 -3.9375 7.125 -7.9375 7.125 C-7.9375 7.785 -7.9375 8.445 -7.9375 9.125 C-8.5975 9.125 -9.2575 9.125 -9.9375 9.125 C-9.9375 6.485 -9.9375 3.845 -9.9375 1.125 C-11.5875 1.125 -13.2375 1.125 -14.9375 1.125 C-10.35345495 -1.93103003 -5.05492134 -1.50572125 0 0 Z " fill="#6F48AB" transform="translate(300.9375,267.875)"/>
<path d="M0 0 C-0.33 3.3 -0.66 6.6 -1 10 C-3.31 10.33 -5.62 10.66 -8 11 C-9.125 5.375 -9.125 5.375 -8 2 C-5.27366306 0.89786379 -2.95855967 0 0 0 Z " fill="#3A1B5F" transform="translate(214,232)"/>
<path d="M0 0 C0.8971875 0.433125 0.8971875 0.433125 1.8125 0.875 C2.1425 1.865 2.4725 2.855 2.8125 3.875 C1.8225 4.37 1.8225 4.37 0.8125 4.875 C0.4825 5.865 0.1525 6.855 -0.1875 7.875 C-1.1775 7.875 -2.1675 7.875 -3.1875 7.875 C-2.8575 8.865 -2.5275 9.855 -2.1875 10.875 C-3.84364657 11.25718767 -5.51207024 11.58895102 -7.1875 11.875 C-8.1875 10.875 -8.1875 10.875 -8.25 7.8125 C-8.229375 6.843125 -8.20875 5.87375 -8.1875 4.875 C-7.5275 4.875 -6.8675 4.875 -6.1875 4.875 C-6.1875 4.215 -6.1875 3.555 -6.1875 2.875 C-4.07102823 0.8341165 -2.99567331 -0.17118133 0 0 Z " fill="#6439A9" transform="translate(317.1875,269.125)"/>
<path d="M0 0 C0.66 0.33 1.32 0.66 2 1 C2 1.66 2 2.32 2 3 C7.58500567 2.80101292 7.58500567 2.80101292 12 0 C12 0.66 12 1.32 12 2 C12.66 2.33 13.32 2.66 14 3 C13.34 4.32 12.68 5.64 12 7 C8.37 7 4.74 7 1 7 C1 6.01 1 5.02 1 4 C0.01 4 -0.98 4 -2 4 C-2 5.98 -2 7.96 -2 10 C-2.66 10 -3.32 10 -4 10 C-4 7.69 -4 5.38 -4 3 C-3.34 3 -2.68 3 -2 3 C-2 2.34 -2 1.68 -2 1 C-1.34 0.67 -0.68 0.34 0 0 Z " fill="#653BA1" transform="translate(389,275)"/>
<path d="M0 0 C0.72631836 1.74316406 0.72631836 1.74316406 1 4 C-0.44702148 6.01464844 -0.44702148 6.01464844 -2.62109375 8.109375 C-3.39130859 8.86347656 -4.16152344 9.61757813 -4.95507812 10.39453125 C-5.77427734 11.17183594 -6.59347656 11.94914062 -7.4375 12.75 C-8.66049805 13.93916016 -8.66049805 13.93916016 -9.90820312 15.15234375 C-11.92810392 17.11318312 -13.95872128 19.0614649 -16 21 C-16.99 20.67 -17.98 20.34 -19 20 C-18.36771484 19.29423828 -18.36771484 19.29423828 -17.72265625 18.57421875 C-17.17480469 17.95160156 -16.62695312 17.32898438 -16.0625 16.6875 C-15.24458984 15.76517578 -15.24458984 15.76517578 -14.41015625 14.82421875 C-12.79918441 12.94758042 -12.79918441 12.94758042 -12 10 C-10.34561387 9.30341637 -8.67745682 8.63903117 -7 8 C-5.03353406 6.39769442 -4.07474522 5.14949045 -2.9375 2.875 C-2 1 -2 1 0 0 Z " fill="#64469B" transform="translate(111,258)"/>
<path d="M0 0 C0.99 0 1.98 0 3 0 C3 0.99 3 1.98 3 3 C3.66 3 4.32 3 5 3 C4.67 3.66 4.34 4.32 4 5 C5.14069996 6.23094848 5.14069996 6.23094848 7.5625 7.4375 C8.366875 7.953125 9.17125 8.46875 10 9 C10 9.66 10 10.32 10 11 C4.80310881 12.14507772 4.80310881 12.14507772 2 12 C-1 9.5625 -1 9.5625 -3 7 C-2.01 6.67 -1.02 6.34 0 6 C-0.185625 5.38125 -0.37125 4.7625 -0.5625 4.125 C-1 2 -1 2 0 0 Z " fill="#6F49A7" transform="translate(387,279)"/>
<path d="M0 0 C0.66 0 1.32 0 2 0 C2.66 1.65 3.32 3.3 4 5 C4.66 5 5.32 5 6 5 C6.33 4.34 6.66 3.68 7 3 C7 5.97 7 8.94 7 12 C5.02 12 3.04 12 1 12 C0.67 12.66 0.34 13.32 0 14 C0 12.68 0 11.36 0 10 C-0.66 10 -1.32 10 -2 10 C-2 8.35 -2 6.7 -2 5 C-1.34 5 -0.68 5 0 5 C0 3.35 0 1.7 0 0 Z " fill="#663EA7" transform="translate(331,273)"/>
<path d="M0 0 C2.04442328 3.54366701 2.26700438 5.60202629 3 10 C-3.435 10.495 -3.435 10.495 -10 11 C-8.12078169 7.24156337 -6.97529385 5.85024645 -3.875 3.25 C-3.15054688 2.63640625 -2.42609375 2.0228125 -1.6796875 1.390625 C-0.84824219 0.70226562 -0.84824219 0.70226562 0 0 Z " fill="#6D47AE" transform="translate(60,280)"/>
<path d="M0 0 C2.31 0 4.62 0 7 0 C7 2.31 7 4.62 7 7 C7.66 7 8.32 7 9 7 C9 7.66 9 8.32 9 9 C5.04 9 1.08 9 -3 9 C-1.68 8.67 -0.36 8.34 1 8 C0.67 5.36 0.34 2.72 0 0 Z " fill="#52327F" transform="translate(202,215)"/>
<path d="M0 0 C0.1875 2.875 0.1875 2.875 0 6 C-3.22791555 8.1519437 -4.28400809 8.20086443 -8 8 C-8 5.69 -8 3.38 -8 1 C-4.93251126 -0.86240388 -3.40254489 -1.2151946 0 0 Z " fill="#886DA6" transform="translate(221,217)"/>
<path d="M0 0 C1.9375 0.8125 1.9375 0.8125 4 2 C4.33 2.99 4.66 3.98 5 5 C4.34 5 3.68 5 3 5 C3 6.65 3 8.3 3 10 C2.34 9.67 1.68 9.34 1 9 C0.01 9 -0.98 9 -2 9 C-4.66666667 9 -7.33333333 9 -10 9 C-10.33 7.68 -10.66 6.36 -11 5 C-9.68 5.33 -8.36 5.66 -7 6 C-7.66 6 -8.32 6 -9 6 C-9 6.66 -9 7.32 -9 8 C-7.02 7.67 -5.04 7.34 -3 7 C-3 6.01 -3 5.02 -3 4 C-1.5 1.8125 -1.5 1.8125 0 0 Z " fill="#8363B4" transform="translate(401,269)"/>
<path d="M0 0 C3.3 0.33 6.6 0.66 10 1 C10 5 10 5 9 7 C5.7 7 2.4 7 -1 7 C-1.33 6.01 -1.66 5.02 -2 4 C-0.68 4 0.64 4 2 4 C1.34 2.68 0.68 1.36 0 0 Z " fill="#6C46A3" transform="translate(225,285)"/>
<path d="M0 0 C0.33 0 0.66 0 1 0 C1 7.26 1 14.52 1 22 C2.65 22 4.3 22 6 22 C6.33 18.04 6.66 14.08 7 10 C7.33 10 7.66 10 8 10 C8.02685938 12.14576637 8.04633088 14.29162645 8.0625 16.4375 C8.07410156 17.63246094 8.08570313 18.82742188 8.09765625 20.05859375 C8 23 8 23 7 24 C4.69 24 2.38 24 0 24 C0 16.08 0 8.16 0 0 Z " fill="#7C65A2" transform="translate(283,268)"/>
<path d="M0 0 C1.9587043 0.14076315 3.91696093 0.2877676 5.875 0.4375 C7.51082031 0.55931641 7.51082031 0.55931641 9.1796875 0.68359375 C12 1 12 1 14 2 C14 4.97 14 7.94 14 11 C13.67 11 13.34 11 13 11 C13 9.35 13 7.7 13 6 C12.34 6 11.68 6 11 6 C11 6.66 11 7.32 11 8 C10.01 8 9.02 8 8 8 C7.67 6.68 7.34 5.36 7 4 C4.36 3.34 1.72 2.68 -1 2 C-0.67 1.34 -0.34 0.68 0 0 Z " fill="#663CA6" transform="translate(248,270)"/>
<path d="M0 0 C0.66 0 1.32 0 2 0 C2.08090971 1.62418745 2.13914995 3.24951745 2.1875 4.875 C2.22230469 5.77992188 2.25710937 6.68484375 2.29296875 7.6171875 C2.19628906 8.40351563 2.09960938 9.18984375 2 10 C-0.65468714 11.76979142 -2.07499931 12.42140171 -5.0625 13.125 C-5.75472656 13.29257813 -6.44695312 13.46015625 -7.16015625 13.6328125 C-9 14 -9 14 -11 14 C-11 11.03 -11 8.06 -11 5 C-9 8 -9 8 -9 11 C-6.36 10.34 -3.72 9.68 -1 9 C-0.67 6.03 -0.34 3.06 0 0 Z " fill="#8E7BB2" transform="translate(224,201)"/>
<path d="M0 0 C0 2.31 0 4.62 0 7 C-2.31 7.33 -4.62 7.66 -7 8 C-7 5.69 -7 3.38 -7 1 C-4.53721199 -0.231394 -2.7204945 -0.07159196 0 0 Z " fill="#A186DA" transform="translate(183,237)"/>
<path d="M0 0 C1.32 0 2.64 0 4 0 C4.66 1.98 5.32 3.96 6 6 C5.34 6 4.68 6 4 6 C4 7.32 4 8.64 4 10 C2.02 10.99 2.02 10.99 0 12 C-0.76173392 7.6835078 -1.16063604 4.25566547 0 0 Z " fill="#6A40AC" transform="translate(193,213)"/>
<path d="M0 0 C0.33 0.66 0.66 1.32 1 2 C0.34 2 -0.32 2 -1 2 C-1 2.66 -1 3.32 -1 4 C-6.39068413 7.59378942 -9.53673535 8.45356243 -16 8 C-15.34 6.35 -14.68 4.7 -14 3 C-13.32453125 3.03480469 -12.6490625 3.06960938 -11.953125 3.10546875 C-10.61507813 3.14607422 -10.61507813 3.14607422 -9.25 3.1875 C-8.36828125 3.22230469 -7.4865625 3.25710938 -6.578125 3.29296875 C-3.55328417 2.94923684 -2.24416398 1.99772541 0 0 Z " fill="#613C9E" transform="translate(446,274)"/>
<path d="M0 0 C0.33 0.66 0.66 1.32 1 2 C0.01 2.495 0.01 2.495 -1 3 C-1 3.66 -1 4.32 -1 5 C-5.26616316 6.13764351 -8.56486311 7 -13 7 C-12.625 5.0625 -12.625 5.0625 -12 3 C-11.34 2.67 -10.68 2.34 -10 2 C-10 2.66 -10 3.32 -10 4 C-9.01 3.67 -8.02 3.34 -7 3 C-7 2.34 -7 1.68 -7 1 C-3.535 0.505 -3.535 0.505 0 0 Z " fill="#6D41AC" transform="translate(347,284)"/>
<path d="M0 0 C0 1.98 0 3.96 0 6 C-1.98 6.66 -3.96 7.32 -6 8 C-7 7 -7 7 -7.0625 3.4375 C-7.041875 2.303125 -7.02125 1.16875 -7 0 C-3.98968256 -0.93423645 -3.13349732 -1.04449911 0 0 Z " fill="#635377" transform="translate(200,248)"/>
<path d="M0 0 C1.46109063 0.25554054 2.91888096 0.53000372 4.375 0.8125 C5.59316406 1.03873047 5.59316406 1.03873047 6.8359375 1.26953125 C9 2 9 2 11 5 C10.01 5.495 10.01 5.495 9 6 C9 5.34 9 4.68 9 4 C8.34 4 7.68 4 7 4 C6.67 6.31 6.34 8.62 6 11 C4.35 11 2.7 11 1 11 C1.99 10.34 2.98 9.68 4 9 C4 8.01 4 7.02 4 6 C3.34 5.34 2.68 4.68 2 4 C1.30251417 2.68252676 0.63040043 1.35085807 0 0 Z " fill="#8463B5" transform="translate(227,267)"/>
<path d="M0 0 C-3.7367843 2.49118953 -5.74451819 2.2065226 -10.1875 2.125 C-11.45980469 2.10695312 -12.73210937 2.08890625 -14.04296875 2.0703125 C-15.50669922 2.03550781 -15.50669922 2.03550781 -17 2 C-17 1.01 -17 0.02 -17 -1 C-14.91814549 -1.22262606 -12.83439574 -1.42757926 -10.75 -1.625 C-9.58984375 -1.74101562 -8.4296875 -1.85703125 -7.234375 -1.9765625 C-4.06127909 -1.99955595 -2.61682756 -1.69705154 0 0 Z " fill="#6C4BAA" transform="translate(170,213)"/>
<path d="M0 0 C0 0.66 0 1.32 0 2 C-1.32 2.33 -2.64 2.66 -4 3 C-3.67 3.99 -3.34 4.98 -3 6 C-4.45880109 5.85892253 -5.91703551 5.71197585 -7.375 5.5625 C-8.59316406 5.44068359 -8.59316406 5.44068359 -9.8359375 5.31640625 C-12 5 -12 5 -14 4 C-14 3.01 -14 2.02 -14 1 C-12.04175306 0.83232136 -10.08339945 0.66588795 -8.125 0.5 C-6.48917969 0.36078125 -6.48917969 0.36078125 -4.8203125 0.21875 C-3.21670436 0.09437042 -1.60842449 0 0 0 Z " fill="#643CA3" transform="translate(350,269)"/>
<path d="M0 0 C1.42944945 2.35438733 2.08661261 3.48032433 1.625 6.25 C1.41875 6.8275 1.2125 7.405 1 8 C0.05125 8.12375 -0.8975 8.2475 -1.875 8.375 C-5.08667191 8.71687177 -5.08667191 8.71687177 -7 11 C-7 10.01 -7 9.02 -7 8 C-7.66 7.67 -8.32 7.34 -9 7 C-4.25 4 -4.25 4 -2 4 C-2 3.34 -2 2.68 -2 2 C-1.34 2 -0.68 2 0 2 C0 1.34 0 0.68 0 0 Z " fill="#7753A7" transform="translate(447,274)"/>
<path d="M0 0 C2.64 0 5.28 0 8 0 C8 0.99 8 1.98 8 3 C7.01 3.33 6.02 3.66 5 4 C5.33 4.66 5.66 5.32 6 6 C4.02 6.33 2.04 6.66 0 7 C-1.04449911 3.86650268 -0.93423645 3.01031744 0 0 Z " fill="#614A9B" transform="translate(366,267)"/>
<path d="M0 0 C0.99 0 1.98 0 3 0 C3 2.64 3 5.28 3 8 C2.360625 8.12375 1.72125 8.2475 1.0625 8.375 C0.381875 8.58125 -0.29875 8.7875 -1 9 C-1.33 9.66 -1.66 10.32 -2 11 C-2.33 9.68 -2.66 8.36 -3 7 C-4.65 7 -6.3 7 -8 7 C-8 6.67 -8 6.34 -8 6 C-5.36 5.67 -2.72 5.34 0 5 C0 3.35 0 1.7 0 0 Z " fill="#6D499B" transform="translate(404,274)"/>
<path d="M0 0 C0.66 0.33 1.32 0.66 2 1 C1.67 1.99 1.34 2.98 1 4 C2.65 4.33 4.3 4.66 6 5 C4.68 6.32 3.36 7.64 2 9 C2 8.34 2 7.68 2 7 C0.02 7.33 -1.96 7.66 -4 8 C-3.50168276 4.31245243 -2.89932357 2.39509338 0 0 Z " fill="#7E5DAF" transform="translate(429,269)"/>
<path d="M0 0 C3.3 0.33 6.6 0.66 10 1 C10 2.32 10 3.64 10 5 C7.69 5.33 5.38 5.66 3 6 C3 5.01 3 4.02 3 3 C1.68 3 0.36 3 -1 3 C-0.67 2.01 -0.34 1.02 0 0 Z " fill="#64399C" transform="translate(246,277)"/>
<path d="M0 0 C1.32 0 2.64 0 4 0 C4 0.66 4 1.32 4 2 C4.66 2 5.32 2 6 2 C6 2.99 6 3.98 6 5 C5.34 5 4.68 5 4 5 C4.66 6.65 5.32 8.3 6 10 C5.01 10.33 4.02 10.66 3 11 C2.938125 10.2575 2.87625 9.515 2.8125 8.75 C1.75814862 5.1814261 0.00090227 4.07754772 -3 2 C-2.01 2 -1.02 2 0 2 C0 1.34 0 0.68 0 0 Z " fill="#6640A5" transform="translate(321,280)"/>
<path d="M0 0 C1.32 0 2.64 0 4 0 C4 4.29 4 8.58 4 13 C0.625 13.625 0.625 13.625 -3 14 C-3.66 13.34 -4.32 12.68 -5 12 C-1.535 11.505 -1.535 11.505 2 11 C2.33 7.7 2.66 4.4 3 1 C1.35 1.33 -0.3 1.66 -2 2 C-1.34 1.34 -0.68 0.68 0 0 Z " fill="#554575" transform="translate(211,231)"/>
<path d="M0 0 C0.99 0 1.98 0 3 0 C3 0.66 3 1.32 3 2 C5.64 2.33 8.28 2.66 11 3 C10.0409375 3.1546875 10.0409375 3.1546875 9.0625 3.3125 C8.381875 3.539375 7.70125 3.76625 7 4 C6.67 4.99 6.34 5.98 6 7 C4.35 7.33 2.7 7.66 1 8 C-0.35439668 5.29120665 -0.06501451 2.99066732 0 0 Z " fill="#784FB5" transform="translate(333,271)"/>
<path d="M0 0 C0.66 0 1.32 0 2 0 C2 0.66 2 1.32 2 2 C2.99 2 3.98 2 5 2 C4 5 4 5 2 6 C1.52998967 9.27555608 1.52998967 9.27555608 1.375 13.0625 C1.30023438 14.35285156 1.22546875 15.64320313 1.1484375 16.97265625 C1.09945313 17.97167969 1.05046875 18.97070312 1 20 C0.67 20 0.34 20 0 20 C-0.06058594 19.25234375 -0.12117188 18.5046875 -0.18359375 17.734375 C-0.26738281 16.74953125 -0.35117187 15.7646875 -0.4375 14.75 C-0.51871094 13.77546875 -0.59992188 12.8009375 -0.68359375 11.796875 C-0.95074584 9.43538247 -1.35371968 7.28098935 -2 5 C-1.34 4.67 -0.68 4.34 0 4 C0 2.68 0 1.36 0 0 Z " fill="#5F3D92" transform="translate(299,269)"/>
<path d="M0 0 C0.66 1.32 1.32 2.64 2 4 C1.01 4.33 0.02 4.66 -1 5 C-1.73323796 7.01508358 -1.73323796 7.01508358 -2 9 C-2.99 8.67 -3.98 8.34 -5 8 C-5 5.69 -5 3.38 -5 1 C-3.35 0.67 -1.7 0.34 0 0 Z " fill="#693DAF" transform="translate(290,269)"/>
<path d="M0 0 C0.33 2.31 0.66 4.62 1 7 C0.01 7.33 -0.98 7.66 -2 8 C-1.67 6.02 -1.34 4.04 -1 2 C-1.99 2.33 -2.98 2.66 -4 3 C-4 4.65 -4 6.3 -4 8 C-4.99 8 -5.98 8 -7 8 C-7.1875 5.125 -7.1875 5.125 -7 2 C-4 0 -4 0 0 0 Z " fill="#7A639F" transform="translate(209,203)"/>
<path d="M0 0 C0.66 0.33 1.32 0.66 2 1 C2.02685412 3.31243792 2.04632841 5.6249627 2.0625 7.9375 C2.07410156 9.22527344 2.08570313 10.51304687 2.09765625 11.83984375 C2 15 2 15 1 16 C-1.33297433 16.04092937 -3.66705225 16.04241723 -6 16 C-6 15.67 -6 15.34 -6 15 C-4.02 15 -2.04 15 0 15 C-0.08378906 14.16855469 -0.16757812 13.33710938 -0.25390625 12.48046875 C-0.40666016 10.85044922 -0.40666016 10.85044922 -0.5625 9.1875 C-0.66691406 8.10855469 -0.77132813 7.02960938 -0.87890625 5.91796875 C-1 3 -1 3 0 0 Z " fill="#8973B3" transform="translate(364,276)"/>
<path d="M0 0 C1.65 0 3.3 0 5 0 C4.50757813 0.53238281 4.01515625 1.06476563 3.5078125 1.61328125 C1.5720576 4.67739068 1.72634598 6.59794265 1.875 10.1875 C1.9452542 12.12417414 1.99413634 14.06206089 2 16 C1 17 1 17 -2.5625 17.0625 C-3.696875 17.041875 -4.83125 17.02125 -6 17 C-6 16.67 -6 16.34 -6 16 C-4.02 16 -2.04 16 0 16 C-0.08378906 15.09636719 -0.16757812 14.19273437 -0.25390625 13.26171875 C-0.40666016 11.49248047 -0.40666016 11.49248047 -0.5625 9.6875 C-0.71912109 7.92986328 -0.71912109 7.92986328 -0.87890625 6.13671875 C-1 3 -1 3 0 0 Z " fill="#916EB5" transform="translate(416,275)"/>
<path d="M0 0 C2.31 0 4.62 0 7 0 C7 1.98 7 3.96 7 6 C5.02 6.33 3.04 6.66 1 7 C1.020625 6.21625 1.04125 5.4325 1.0625 4.625 C1.18684063 2.01885039 1.18684063 2.01885039 0 0 Z " fill="#A079C7" transform="translate(275,268)"/>
<path d="M0 0 C2.33944736 0.28730055 4.6739143 0.61936779 7 1 C7 1.66 7 2.32 7 3 C5.04072937 4.7143618 3.04119788 6.38405168 1 8 C-1 6 -1 6 -1.1875 3.4375 C-1 1 -1 1 0 0 Z " fill="#6B49A5" transform="translate(145,211)"/>
<path d="M0 0 C0.33 1.32 0.66 2.64 1 4 C-0.98 4.99 -0.98 4.99 -3 6 C-3.66 5.34 -4.32 4.68 -5 4 C-4.67 3.34 -4.34 2.68 -4 2 C-6.31 1.67 -8.62 1.34 -11 1 C-11 0.67 -11 0.34 -11 0 C-3.57142857 -1.28571429 -3.57142857 -1.28571429 0 0 Z " fill="#775E9C" transform="translate(238,285)"/>
<path d="M0 0 C1.65 1.32 3.3 2.64 5 4 C4.67 5.32 4.34 6.64 4 8 C3.34 7.67 2.68 7.34 2 7 C2 6.01 2 5.02 2 4 C1.01 4.66 0.02 5.32 -1 6 C-1.99 6.66 -2.98 7.32 -4 8 C-4.33 7.34 -4.66 6.68 -5 6 C-4.34 6 -3.68 6 -3 6 C-3 5.34 -3 4.68 -3 4 C-3.66 3.67 -4.32 3.34 -5 3 C-3.35 2.67 -1.7 2.34 0 2 C0 1.34 0 0.68 0 0 Z " fill="#815EB1" transform="translate(350,269)"/>
<path d="M0 0 C2.0625 1.125 2.0625 1.125 3.0625 3.125 C2.0725 3.125 1.0825 3.125 0.0625 3.125 C0.0625 2.465 0.0625 1.805 0.0625 1.125 C-3.2375 1.785 -6.5375 2.445 -9.9375 3.125 C-9.9375 2.465 -9.9375 1.805 -9.9375 1.125 C-11.5875 1.125 -13.2375 1.125 -14.9375 1.125 C-10.35345495 -1.93103003 -5.05492134 -1.50572125 0 0 Z " fill="#836DA5" transform="translate(300.9375,267.875)"/>
<path d="M0 0 C0.33 0.99 0.66 1.98 1 3 C-0.5954349 5.05727132 -2.26526288 7.05874656 -4 9 C-4.33 9.66 -4.66 10.32 -5 11 C-6.65 11 -8.3 11 -10 11 C-6.79239749 7.19364503 -3.59253891 3.45436433 0 0 Z " fill="#8C70BA" transform="translate(81,259)"/>
<path d="M0 0 C1.32 0 2.64 0 4 0 C4 1.65 4 3.3 4 5 C-0.455 5.495 -0.455 5.495 -5 6 C-4.34 4.68 -3.68 3.36 -3 2 C-2.01 2 -1.02 2 0 2 C0 1.34 0 0.68 0 0 Z " fill="#3F235E" transform="translate(195,236)"/>
<path d="M0 0 C0.99 0 1.98 0 3 0 C3 0.99 3 1.98 3 3 C3.66 3 4.32 3 5 3 C4.34 4.65 3.68 6.3 3 8 C1.35 8 -0.3 8 -2 8 C-2.33 7.34 -2.66 6.68 -3 6 C-2.01 6 -1.02 6 0 6 C-0.185625 5.38125 -0.37125 4.7625 -0.5625 4.125 C-1 2 -1 2 0 0 Z " fill="#764CB3" transform="translate(387,279)"/>
<path d="M0 0 C0.66 0.99 1.32 1.98 2 3 C4.05925139 3.72382467 4.05925139 3.72382467 6 4 C4.35 4.33 2.7 4.66 1 5 C0.67 9.95 0.34 14.9 0 20 C-0.33 20 -0.66 20 -1 20 C-1.02888514 16.85418577 -1.04675923 13.70840531 -1.0625 10.5625 C-1.07087891 9.66466797 -1.07925781 8.76683594 -1.08789062 7.84179688 C-1.09111328 6.98779297 -1.09433594 6.13378906 -1.09765625 5.25390625 C-1.10551147 4.06776733 -1.10551147 4.06776733 -1.11352539 2.85766602 C-1 1 -1 1 0 0 Z " fill="#B5A0D0" transform="translate(275,271)"/>
<path d="M0 0 C-0.33 1.32 -0.66 2.64 -1 4 C-1 3.01 -1 2.02 -1 1 C-1.94875 1.495 -2.8975 1.99 -3.875 2.5 C-7 4 -7 4 -9 4 C-9.33 6.97 -9.66 9.94 -10 13 C-10.33 13 -10.66 13 -11 13 C-11 9.37 -11 5.74 -11 2 C-7.17679443 0.57741188 -4.08718695 -0.24042276 0 0 Z " fill="#492381" transform="translate(199,230)"/>
<path d="M0 0 C1.32 0.33 2.64 0.66 4 1 C3.01 1.33 2.02 1.66 1 2 C1.66 3.65 2.32 5.3 3 7 C4.98 7 6.96 7 9 7 C6.03312999 8.64826111 3.34373475 9.44271087 0 10 C0 6.7 0 3.4 0 0 Z " fill="#9980D3" transform="translate(183,222)"/>
<path d="M0 0 C0.33 0.66 0.66 1.32 1 2 C1.99 2.33 2.98 2.66 4 3 C1.36 5.31 -1.28 7.62 -4 10 C-4.33 9.34 -4.66 8.68 -5 8 C-5.66 7.67 -6.32 7.34 -7 7 C-5.37660195 5.29115995 -3.70680947 3.62553283 -2 2 C-1.34 2 -0.68 2 0 2 C0 1.34 0 0.68 0 0 Z " fill="#7152A6" transform="translate(122,218)"/>
<path d="M0 0 C0.99 0.33 1.98 0.66 3 1 C4.1875 3.5625 4.1875 3.5625 5 6 C4.34 6 3.68 6 3 6 C2.34 7.32 1.68 8.64 1 10 C0.34 8.68 -0.32 7.36 -1 6 C-0.34 6 0.32 6 1 6 C1 5.01 1 4.02 1 3 C0.34 3 -0.32 3 -1 3 C-0.67 2.01 -0.34 1.02 0 0 Z " fill="#947BBA" transform="translate(326,279)"/>
<path d="M0 0 C0.99 0.33 1.98 0.66 3 1 C-0.3 4.3 -3.6 7.6 -7 11 C-7.33 10.01 -7.66 9.02 -8 8 C-6.71034824 6.62437146 -5.37310707 5.29233607 -4 4 C-3.34 4 -2.68 4 -2 4 C-1.34 2.68 -0.68 1.36 0 0 Z " fill="#8A72AF" transform="translate(156,276)"/>
<path d="M0 0 C0 2.31 0 4.62 0 7 C-1.98 7 -3.96 7 -6 7 C-5.67 6.34 -5.34 5.68 -5 5 C-4.01 5 -3.02 5 -2 5 C-2 4.01 -2 3.02 -2 2 C-3.65 2.33 -5.3 2.66 -7 3 C-4.49955934 -0.00052879 -4.2621484 0 0 0 Z " fill="#64458E" transform="translate(424,268)"/>
<path d="M0 0 C-1.38188453 3.21043882 -2.92421903 5.04936365 -5.625 7.25 C-6.57246094 8.03117187 -6.57246094 8.03117187 -7.5390625 8.828125 C-8.02117187 9.21484375 -8.50328125 9.6015625 -9 10 C-9 6.47967572 -8.29648649 5.5614657 -6 3 C-5.34 3 -4.68 3 -4 3 C-4 2.34 -4 1.68 -4 1 C-2 0 -2 0 0 0 Z " fill="#684899" transform="translate(183,251)"/>
<path d="M0 0 C0.66 0.66 1.32 1.32 2 2 C-0.33333333 4.33333333 -2.66666667 6.66666667 -5 9 C-5.64767793 11.57061311 -5.64767793 11.57061311 -6 14 C-6.33 14 -6.66 14 -7 14 C-7 11.69 -7 9.38 -7 7 C-6.34 7 -5.68 7 -5 7 C-4.731875 6.401875 -4.46375 5.80375 -4.1875 5.1875 C-3.01506533 3.02775192 -1.80630718 1.64209744 0 0 Z " fill="#8973AA" transform="translate(206,226)"/>
<path d="M0 0 C1.32 0 2.64 0 4 0 C4.12375 0.78375 4.2475 1.5675 4.375 2.375 C4.79117993 5.14057822 4.79117993 5.14057822 7 7 C4.69 7 2.38 7 0 7 C0 4.69 0 2.38 0 0 Z " fill="#8860BC" transform="translate(204,216)"/>
<path d="M0 0 C0.33 0.66 0.66 1.32 1 2 C-1.65228812 3.07525194 -4.28368454 4.09456151 -7 5 C-7 5.66 -7 6.32 -7 7 C-7.66 7 -8.32 7 -9 7 C-9.33 8.32 -9.66 9.64 -10 11 C-9.51319648 4.54985337 -9.51319648 4.54985337 -7.25 2.125 C-4.82272946 0.91136473 -2.68060559 0.37230633 0 0 Z " fill="#856CA4" transform="translate(318,267)"/>
<path d="M0 0 C0.33 0.66 0.66 1.32 1 2 C-0.23941385 5.71824156 -1.9233963 6.67378745 -5 9 C-5.66 9.66 -6.32 10.32 -7 11 C-7.66 10.34 -8.32 9.68 -9 9 C-6.03 6.03 -3.06 3.06 0 0 Z " fill="#8D75BB" transform="translate(91,249)"/>
<path d="M0 0 C0.625 1.8125 0.625 1.8125 1 4 C0.01 5.485 0.01 5.485 -1 7 C-1.66 7 -2.32 7 -3 7 C-3 7.66 -3 8.32 -3 9 C-4.32 8.34 -5.64 7.68 -7 7 C-5.37660195 5.29115995 -3.70680947 3.62553283 -2 2 C-1.34 2 -0.68 2 0 2 C0 1.34 0 0.68 0 0 Z " fill="#876EB4" transform="translate(113,227)"/>
<path d="M0 0 C0.33 0 0.66 0 1 0 C1 1.65 1 3.3 1 5 C0.01 5.33 -0.98 5.66 -2 6 C-2.33 6.99 -2.66 7.98 -3 9 C-3.33 8.34 -3.66 7.68 -4 7 C-4.66 6.67 -5.32 6.34 -6 6 C-5.67 4.35 -5.34 2.7 -5 1 C-4.01 1 -3.02 1 -2 1 C-2 1.99 -2 2.98 -2 4 C-1.34 4 -0.68 4 0 4 C0 2.68 0 1.36 0 0 Z " fill="#8262B4" transform="translate(202,218)"/>
<path d="M0 0 C2.32488881 0.2818047 3.90892835 0.95446418 6 2 C6 3.65 6 5.3 6 7 C5.01 7 4.02 7 3 7 C2.67 6.01 2.34 5.02 2 4 C0.35 3.67 -1.3 3.34 -3 3 C-1.75 1.4375 -1.75 1.4375 0 0 Z " fill="#9270BF" transform="translate(318,283)"/>
<path d="M0 0 C3 3.625 3 3.625 3 7 C2.21625 6.814375 1.4325 6.62875 0.625 6.4375 C-1.97089775 5.74037734 -1.97089775 5.74037734 -4 7 C-4 6.34 -4 5.68 -4 5 C-4.66 4.67 -5.32 4.34 -6 4 C-4.35 3.67 -2.7 3.34 -1 3 C-0.67 2.01 -0.34 1.02 0 0 Z " fill="#754EB3" transform="translate(338,281)"/>
<path d="M0 0 C0.33 0.66 0.66 1.32 1 2 C2.65 1.67 4.3 1.34 6 1 C6 2.65 6 4.3 6 6 C4.35 6.33 2.7 6.66 1 7 C0.34 5.02 -0.32 3.04 -1 1 C-0.67 0.67 -0.34 0.34 0 0 Z " fill="#7745B2" transform="translate(244,278)"/>
<path d="M0 0 C2.475 0.99 2.475 0.99 5 2 C4.01 2.33 3.02 2.66 2 3 C1.26676204 5.01508358 1.26676204 5.01508358 1 7 C-1.46278801 5.768606 -2.42497687 4.21935077 -4 2 C-2.68 2 -1.36 2 0 2 C0 1.34 0 0.68 0 0 Z " fill="#754EB2" transform="translate(374,268)"/>
<path d="M0 0 C0 1.98 0 3.96 0 6 C-1.65 6 -3.3 6 -5 6 C-5 4.35 -5 2.7 -5 1 C-2 0 -2 0 0 0 Z " fill="#492281" transform="translate(179,217)"/>
<path d="M0 0 C4.95 0.99 4.95 0.99 10 2 C10 2.33 10 2.66 10 3 C8.02 3 6.04 3 4 3 C4 3.66 4 4.32 4 5 C2.68 5 1.36 5 0 5 C0 3.35 0 1.7 0 0 Z " fill="#613A9B" transform="translate(310,284)"/>
<path d="M0 0 C0 2.31 0 4.62 0 7 C-1.32 7 -2.64 7 -4 7 C-4 5.02 -4 3.04 -4 1 C-1 0 -1 0 0 0 Z " fill="#693CAA" transform="translate(415,283)"/>
<path d="M0 0 C0.33 0 0.66 0 1 0 C1.1953125 2.05078125 1.390625 4.1015625 1.5859375 6.15234375 C1.72257813 6.76207031 1.85921875 7.37179687 2 8 C2.66 8.33 3.32 8.66 4 9 C3.34 10.65 2.68 12.3 2 14 C1.34 14 0.68 14 0 14 C0 9.38 0 4.76 0 0 Z " fill="#644592" transform="translate(145,275)"/>
<path d="M0 0 C0.66 0 1.32 0 2 0 C2.09765625 6.15234375 2.09765625 6.15234375 2 8 C1 9 1 9 -2.0625 9.0625 C-3.031875 9.041875 -4.00125 9.02125 -5 9 C-2 7 -2 7 0 7 C0 4.69 0 2.38 0 0 Z " fill="#7D6AA5" transform="translate(261,283)"/>
<path d="M0 0 C0.33 0 0.66 0 1 0 C1 4.62 1 9.24 1 14 C0.67 12.68 0.34 11.36 0 10 C-0.66 10 -1.32 10 -2 10 C-2 8.35 -2 6.7 -2 5 C-1.34 5 -0.68 5 0 5 C0 3.35 0 1.7 0 0 Z " fill="#573A90" transform="translate(331,273)"/>
<path d="M0 0 C0.66 0 1.32 0 2 0 C2.144375 1.2375 2.28875 2.475 2.4375 3.75 C2.78688502 6.56504499 3.20379366 9.2701497 4 12 C3.34 12 2.68 12 2 12 C-0.60018816 8.09971775 -0.15085514 4.52565431 0 0 Z " fill="#967AB8" transform="translate(216,276)"/>
<path d="M0 0 C1.32 0.33 2.64 0.66 4 1 C4 1.99 4 2.98 4 4 C3.01 4.33 2.02 4.66 1 5 C0.67 6.65 0.34 8.3 0 10 C-0.33 10 -0.66 10 -1 10 C-2.23076923 4.58461538 -2.23076923 4.58461538 -1.0625 1.625 C-0.5365625 0.820625 -0.5365625 0.820625 0 0 Z " fill="#6844A3" transform="translate(376,271)"/>
<path d="M0 0 C-1.35468295 4.87685861 -3.71675909 6.48592381 -8 9 C-7.53918323 4.85264908 -4.48412936 0 0 0 Z " fill="#7B60A6" transform="translate(168,266)"/>
<path d="M0 0 C1.32 0 2.64 0 4 0 C4 3.3 4 6.6 4 10 C2 8 2 8 1.875 4.875 C1.91625 3.92625 1.9575 2.9775 2 2 C1.01 2.33 0.02 2.66 -1 3 C-0.67 2.01 -0.34 1.02 0 0 Z " fill="#5E379E" transform="translate(116,253)"/>
<path d="M0 0 C0 1.65 0 3.3 0 5 C-0.66 4.67 -1.32 4.34 -2 4 C-3.67654729 4.27942455 -5.34608154 4.60828247 -7 5 C-7.33 4.01 -7.66 3.02 -8 2 C-2.25 0 -2.25 0 0 0 Z " fill="#321C53" transform="translate(214,232)"/>
<path d="M0 0 C0.66 0 1.32 0 2 0 C2.33 1.65 2.66 3.3 3 5 C3.99 4.67 4.98 4.34 6 4 C6.33 4.99 6.66 5.98 7 7 C6.34 7.66 5.68 8.32 5 9 C4.34 8.01 3.68 7.02 3 6 C2.67 6.66 2.34 7.32 2 8 C0 1.125 0 1.125 0 0 Z " fill="#5D3699" transform="translate(347,276)"/>
<path d="M0 0 C3 3 3 3 3.1875 6.6875 C3.125625 7.780625 3.06375 8.87375 3 10 C1.35 10 -0.3 10 -2 10 C-1.34 9.67 -0.68 9.34 0 9 C0 6.03 0 3.06 0 0 Z " fill="#8976B1" transform="translate(238,272)"/>
<path d="M0 0 C1.46109063 0.25554054 2.91888096 0.53000372 4.375 0.8125 C5.59316406 1.03873047 5.59316406 1.03873047 6.8359375 1.26953125 C9 2 9 2 11 5 C10.01 5.495 10.01 5.495 9 6 C9 5.34 9 4.68 9 4 C4.545 3.01 4.545 3.01 0 2 C0 1.34 0 0.68 0 0 Z " fill="#816AAB" transform="translate(227,267)"/>
<path d="M0 0 C1.32 0 2.64 0 4 0 C4.33 1.32 4.66 2.64 5 4 C4.34 4 3.68 4 3 4 C3 4.99 3 5.98 3 7 C2.34 7 1.68 7 1 7 C0.34 5.02 -0.32 3.04 -1 1 C-0.67 0.67 -0.34 0.34 0 0 Z " fill="#654299" transform="translate(193,213)"/>
<path d="M0 0 C0.33 0.66 0.66 1.32 1 2 C1.66 2 2.32 2 3 2 C3.33 2.99 3.66 3.98 4 5 C2.625 6.5 2.625 6.5 1 8 C0.34 8 -0.32 8 -1 8 C-0.67 5.36 -0.34 2.72 0 0 Z " fill="#79629C" transform="translate(443,283)"/>
<path d="M0 0 C1.65 0 3.3 0 5 0 C5 1.32 5 2.64 5 4 C4.34 4 3.68 4 3 4 C3 4.66 3 5.32 3 6 C2.34 6 1.68 6 1 6 C0.67 4.02 0.34 2.04 0 0 Z " fill="#9D8ACD" transform="translate(177,239)"/>
<path d="M0 0 C0.99 0 1.98 0 3 0 C2.8125 1.875 2.8125 1.875 2 4 C-0.5625 5.25 -0.5625 5.25 -3 6 C-2.42655063 3.13275314 -2.1385485 2.1385485 0 0 Z " fill="#7851AD" transform="translate(105,235)"/>
<path d="M0 0 C0.66 0 1.32 0 2 0 C2.33 0.66 2.66 1.32 3 2 C3.99 2.33 4.98 2.66 6 3 C6 3.66 6 4.32 6 5 C3.36 4.67 0.72 4.34 -2 4 C-2 3.34 -2 2.68 -2 2 C-1.34 2 -0.68 2 0 2 C0 1.34 0 0.68 0 0 Z " fill="#633B9D" transform="translate(249,286)"/>
<path d="M0 0 C1.32 0.33 2.64 0.66 4 1 C2.71937515 2.7074998 1.38232443 4.37373596 0 6 C-0.66 6 -1.32 6 -2 6 C-2 4.68 -2 3.36 -2 2 C-1.34 2 -0.68 2 0 2 C0 1.34 0 0.68 0 0 Z " fill="#8166A9" transform="translate(351,285)"/>
<path d="M0 0 C2.31 0.33 4.62 0.66 7 1 C7 1.99 7 2.98 7 4 C4.36 3.67 1.72 3.34 -1 3 C-0.67 2.01 -0.34 1.02 0 0 Z " fill="#7E5EA0" transform="translate(319,276)"/>
<path d="M0 0 C2 2 2 2 2 5 C1.34 5 0.68 5 0 5 C-0.33 5.99 -0.66 6.98 -1 8 C-1.66 7.67 -2.32 7.34 -3 7 C-2.25 2.25 -2.25 2.25 0 0 Z " fill="#7855B6" transform="translate(304,271)"/>
<path d="M0 0 C0.33 0.66 0.66 1.32 1 2 C2.65 1.67 4.3 1.34 6 1 C6 1.99 6 2.98 6 4 C4.35 4.66 2.7 5.32 1 6 C-0.0625 4.125 -0.0625 4.125 -1 2 C-0.67 1.34 -0.34 0.68 0 0 Z " fill="#673AA8" transform="translate(416,269)"/>
<path d="M0 0 C2 3 2 3 2 6 C2.99 6.33 3.98 6.66 5 7 C4.34 7.66 3.68 8.32 3 9 C2.01 9 1.02 9 0 9 C0 6.03 0 3.06 0 0 Z " fill="#9586C5" transform="translate(213,206)"/>
<path d="M0 0 C1.98 0.495 1.98 0.495 4 1 C4.33 2.65 4.66 4.3 5 6 C0.125 4.25 0.125 4.25 -1 2 C-0.67 1.34 -0.34 0.68 0 0 Z " fill="#633D9F" transform="translate(234,271)"/>
<path d="M0 0 C0.6875 1.8125 0.6875 1.8125 1 4 C-0.3125 5.75 -0.3125 5.75 -2 7 C-2.66 7 -3.32 7 -4 7 C-3.39816251 4.97954558 -2.72693904 2.97888961 -2 1 C-1.34 0.67 -0.68 0.34 0 0 Z " fill="#5E3D9B" transform="translate(111,258)"/>
<path d="M0 0 C0 1.65 0 3.3 0 5 C-0.66 4.34 -1.32 3.68 -2 3 C-4.58354218 2.83312552 -4.58354218 2.83312552 -7 3 C-7.33 2.34 -7.66 1.68 -8 1 C-5.29120665 -0.35439668 -2.99066732 -0.06501451 0 0 Z " fill="#907CB1" transform="translate(227,227)"/>
<path d="M0 0 C1.65 0 3.3 0 5 0 C4.67 1.65 4.34 3.3 4 5 C3.01 5 2.02 5 1 5 C0.67 3.35 0.34 1.7 0 0 Z " fill="#65429D" transform="translate(214,217)"/>
<path d="M0 0 C0.33 0.66 0.66 1.32 1 2 C0.01 2 -0.98 2 -2 2 C-2 2.66 -2 3.32 -2 4 C-2.99 4.33 -3.98 4.66 -5 5 C-5.66 3.68 -6.32 2.36 -7 1 C-3.535 0.505 -3.535 0.505 0 0 Z " fill="#633F9A" transform="translate(347,284)"/>
<path d="M0 0 C0.99 0.33 1.98 0.66 3 1 C1.02 3.31 -0.96 5.62 -3 8 C-3.33 7.01 -3.66 6.02 -4 5 C-3.34 5 -2.68 5 -2 5 C-1.34 3.35 -0.68 1.7 0 0 Z " fill="#7459A7" transform="translate(105,264)"/>
<path d="M0 0 C0.33 1.32 0.66 2.64 1 4 C-1.375 5.5625 -1.375 5.5625 -4 7 C-4.66 6.67 -5.32 6.34 -6 6 C-4.02 4.02 -2.04 2.04 0 0 Z " fill="#795EA6" transform="translate(130,211)"/>
<path d="M0 0 C0.99 0.495 0.99 0.495 2 1 C2 2.65 2 4.3 2 6 C2.66 6 3.32 6 4 6 C4 6.66 4 7.32 4 8 C2.68 7.67 1.36 7.34 0 7 C0 4.69 0 2.38 0 0 Z " fill="#AC9AC5" transform="translate(330,292)"/>
<path d="M0 0 C0.99 0.33 1.98 0.66 3 1 C2.67 1.99 2.34 2.98 2 4 C0.02 4.33 -1.96 4.66 -4 5 C-2.25 1.125 -2.25 1.125 0 0 Z " fill="#6B529A" transform="translate(54,286)"/>
<path d="M0 0 C0.33 0 0.66 0 1 0 C1.33 3.3 1.66 6.6 2 10 C1.01 9.01 0.02 8.02 -1 7 C-0.6875 3.3125 -0.6875 3.3125 0 0 Z " fill="#8064A4" transform="translate(242,280)"/>
<path d="M0 0 C1.33332095 2.6666419 0.67102033 4.16680303 0 7 C-0.66 7 -1.32 7 -2 7 C-2.33 5.02 -2.66 3.04 -3 1 C-2.01 0.67 -1.02 0.34 0 0 Z " fill="#623AA8" transform="translate(64,279)"/>
<path d="M0 0 C2.64 0.33 5.28 0.66 8 1 C8 1.33 8 1.66 8 2 C3.545 2.495 3.545 2.495 -1 3 C-0.67 2.01 -0.34 1.02 0 0 Z " fill="#674994" transform="translate(246,277)"/>
<path d="M0 0 C0.33 0.99 0.66 1.98 1 3 C1.99 3 2.98 3 4 3 C4 4.32 4 5.64 4 7 C2.68 6.67 1.36 6.34 0 6 C0 4.02 0 2.04 0 0 Z " fill="#633E91" transform="translate(309,274)"/>
<path d="M0 0 C2.4375 0.375 2.4375 0.375 5 1 C5.33 1.66 5.66 2.32 6 3 C4.02 3.33 2.04 3.66 0 4 C0 2.68 0 1.36 0 0 Z " fill="#683CA8" transform="translate(366,270)"/>
<path d="M0 0 C-0.3125 1.9375 -0.3125 1.9375 -1 4 C-1.99 4.33 -2.98 4.66 -4 5 C-4.33 3.68 -4.66 2.36 -5 1 C-3 0 -3 0 0 0 Z " fill="#7963A0" transform="translate(192,242)"/>
<path d="M0 0 C0.33 0 0.66 0 1 0 C1 2.64 1 5.28 1 8 C-0.32 8.33 -1.64 8.66 -3 9 C-2.01 6.03 -1.02 3.06 0 0 Z " fill="#7247AD" transform="translate(223,202)"/>
<path d="M0 0 C0.33 0 0.66 0 1 0 C1.36256858 1.4562672 1.71479793 2.91511185 2.0625 4.375 C2.35833984 5.59316406 2.35833984 5.59316406 2.66015625 6.8359375 C3 9 3 9 2 11 C1.34 11 0.68 11 0 11 C0 7.37 0 3.74 0 0 Z " fill="#643BA0" transform="translate(119,274)"/>
<path d="M0 0 C0.33 0.66 0.66 1.32 1 2 C-0.66666667 3.66666667 -2.33333333 5.33333333 -4 7 C-4 6.34 -4 5.68 -4 5 C-4.66 4.67 -5.32 4.34 -6 4 C-3.94766315 1.7522025 -2.99332739 0.9977758 0 0 Z " fill="#6C50A0" transform="translate(73,269)"/>
<path d="M0 0 C0.66 0 1.32 0 2 0 C2 1.65 2 3.3 2 5 C0.35 5.33 -1.3 5.66 -3 6 C-2 4 -1 2 0 0 Z " fill="#58378F" transform="translate(279,269)"/>
<path d="M0 0 C1.98 0 3.96 0 6 0 C5.67 1.32 5.34 2.64 5 4 C2.525 3.01 2.525 3.01 0 2 C0 1.34 0 0.68 0 0 Z " fill="#6C41AD" transform="translate(391,270)"/>
<path d="M0 0 C0 1.65 0 3.3 0 5 C-1.65 5.66 -3.3 6.32 -5 7 C-5.33 6.01 -5.66 5.02 -6 4 C-5.01 3.67 -4.02 3.34 -3 3 C-3 2.34 -3 1.68 -3 1 C-1 0 -1 0 0 0 Z " fill="#3F1F68" transform="translate(213,235)"/>
<path d="M0 0 C3.63 0 7.26 0 11 0 C10.01 1.485 10.01 1.485 9 3 C4.545 2.01 4.545 2.01 0 1 C0 0.67 0 0.34 0 0 Z " fill="#64469B" transform="translate(200,224)"/>
<path d="" fill="#FFFFFF" transform="translate(0,0)"/>
</svg>
