<?xml version="1.0" encoding="UTF-8"?>
<svg version="1.1" xmlns="http://www.w3.org/2000/svg" width="512" height="512">
<path d="M0 0 C168.96 0 337.92 0 512 0 C512 168.96 512 337.92 512 512 C343.04 512 174.08 512 0 512 C0 343.04 0 174.08 0 0 Z " fill="#F4F7F7" transform="translate(0,0)"/>
<path d="M0 0 C0.64499899 -0.00581376 1.28999798 -0.01162753 1.9545424 -0.01761746 C4.12498902 -0.03226465 6.29431304 -0.01831169 8.4647522 -0.00457001 C10.03278369 -0.0091771 11.60081086 -0.01552872 13.16882896 -0.02347898 C17.48478413 -0.04022198 21.80038684 -0.03190353 26.1163435 -0.01953411 C30.76808788 -0.01050619 35.41977047 -0.0244421 40.07150269 -0.0354538 C49.18704571 -0.0532678 58.30245722 -0.04938623 67.41800547 -0.03780323 C74.82444751 -0.0287805 82.23085262 -0.02753988 89.63729858 -0.0318985 C91.21670921 -0.0328179 91.21670921 -0.0328179 92.82802713 -0.03375587 C94.96685808 -0.03503473 97.10568902 -0.03633158 99.24451995 -0.03764623 C119.31425233 -0.04906047 139.38391171 -0.0359251 159.45363212 -0.01444477 C176.68540273 0.00342697 193.91706556 0.0003231 211.14883423 -0.01811981 C231.14530272 -0.03951163 251.14170717 -0.04796176 271.1381855 -0.03567076 C273.2692782 -0.03439652 275.40037091 -0.03313904 277.53146362 -0.0318985 C279.10439228 -0.03097285 279.10439228 -0.03097285 280.70909727 -0.03002849 C288.10917085 -0.02657052 295.50920393 -0.03241355 302.90927124 -0.04181671 C311.92388231 -0.05301933 320.93835401 -0.05003331 329.95294905 -0.02869374 C334.55495598 -0.01815986 339.15673029 -0.01410112 343.75873566 -0.02729034 C347.96804404 -0.03917192 352.17690325 -0.03272222 356.38617063 -0.01138014 C357.91235255 -0.00689601 359.4385721 -0.00922074 360.96473002 -0.01888329 C363.03328665 -0.03097964 365.10028796 -0.0186444 367.16876221 0 C368.31942484 0.00064941 369.47008747 0.00129882 370.65561867 0.00196791 C374.25605857 0.61835403 375.43950094 1.58426783 377.5843811 4.50336456 C378.08577776 6.44352382 378.08577776 6.44352382 378.08774567 8.51111507 C378.09817666 9.30324317 378.10860765 10.09537127 378.11935472 10.91150326 C378.11043184 11.77579561 378.10150895 12.64008796 378.09231567 13.53057098 C378.10167562 14.91473004 378.10167562 14.91473004 378.11122465 16.3268519 C378.12720953 19.42623076 378.11452871 22.52482915 378.10195923 25.62421417 C378.10737793 27.84326894 378.11449917 30.06232011 378.12319946 32.28136444 C378.14146662 38.31441811 378.13435088 44.3471988 378.12168312 50.38025737 C378.11157181 56.68802943 378.12094371 62.99577776 378.12722778 69.30355072 C378.13497694 80.57753704 378.12252741 91.8514106 378.10219043 103.12537039 C378.08432352 113.34640083 378.08741956 123.56724953 378.10586548 133.78827667 C378.12727483 145.65692463 378.13523755 157.52548455 378.12341642 169.39415556 C378.1171752 175.67704702 378.11636313 181.95981331 378.12956238 188.24269676 C378.14110512 194.15001592 378.13312359 200.05699147 378.10998535 205.96427345 C378.10468964 208.13428552 378.1062267 210.30432644 378.11503601 212.47432709 C378.12594088 215.43300188 378.11228855 218.3905705 378.09231567 221.3491745 C378.1057 222.64226694 378.1057 222.64226694 378.11935472 223.96148247 C378.06966881 227.74704672 377.78374184 230.10278771 376.07496738 233.53623962 C372.59103646 236.28793205 369.48546374 236.19490207 365.22706604 236.13155365 C364.37638615 236.13864804 363.52570625 236.14574242 362.64924818 236.15305179 C359.79375392 236.17067876 356.93961238 236.15250342 354.08413696 236.13446808 C352.03917316 236.13960506 349.99421378 236.14688466 347.94926453 236.15615082 C342.39145992 236.17469988 336.83413366 236.16170442 331.27634883 236.14206052 C325.46679399 236.12570395 319.65727017 236.13448264 313.84770203 236.13957977 C304.09180029 236.14410371 294.3360901 236.12821129 284.58023071 236.10028839 C273.29092806 236.06822627 262.00197077 236.06825478 250.71264356 236.08550316 C239.86409025 236.10134949 229.0156639 236.09464745 218.16711617 236.07756615 C213.54473059 236.07068217 208.92244638 236.07174187 204.30006218 236.0791111 C198.86056443 236.08675459 193.42146125 236.07471111 187.98203087 236.04726219 C185.9821159 236.04035726 183.98216423 236.04030281 181.98225021 236.04747772 C179.25929268 236.05612324 176.53756669 236.04030033 173.81471252 236.01802826 C173.01686228 236.02626903 172.21901204 236.03450979 171.39698452 236.04300028 C166.08639794 235.96241585 166.08639794 235.96241585 163.60123539 233.68994808 C162.07171937 230.40096699 162.07401601 228.07592022 162.5843811 224.50336456 C165.41257023 221.45557423 167.09599171 220.5690312 171.24500751 220.01117325 C172.69278241 219.99444361 174.14091367 219.99968017 175.58860779 220.0223465 C176.38917262 220.0189288 177.18973746 220.0155111 178.01456183 220.01198983 C180.6942063 220.00540686 183.37284667 220.02739338 186.05239868 220.049263 C187.97429379 220.05039139 189.89619062 220.04975778 191.81808472 220.04749298 C197.03471534 220.04634458 202.25097862 220.06987452 207.46752381 220.09778881 C212.91943646 220.12278129 218.37135738 220.12514277 223.82331848 220.12989044 C234.14698772 220.14232653 244.47048767 220.1751568 254.79408234 220.2152884 C266.54727606 220.25998634 278.30047783 220.28198819 290.05373538 220.30207014 C314.23071435 220.3438888 338.40753111 220.41505827 362.5843811 220.50336456 C362.5843811 213.57336456 362.5843811 206.64336456 362.5843811 199.50336456 C324.17938862 199.49403933 285.7745402 199.51522141 247.36959679 199.57915486 C242.83832733 199.58667114 238.30705749 199.59392658 233.77578735 199.60102081 C232.42261272 199.60314594 232.42261272 199.60314594 231.04210123 199.605314 C216.42396777 199.62764897 201.80590484 199.62883962 187.18775907 199.62225319 C172.1946707 199.61596709 157.20173104 199.63231748 142.20868754 199.66980064 C132.95275728 199.69222375 123.69716539 199.69686698 114.44122383 199.6789612 C108.09907371 199.66838148 101.75720239 199.67973571 95.41510966 199.70852609 C91.75270993 199.72449819 88.09097299 199.73061914 84.42857742 199.7107563 C80.46218018 199.68949675 76.49684933 199.71433364 72.53048706 199.7438736 C71.36707204 199.7302875 70.20365702 199.7167014 69.004987 199.7027036 C66.07320819 199.7453815 63.43689146 199.826022 60.5843811 200.50336456 C57.90044968 203.22464312 57.90044968 203.22464312 56.5843811 206.50336456 C51.27189553 211.57973967 46.12237475 214.59660789 38.7093811 214.94086456 C32.329824 214.69884798 27.1747601 212.96252361 22.50234985 208.52680206 C20.2295956 205.98094699 18.11496041 203.56452318 16.5843811 200.50336456 C12.59873065 199.89722547 8.61163141 199.75771721 4.5843811 199.50336456 C4.5843811 206.43336456 4.5843811 213.36336456 4.5843811 220.50336456 C6.03906296 220.49448212 7.49374481 220.48559967 8.99250793 220.47644806 C22.69163083 220.39541322 36.39073513 220.3351832 50.09003735 220.29611588 C57.13325315 220.27549608 64.17628996 220.24738692 71.21939087 220.20160675 C78.01451123 220.15745953 84.80944536 220.13423635 91.60470009 220.12385559 C94.19909914 220.11645641 96.79348785 220.10200786 99.38780785 220.08044434 C103.01760356 220.05147002 106.6466273 220.04740623 110.27651978 220.049263 C111.3525798 220.0348819 112.42863983 220.02050079 113.53730774 220.0056839 C120.82201891 220.04609038 120.82201891 220.04609038 124.75401306 222.40454865 C126.75346384 224.69724554 127.22287923 225.57084265 127.0843811 228.56586456 C126.5843811 232.50336456 126.5843811 232.50336456 125.38245296 234.22480774 C122.93746767 235.96336597 121.3044262 235.88604995 118.31523132 235.89777374 C116.67695625 235.91479843 116.67695625 235.91479843 115.00558472 235.93216705 C113.80705872 235.92923645 112.60853271 235.92630585 111.37368774 235.92328644 C109.48072212 235.93599075 109.48072212 235.93599075 107.54951477 235.94895172 C104.08666564 235.97119209 100.62405429 235.97409718 97.16114354 235.97220421 C94.27091174 235.97208462 91.38073053 235.98064386 88.49051279 235.98898172 C81.67223999 236.00822486 74.85408963 236.01109634 68.03579712 236.00434113 C61.00046284 235.99769918 53.96565271 236.02056816 46.93042475 236.05765486 C40.89125513 236.08833629 34.85225426 236.09971362 28.81300825 236.09581804 C25.20553682 236.09374889 21.5984732 236.0992545 17.99107552 236.12371063 C13.96851952 236.15007986 9.94707249 236.13626211 5.92446899 236.11859894 C4.72796722 236.13186218 3.53146545 236.14512543 2.29870605 236.15879059 C1.20370285 236.14758179 0.10869965 236.13637299 -1.01948547 236.12482452 C-1.97056655 236.12553703 -2.92164762 236.12624954 -3.90154934 236.12698364 C-6.4156189 235.50336456 -6.4156189 235.50336456 -8.72113132 233.53666019 C-11.04384628 229.37877715 -10.97209027 226.0384322 -10.92355347 221.3491745 C-10.92979343 220.42484181 -10.93603339 219.50050911 -10.94246244 218.54816633 C-10.95842277 215.44955856 -10.94577613 212.3517341 -10.93319702 209.25312042 C-10.93861674 207.03229564 -10.94573854 204.81147445 -10.95443726 202.5906601 C-10.97269021 196.55773268 -10.96559506 190.52507852 -10.95292091 184.49214625 C-10.94280481 178.18391217 -10.95218261 171.87570172 -10.95846558 165.56746674 C-10.96621197 154.29556683 -10.95377061 143.02377976 -10.93342823 131.7519064 C-10.91555297 121.53056974 -10.91866512 111.30941476 -10.93710327 101.08808136 C-10.95850561 89.21797083 -10.96647974 77.3479483 -10.95465422 65.47781473 C-10.94841093 59.19441111 -10.94760677 52.91113268 -10.96080017 46.62773705 C-10.97233409 40.72204915 -10.96437767 34.81670525 -10.94122314 28.91105461 C-10.93592317 26.74062166 -10.93747171 24.57015988 -10.9462738 22.39973831 C-10.95716167 19.44295516 -10.94354731 16.48728284 -10.92355347 13.53057098 C-10.93247635 12.66627863 -10.94139924 11.80198628 -10.95059252 10.91150326 C-10.94016153 10.11937516 -10.92973054 9.32724706 -10.91898346 8.51111507 C-10.91833405 7.82880996 -10.91768464 7.14650485 -10.91701555 6.44352382 C-9.43346434 0.70290791 -5.29025707 0.00298571 0 0 Z " fill="#D270E6" transform="translate(72.41561889648438,158.49663543701172)"/>
<path d="M0 0 C168.96 0 337.92 0 512 0 C512 168.96 512 337.92 512 512 C343.04 512 174.08 512 0 512 C0 343.04 0 174.08 0 0 Z M15 92 C14.9175 154.143125 14.835 216.28625 14.75 280.3125 C14.71358398 299.94661377 14.67716797 319.58072754 14.63964844 339.80981445 C14.6262721 357.38374951 14.6262721 357.38374951 14.6182251 374.95768738 C14.61449303 382.79558604 14.59981219 390.63337083 14.57769775 398.47123718 C14.55222885 407.51137265 14.540658 416.55139878 14.5462202 425.59157039 C14.548629 430.21562287 14.54482054 434.83943101 14.52313948 439.46343863 C14.50363688 443.64831279 14.50273026 447.83277043 14.51639557 452.01766396 C14.51808618 453.52710049 14.51306138 455.03656343 14.50046968 456.54594839 C14.40665056 468.49886522 15.72082084 478.43500471 24.2734375 487.3515625 C31.96200882 494.69223466 38.76744711 497.12130177 49.27433395 497.13142776 C50.00003074 497.1334804 50.72572753 497.13553303 51.47341514 497.13764787 C53.91204233 497.1433151 56.35061299 497.14186096 58.78924561 497.14044189 C60.55256186 497.14302568 62.31587754 497.14603888 64.0791924 497.1494453 C68.93039665 497.15751684 73.78158611 497.15930495 78.63279629 497.16004276 C83.86265396 497.16189303 89.09250395 497.1694402 94.32235718 497.17617798 C105.76031609 497.18976257 117.1982715 497.19578612 128.63623714 497.20018864 C135.77677167 497.20295065 142.91730483 497.20718791 150.05783844 497.21169281 C169.82427765 497.22388526 189.59071577 497.23418487 209.35715866 497.2375679 C210.62235661 497.23778747 211.88755457 497.23800703 213.19109185 497.23823325 C214.45932996 497.23845153 215.72756806 497.23866981 217.03423762 497.2388947 C219.60420529 497.23933817 222.17417296 497.23978473 224.74414062 497.24023438 C226.65633286 497.24056652 226.65633286 497.24056652 228.60715523 497.24090537 C249.26779211 497.2448542 269.92839374 497.2623109 290.589017 497.2855939 C311.79616288 497.3093001 333.00329107 497.32176941 354.21045041 497.32293582 C366.11945341 497.32385295 378.02841047 497.32961494 389.93740082 497.34775543 C400.07719218 497.36314647 410.21692341 497.36828273 420.35672423 497.36001733 C425.53045004 497.35610742 430.70405471 497.35705718 435.87776566 497.37107468 C440.61519069 497.3837928 445.35240327 497.3826344 450.08982792 497.37048396 C451.8024807 497.36852336 453.51514842 497.37162215 455.22778019 497.38032833 C466.23989952 497.4327586 475.98739862 497.28678409 485 490 C493.11558857 481.85331722 497.12689733 475.10303655 497.12304783 463.48139477 C497.12420157 462.83718659 497.12535532 462.1929784 497.12654402 461.52924876 C497.12919228 459.36893499 497.12470431 457.20869558 497.12025452 455.04838562 C497.12069198 453.48867271 497.12156898 451.92895988 497.12284851 450.36924744 C497.1250943 446.07252359 497.12107417 441.7758246 497.11607273 437.47910391 C497.11171214 432.77852599 497.11316694 428.07794926 497.11389065 423.37736988 C497.11442275 414.24896064 497.1098011 405.12056122 497.10338932 395.9921545 C497.0961959 385.43540183 497.09539493 374.87865508 497.09460449 364.32189941 C497.08935183 336.44376472 497.07539075 308.56563221 497.0625 280.6875 C497.041875 218.420625 497.02125 156.15375 497 92 C337.94 92 178.88 92 15 92 Z " fill="#060605" transform="translate(0,0)"/>
<path d="M0 0 C11.55 0 23.1 0 35 0 C35.66 1.98 36.32 3.96 37 6 C39.41752628 7.20876314 40.97310278 7.13723455 43.67407227 7.15771484 C44.64590958 7.16797699 45.61774689 7.17823914 46.61903381 7.18881226 C47.67416672 7.19611359 48.72929962 7.20341492 49.81640625 7.2109375 C52.04753316 7.23902334 54.27865285 7.2676879 56.50976562 7.296875 C60.02937486 7.33801424 63.54885174 7.37489736 67.06860352 7.40136719 C70.4639894 7.42912173 73.85876037 7.47501345 77.25390625 7.5234375 C78.81535118 7.5283168 78.81535118 7.5283168 80.40834045 7.53329468 C92.40101719 7.73318984 100.98700737 11.40640583 109.390625 20.0703125 C120.84982684 33.81022927 116 53.65847357 116 70 C-43.06 70 -202.12 70 -366 70 C-366 27.37045455 -366 27.37045455 -355.75 16.375 C-349.22221436 10.04332809 -342.16234982 7.87686139 -333.17973232 7.87250805 C-331.42331847 7.86799658 -331.42331847 7.86799658 -329.63142151 7.86339396 C-327.70799544 7.86601952 -327.70799544 7.86601952 -325.74571228 7.86869812 C-324.36656385 7.86699546 -322.98741591 7.86484554 -321.6082688 7.86228687 C-318.61031277 7.85769313 -315.61237738 7.85626836 -312.61441803 7.85725212 C-307.73665557 7.85884578 -302.85891358 7.85364101 -297.9811554 7.84762573 C-290.90016117 7.83951513 -283.81917054 7.83456982 -276.73817253 7.83133507 C-265.55041359 7.82583868 -254.36268514 7.8089424 -243.17494202 7.78999329 C-239.34800248 7.78363677 -235.52106287 7.77732834 -231.69412327 7.77101612 C-230.73777315 7.76943236 -229.78142303 7.7678486 -228.79609261 7.76621684 C-217.91150859 7.74828256 -207.02692242 7.7320539 -196.14233398 7.71704102 C-195.1473454 7.71566514 -194.15235682 7.71428927 -193.12721706 7.71287171 C-176.98978865 7.69092397 -160.85236807 7.68018086 -144.71492737 7.67267027 C-128.15325272 7.66460677 -111.59164549 7.64134331 -95.03000933 7.6047166 C-84.81030797 7.58266313 -74.59074512 7.57303561 -64.37102116 7.57921693 C-57.37253878 7.58238507 -50.37417495 7.57110424 -43.37572926 7.54832252 C-39.3347077 7.53562238 -35.29395018 7.52952371 -31.25291824 7.54073906 C-27.55618867 7.55086739 -23.85997296 7.54274265 -20.1633044 7.5198761 C-18.18715274 7.5124769 -16.21095791 7.52484809 -14.23483509 7.53783625 C-12.48233286 7.52158992 -12.48233286 7.52158992 -10.69442654 7.50501537 C-9.68404306 7.50403856 -8.67365958 7.50306176 -7.63265842 7.50205535 C-4.26676054 6.86016918 -3.10183575 5.65523784 -1 3 C-0.67 2.01 -0.34 1.02 0 0 Z " fill="#FCE337" transform="translate(381,7)"/>
<path d="M0 0 C0.64499899 -0.00581376 1.28999798 -0.01162753 1.9545424 -0.01761746 C4.12498902 -0.03226465 6.29431304 -0.01831169 8.4647522 -0.00457001 C10.03278369 -0.0091771 11.60081086 -0.01552872 13.16882896 -0.02347898 C17.48478413 -0.04022198 21.80038684 -0.03190353 26.1163435 -0.01953411 C30.76808788 -0.01050619 35.41977047 -0.0244421 40.07150269 -0.0354538 C49.18704571 -0.0532678 58.30245722 -0.04938623 67.41800547 -0.03780323 C74.82444751 -0.0287805 82.23085262 -0.02753988 89.63729858 -0.0318985 C91.21670921 -0.0328179 91.21670921 -0.0328179 92.82802713 -0.03375587 C94.96685808 -0.03503473 97.10568902 -0.03633158 99.24451995 -0.03764623 C119.31425233 -0.04906047 139.38391171 -0.0359251 159.45363212 -0.01444477 C176.68540273 0.00342697 193.91706556 0.0003231 211.14883423 -0.01811981 C231.14530272 -0.03951163 251.14170717 -0.04796176 271.1381855 -0.03567076 C273.2692782 -0.03439652 275.40037091 -0.03313904 277.53146362 -0.0318985 C279.10439228 -0.03097285 279.10439228 -0.03097285 280.70909727 -0.03002849 C288.10917085 -0.02657052 295.50920393 -0.03241355 302.90927124 -0.04181671 C311.92388231 -0.05301933 320.93835401 -0.05003331 329.95294905 -0.02869374 C334.55495598 -0.01815986 339.15673029 -0.01410112 343.75873566 -0.02729034 C347.96804404 -0.03917192 352.17690325 -0.03272222 356.38617063 -0.01138014 C357.91235255 -0.00689601 359.4385721 -0.00922074 360.96473002 -0.01888329 C363.03328665 -0.03097964 365.10028796 -0.0186444 367.16876221 0 C368.31942484 0.00064941 369.47008747 0.00129882 370.65561867 0.00196791 C374.25605857 0.61835403 375.43950094 1.58426783 377.5843811 4.50336456 C378.08577776 6.44352382 378.08577776 6.44352382 378.08774567 8.51111507 C378.09817666 9.30324317 378.10860765 10.09537127 378.11935472 10.91150326 C378.11043184 11.77579561 378.10150895 12.64008796 378.09231567 13.53057098 C378.10167562 14.91473004 378.10167562 14.91473004 378.11122465 16.3268519 C378.12720953 19.42623076 378.11452871 22.52482915 378.10195923 25.62421417 C378.10737793 27.84326894 378.11449917 30.06232011 378.12319946 32.28136444 C378.14146662 38.31441811 378.13435088 44.3471988 378.12168312 50.38025737 C378.11157181 56.68802943 378.12094371 62.99577776 378.12722778 69.30355072 C378.13497694 80.57753704 378.12252741 91.8514106 378.10219043 103.12537039 C378.08432352 113.34640083 378.08741956 123.56724953 378.10586548 133.78827667 C378.12727483 145.65692463 378.13523755 157.52548455 378.12341642 169.39415556 C378.1171752 175.67704702 378.11636313 181.95981331 378.12956238 188.24269676 C378.14110512 194.15001592 378.13312359 200.05699147 378.10998535 205.96427345 C378.10468964 208.13428552 378.1062267 210.30432644 378.11503601 212.47432709 C378.12594088 215.43300188 378.11228855 218.3905705 378.09231567 221.3491745 C378.1057 222.64226694 378.1057 222.64226694 378.11935472 223.96148247 C378.06966881 227.74704672 377.78374184 230.10278771 376.07496738 233.53623962 C372.59103646 236.28793205 369.48546374 236.19490207 365.22706604 236.13155365 C364.37638615 236.13864804 363.52570625 236.14574242 362.64924818 236.15305179 C359.79375392 236.17067876 356.93961238 236.15250342 354.08413696 236.13446808 C352.03917316 236.13960506 349.99421378 236.14688466 347.94926453 236.15615082 C342.39145992 236.17469988 336.83413366 236.16170442 331.27634883 236.14206052 C325.46679399 236.12570395 319.65727017 236.13448264 313.84770203 236.13957977 C304.09180029 236.14410371 294.3360901 236.12821129 284.58023071 236.10028839 C273.29092806 236.06822627 262.00197077 236.06825478 250.71264356 236.08550316 C239.86409025 236.10134949 229.0156639 236.09464745 218.16711617 236.07756615 C213.54473059 236.07068217 208.92244638 236.07174187 204.30006218 236.0791111 C198.86056443 236.08675459 193.42146125 236.07471111 187.98203087 236.04726219 C185.9821159 236.04035726 183.98216423 236.04030281 181.98225021 236.04747772 C179.25929268 236.05612324 176.53756669 236.04030033 173.81471252 236.01802826 C173.01686228 236.02626903 172.21901204 236.03450979 171.39698452 236.04300028 C166.08639794 235.96241585 166.08639794 235.96241585 163.60123539 233.68994808 C162.07171937 230.40096699 162.07401601 228.07592022 162.5843811 224.50336456 C165.41257023 221.45557423 167.09599171 220.5690312 171.24500751 220.01117325 C172.69278241 219.99444361 174.14091367 219.99968017 175.58860779 220.0223465 C176.38917262 220.0189288 177.18973746 220.0155111 178.01456183 220.01198983 C180.6942063 220.00540686 183.37284667 220.02739338 186.05239868 220.049263 C187.97429379 220.05039139 189.89619062 220.04975778 191.81808472 220.04749298 C197.03471534 220.04634458 202.25097862 220.06987452 207.46752381 220.09778881 C212.91943646 220.12278129 218.37135738 220.12514277 223.82331848 220.12989044 C234.14698772 220.14232653 244.47048767 220.1751568 254.79408234 220.2152884 C266.54727606 220.25998634 278.30047783 220.28198819 290.05373538 220.30207014 C314.23071435 220.3438888 338.40753111 220.41505827 362.5843811 220.50336456 C362.5843811 213.57336456 362.5843811 206.64336456 362.5843811 199.50336456 C324.17938862 199.49403933 285.7745402 199.51522141 247.36959679 199.57915486 C242.83832733 199.58667114 238.30705749 199.59392658 233.77578735 199.60102081 C232.42261272 199.60314594 232.42261272 199.60314594 231.04210123 199.605314 C216.42396777 199.62764897 201.80590484 199.62883962 187.18775907 199.62225319 C172.1946707 199.61596709 157.20173104 199.63231748 142.20868754 199.66980064 C132.95275728 199.69222375 123.69716539 199.69686698 114.44122383 199.6789612 C108.09907371 199.66838148 101.75720239 199.67973571 95.41510966 199.70852609 C91.75270993 199.72449819 88.09097299 199.73061914 84.42857742 199.7107563 C80.46218018 199.68949675 76.49684933 199.71433364 72.53048706 199.7438736 C71.36707204 199.7302875 70.20365702 199.7167014 69.004987 199.7027036 C66.07320819 199.7453815 63.43689146 199.826022 60.5843811 200.50336456 C57.90044968 203.22464312 57.90044968 203.22464312 56.5843811 206.50336456 C51.27189553 211.57973967 46.12237475 214.59660789 38.7093811 214.94086456 C32.329824 214.69884798 27.1747601 212.96252361 22.50234985 208.52680206 C20.2295956 205.98094699 18.11496041 203.56452318 16.5843811 200.50336456 C12.59873065 199.89722547 8.61163141 199.75771721 4.5843811 199.50336456 C4.5843811 206.43336456 4.5843811 213.36336456 4.5843811 220.50336456 C6.03906296 220.49448212 7.49374481 220.48559967 8.99250793 220.47644806 C22.69163083 220.39541322 36.39073513 220.3351832 50.09003735 220.29611588 C57.13325315 220.27549608 64.17628996 220.24738692 71.21939087 220.20160675 C78.01451123 220.15745953 84.80944536 220.13423635 91.60470009 220.12385559 C94.19909914 220.11645641 96.79348785 220.10200786 99.38780785 220.08044434 C103.01760356 220.05147002 106.6466273 220.04740623 110.27651978 220.049263 C111.3525798 220.0348819 112.42863983 220.02050079 113.53730774 220.0056839 C120.82201891 220.04609038 120.82201891 220.04609038 124.75401306 222.40454865 C126.75346384 224.69724554 127.22287923 225.57084265 127.0843811 228.56586456 C126.5843811 232.50336456 126.5843811 232.50336456 125.38245296 234.22480774 C122.93746767 235.96336597 121.3044262 235.88604995 118.31523132 235.89777374 C116.67695625 235.91479843 116.67695625 235.91479843 115.00558472 235.93216705 C113.80705872 235.92923645 112.60853271 235.92630585 111.37368774 235.92328644 C109.48072212 235.93599075 109.48072212 235.93599075 107.54951477 235.94895172 C104.08666564 235.97119209 100.62405429 235.97409718 97.16114354 235.97220421 C94.27091174 235.97208462 91.38073053 235.98064386 88.49051279 235.98898172 C81.67223999 236.00822486 74.85408963 236.01109634 68.03579712 236.00434113 C61.00046284 235.99769918 53.96565271 236.02056816 46.93042475 236.05765486 C40.89125513 236.08833629 34.85225426 236.09971362 28.81300825 236.09581804 C25.20553682 236.09374889 21.5984732 236.0992545 17.99107552 236.12371063 C13.96851952 236.15007986 9.94707249 236.13626211 5.92446899 236.11859894 C4.72796722 236.13186218 3.53146545 236.14512543 2.29870605 236.15879059 C1.20370285 236.14758179 0.10869965 236.13637299 -1.01948547 236.12482452 C-1.97056655 236.12553703 -2.92164762 236.12624954 -3.90154934 236.12698364 C-6.4156189 235.50336456 -6.4156189 235.50336456 -8.72113132 233.53666019 C-11.04384628 229.37877715 -10.97209027 226.0384322 -10.92355347 221.3491745 C-10.92979343 220.42484181 -10.93603339 219.50050911 -10.94246244 218.54816633 C-10.95842277 215.44955856 -10.94577613 212.3517341 -10.93319702 209.25312042 C-10.93861674 207.03229564 -10.94573854 204.81147445 -10.95443726 202.5906601 C-10.97269021 196.55773268 -10.96559506 190.52507852 -10.95292091 184.49214625 C-10.94280481 178.18391217 -10.95218261 171.87570172 -10.95846558 165.56746674 C-10.96621197 154.29556683 -10.95377061 143.02377976 -10.93342823 131.7519064 C-10.91555297 121.53056974 -10.91866512 111.30941476 -10.93710327 101.08808136 C-10.95850561 89.21797083 -10.96647974 77.3479483 -10.95465422 65.47781473 C-10.94841093 59.19441111 -10.94760677 52.91113268 -10.96080017 46.62773705 C-10.97233409 40.72204915 -10.96437767 34.81670525 -10.94122314 28.91105461 C-10.93592317 26.74062166 -10.93747171 24.57015988 -10.9462738 22.39973831 C-10.95716167 19.44295516 -10.94354731 16.48728284 -10.92355347 13.53057098 C-10.93247635 12.66627863 -10.94139924 11.80198628 -10.95059252 10.91150326 C-10.94016153 10.11937516 -10.92973054 9.32724706 -10.91898346 8.51111507 C-10.91833405 7.82880996 -10.91768464 7.14650485 -10.91701555 6.44352382 C-9.43346434 0.70290791 -5.29025707 0.00298571 0 0 Z M4.5843811 15.50336456 C4.5843811 71.27336456 4.5843811 127.04336456 4.5843811 184.50336456 C14.73539963 185.76935577 14.73539963 185.76935577 17.6546936 182.52680206 C18.00274048 181.65281769 18.35078735 180.77883331 18.7093811 179.87836456 C21.59351807 174.15883661 24.44341975 170.73011542 30.5843811 168.50336456 C37.77807526 167.51326472 45.54540099 167.19636144 51.93984985 171.09711456 C56.3029161 174.82800256 59.04307333 179.42074902 61.5843811 184.50336456 C160.9143811 184.50336456 260.2443811 184.50336456 362.5843811 184.50336456 C362.5843811 128.73336456 362.5843811 72.96336456 362.5843811 15.50336456 C244.4443811 15.50336456 126.3043811 15.50336456 4.5843811 15.50336456 Z " fill="#080708" transform="translate(72.41561889648438,158.49663543701172)"/>
<path d="M0 0 C7.86407767 -0.69902913 7.86407767 -0.69902913 12 0 C14.70503277 2.26769214 16.20051194 4.99893684 18 8 C23.40874607 13.13830877 29.01901108 14.54453595 36.33984375 14.37890625 C42.45600991 13.50773427 47.98482557 10.58488203 52 5.875 C53.35293448 3.93015669 54.6858349 1.97124765 56 0 C58.18482983 -0.37259549 58.18482983 -0.37259549 60.96254158 -0.36914349 C62.54649292 -0.3781032 62.54649292 -0.3781032 64.16244328 -0.38724393 C65.33168398 -0.3785054 66.50092469 -0.36976688 67.70559692 -0.36076355 C68.94053859 -0.36332682 70.17548025 -0.3658901 71.44784439 -0.36853105 C74.88679047 -0.37263167 78.32522919 -0.36320514 81.76411414 -0.34819686 C85.46827188 -0.33528126 89.17241301 -0.33962278 92.87658691 -0.34190369 C99.29797227 -0.34347927 105.71926641 -0.33404042 112.14062881 -0.31719017 C121.42490722 -0.29284318 130.70914137 -0.28499932 139.99344824 -0.2812262 C155.05539026 -0.27465494 170.11728363 -0.25467553 185.17919922 -0.22631836 C199.81331132 -0.19879521 214.44741022 -0.1775531 229.08154297 -0.16479492 C229.98309019 -0.16400675 230.8846374 -0.16321858 231.81350423 -0.16240653 C236.3361524 -0.15849151 240.85880066 -0.15470036 245.38144898 -0.15097082 C282.92100068 -0.11985393 320.46049577 -0.06677734 358 0 C358 6.93 358 13.86 358 21 C355.56590759 21.00586624 353.13181519 21.01173248 350.6239624 21.01777649 C327.7268167 21.0743774 304.82976596 21.147423 281.93272018 21.23571491 C270.16007125 21.28071319 258.38745283 21.32011853 246.61474609 21.34643555 C236.35569995 21.36938299 226.09675008 21.40274448 215.83778024 21.44870156 C210.40388059 21.47267771 204.97007655 21.49137768 199.53612518 21.49761391 C194.42420911 21.50364491 189.31253781 21.52357267 184.2007122 21.55427551 C182.32216781 21.56308765 180.44359147 21.56677179 178.56502724 21.56500816 C176.00439028 21.56336286 173.44450612 21.5799906 170.88397217 21.60127258 C170.13688862 21.59642501 169.38980506 21.59157743 168.62008262 21.58658296 C165.58158013 21.62839411 163.30718358 21.84674995 160.56975174 23.21242046 C158.51700209 25.24977384 158.51700209 25.24977384 158 30 C146.45 29.67 134.9 29.34 123 29 C122.67 29.66 122.34 30.32 122 31 C121.5978125 29.329375 121.5978125 29.329375 121.1875 27.625 C120.34190981 23.78159049 120.34190981 23.78159049 117 22 C114.74095095 21.68926325 114.74095095 21.68926325 112.19746399 21.7215271 C111.20888397 21.71036362 110.22030396 21.69920013 109.20176697 21.68769836 C107.5768911 21.68445808 107.5768911 21.68445808 105.91918945 21.68115234 C104.77758362 21.67110672 103.63597778 21.6610611 102.45977783 21.65071106 C98.67761754 21.61976292 94.8955284 21.60281146 91.11328125 21.5859375 C88.49439375 21.56723523 85.87551232 21.54766253 83.25663757 21.5272522 C77.06251942 21.48044926 70.86838397 21.44371254 64.67417926 21.41057932 C57.62219185 21.37236859 50.57029692 21.32295572 43.51838744 21.27259517 C29.01232859 21.16925283 14.5062037 21.08039729 0 21 C0 14.07 0 7.14 0 0 Z " fill="#D8DDEC" transform="translate(77,358)"/>
<path d="M0 0 C1.78477784 -0.01564648 1.78477784 -0.01564648 3.6056118 -0.03160906 C4.91415438 -0.02268617 6.22269695 -0.01376328 7.57089233 -0.00457001 C8.9739325 -0.0091777 10.37696784 -0.01552973 11.77999306 -0.02347898 C15.6398992 -0.0402139 19.49941097 -0.0319073 23.35931873 -0.01953411 C27.52026385 -0.01050285 31.68114001 -0.02444375 35.84207153 -0.0354538 C43.99508083 -0.05326424 52.14794304 -0.04938783 60.30095816 -0.03780323 C66.92555545 -0.0287791 73.55011146 -0.02754048 80.17471313 -0.0318985 C81.11663911 -0.03251143 82.05856508 -0.03312436 83.02903426 -0.03375587 C84.94238521 -0.03503474 86.85573615 -0.03633159 88.76908708 -0.03764623 C106.72141787 -0.04905943 124.67366703 -0.03592674 142.62598443 -0.01444477 C158.03848811 0.00342688 173.4508713 0.00032298 188.8633728 -0.01811981 C206.75033491 -0.03951348 224.63722542 -0.04796072 242.52419853 -0.03567076 C244.43061192 -0.03439653 246.33702531 -0.03313904 248.24343872 -0.0318985 C249.65052076 -0.03097285 249.65052076 -0.03097285 251.0860287 -0.03002849 C257.70463757 -0.02657107 264.32320112 -0.03241236 270.94180298 -0.04181671 C279.0048773 -0.05302139 287.06779581 -0.05002901 295.13085222 -0.02869374 C299.2468044 -0.01816259 303.36249656 -0.01409639 307.47844696 -0.02729034 C311.24367302 -0.03917771 315.00839716 -0.03271288 318.77357745 -0.01138014 C320.78656542 -0.00476933 322.79958803 -0.01788284 324.81254005 -0.03160906 C326.00239195 -0.02117807 327.19224384 -0.01074708 328.41815186 0 C329.44730398 0.00064941 330.47645611 0.00129882 331.53679466 0.00196791 C334.94283001 0.64103789 336.12458201 1.77844939 338.20907593 4.50336456 C338.77157593 8.00336456 338.77157593 8.00336456 338.20907593 11.50336456 C335.67481447 14.06193403 333.9895669 15.36310433 330.4190082 16.00476122 C328.88040623 16.00573533 328.88040623 16.00573533 327.3107214 16.00672913 C325.52818208 16.02237561 325.52818208 16.02237561 323.70963186 16.03833818 C321.75702368 16.02495385 321.75702368 16.02495385 319.76496887 16.01129913 C318.36519044 16.01590825 316.96541685 16.02226124 315.56565338 16.03020811 C311.71940745 16.04692325 307.87355795 16.03864539 304.02731049 16.02626324 C299.87933471 16.01722401 295.73142775 16.0311768 291.58346558 16.04218292 C283.45799878 16.05998435 275.33267964 16.05612109 267.20720702 16.04453236 C260.60504016 16.03550531 254.00291474 16.03427088 247.40074348 16.03862762 C245.99222081 16.03954702 245.99222081 16.03954702 244.55524312 16.04048499 C242.64777071 16.04176387 240.7402983 16.04306072 238.83282591 16.04437536 C220.94010221 16.05578575 203.04746044 16.04265993 185.15475018 16.02117389 C169.79399287 16.00329958 154.43335645 16.00640888 139.07260132 16.02484894 C121.24313063 16.04624252 103.41373176 16.05469015 85.58425003 16.04239988 C83.6840309 16.04112566 81.78381176 16.03986817 79.88359261 16.03862762 C78.94859701 16.03801052 78.01360142 16.03739342 77.05027262 16.03675762 C70.45369348 16.03330039 63.8571598 16.03914101 57.26058769 16.04854584 C49.22498577 16.05975029 41.18954018 16.05675848 33.15395623 16.03542286 C29.05217366 16.02489186 24.95065201 16.02082531 20.84887123 16.03401947 C17.0966374 16.04590697 13.34490722 16.03944183 9.59271932 16.01810926 C7.58673797 16.01149864 5.58072187 16.02461177 3.57477659 16.03833818 C1.79614889 16.0226917 1.79614889 16.0226917 -0.01841068 16.00672913 C-1.55676912 16.00575501 -1.55676912 16.00575501 -3.1262055 16.00476122 C-6.52660321 15.36493829 -7.7117104 14.22586085 -9.79092407 11.50336456 C-10.29092407 8.00336456 -10.29092407 8.00336456 -9.79092407 4.50336456 C-6.8336037 0.62841722 -4.79220911 0.00302395 0 0 Z " fill="#090909" transform="translate(91.79092407226563,451.4966354370117)"/>
<path d="M0 0 C1.78477784 -0.01564648 1.78477784 -0.01564648 3.6056118 -0.03160906 C4.91415438 -0.02268617 6.22269695 -0.01376328 7.57089233 -0.00457001 C8.9739325 -0.0091777 10.37696784 -0.01552973 11.77999306 -0.02347898 C15.6398992 -0.0402139 19.49941097 -0.0319073 23.35931873 -0.01953411 C27.52026385 -0.01050285 31.68114001 -0.02444375 35.84207153 -0.0354538 C43.99508083 -0.05326424 52.14794304 -0.04938783 60.30095816 -0.03780323 C66.92555545 -0.0287791 73.55011146 -0.02754048 80.17471313 -0.0318985 C81.11663911 -0.03251143 82.05856508 -0.03312436 83.02903426 -0.03375587 C84.94238521 -0.03503474 86.85573615 -0.03633159 88.76908708 -0.03764623 C106.72141787 -0.04905943 124.67366703 -0.03592674 142.62598443 -0.01444477 C158.03848811 0.00342688 173.4508713 0.00032298 188.8633728 -0.01811981 C206.75033491 -0.03951348 224.63722542 -0.04796072 242.52419853 -0.03567076 C244.43061192 -0.03439653 246.33702531 -0.03313904 248.24343872 -0.0318985 C249.65052076 -0.03097285 249.65052076 -0.03097285 251.0860287 -0.03002849 C257.70463757 -0.02657107 264.32320112 -0.03241236 270.94180298 -0.04181671 C279.0048773 -0.05302139 287.06779581 -0.05002901 295.13085222 -0.02869374 C299.2468044 -0.01816259 303.36249656 -0.01409639 307.47844696 -0.02729034 C311.24367302 -0.03917771 315.00839716 -0.03271288 318.77357745 -0.01138014 C320.78656542 -0.00476933 322.79958803 -0.01788284 324.81254005 -0.03160906 C326.00239195 -0.02117807 327.19224384 -0.01074708 328.41815186 0 C329.44730398 0.00064941 330.47645611 0.00129882 331.53679466 0.00196791 C334.94283001 0.64103789 336.12458201 1.77844939 338.20907593 4.50336456 C338.77157593 8.00336456 338.77157593 8.00336456 338.20907593 11.50336456 C335.67481447 14.06193403 333.9895669 15.36310433 330.4190082 16.00476122 C328.88040623 16.00573533 328.88040623 16.00573533 327.3107214 16.00672913 C325.52818208 16.02237561 325.52818208 16.02237561 323.70963186 16.03833818 C321.75702368 16.02495385 321.75702368 16.02495385 319.76496887 16.01129913 C318.36519044 16.01590825 316.96541685 16.02226124 315.56565338 16.03020811 C311.71940745 16.04692325 307.87355795 16.03864539 304.02731049 16.02626324 C299.87933471 16.01722401 295.73142775 16.0311768 291.58346558 16.04218292 C283.45799878 16.05998435 275.33267964 16.05612109 267.20720702 16.04453236 C260.60504016 16.03550531 254.00291474 16.03427088 247.40074348 16.03862762 C245.99222081 16.03954702 245.99222081 16.03954702 244.55524312 16.04048499 C242.64777071 16.04176387 240.7402983 16.04306072 238.83282591 16.04437536 C220.94010221 16.05578575 203.04746044 16.04265993 185.15475018 16.02117389 C169.79399287 16.00329958 154.43335645 16.00640888 139.07260132 16.02484894 C121.24313063 16.04624252 103.41373176 16.05469015 85.58425003 16.04239988 C83.6840309 16.04112566 81.78381176 16.03986817 79.88359261 16.03862762 C78.94859701 16.03801052 78.01360142 16.03739342 77.05027262 16.03675762 C70.45369348 16.03330039 63.8571598 16.03914101 57.26058769 16.04854584 C49.22498577 16.05975029 41.18954018 16.05675848 33.15395623 16.03542286 C29.05217366 16.02489186 24.95065201 16.02082531 20.84887123 16.03401947 C17.0966374 16.04590697 13.34490722 16.03944183 9.59271932 16.01810926 C7.58673797 16.01149864 5.58072187 16.02461177 3.57477659 16.03833818 C1.79614889 16.0226917 1.79614889 16.0226917 -0.01841068 16.00672913 C-1.55676912 16.00575501 -1.55676912 16.00575501 -3.1262055 16.00476122 C-6.52660321 15.36493829 -7.7117104 14.22586085 -9.79092407 11.50336456 C-10.29092407 8.00336456 -10.29092407 8.00336456 -9.79092407 4.50336456 C-6.8336037 0.62841722 -4.79220911 0.00302395 0 0 Z " fill="#090909" transform="translate(91.79092407226563,419.4966354370117)"/>
<path d="M0 0 C3.0793457 1.21826172 3.0793457 1.21826172 6.17578125 2.9296875 C7.32377197 3.55488281 8.4717627 4.18007812 9.65454102 4.82421875 C10.87405 5.50747471 12.09336547 6.19107613 13.3125 6.875 C14.58125317 7.57288268 15.85071005 8.26948747 17.12084961 8.96484375 C20.75648804 10.96015488 24.37843225 12.97927017 28 15 C29.62956976 15.8995952 31.25967602 16.7982202 32.890625 17.6953125 C35.66761198 19.22621558 38.43771108 20.76860802 41.203125 22.3203125 C44.48840807 24.16197469 47.78409791 25.98387195 51.08558655 27.79632568 C53.5494092 29.14928561 56.01117916 30.50595876 58.47286987 31.86279297 C59.68627116 32.53043441 60.90054847 33.19648653 62.11575317 33.86083984 C63.82568275 34.79604414 65.53204205 35.73776712 67.23828125 36.6796875 C68.7238855 37.49542236 68.7238855 37.49542236 70.23950195 38.32763672 C77.60367039 42.78899285 77.60367039 42.78899285 79.125 47.4375 C79 51 79 51 77.234375 53.31640625 C72.8872484 57.35476641 67.34567595 59.79107285 62.125 62.5 C59.76190518 63.74795603 57.39982911 64.99766317 55.0390625 66.25 C54.44357605 66.5648938 53.8480896 66.8797876 53.23455811 67.20422363 C47.59369492 70.1949458 42.04297169 73.33272704 36.5 76.5 C33.68109072 78.09657232 30.86039552 79.68994154 28.0390625 81.28222656 C25.88593282 82.49924298 23.73511862 83.72036008 21.5859375 84.94433594 C18.06991444 86.94425451 14.53559851 88.9098973 11 90.875 C9.90751953 91.50083984 8.81503906 92.12667969 7.68945312 92.77148438 C-0.89045866 97.49284745 -0.89045866 97.49284745 -5.0625 97.1328125 C-8.48721035 95.81211303 -9.25921534 95.1898646 -11 92 C-11.29574718 89.10499051 -11.42029622 86.42586037 -11.40405273 83.53125 C-11.41091599 82.67877686 -11.41777924 81.82630371 -11.42485046 80.94799805 C-11.44314303 78.131829 -11.43927787 75.31621567 -11.43359375 72.5 C-11.43815403 70.54231586 -11.44345914 68.58463332 -11.44947815 66.62695312 C-11.45841382 62.52467341 -11.45598051 58.42258832 -11.44604492 54.3203125 C-11.43454844 49.06082291 -11.45477489 43.80200401 -11.48396206 38.54260254 C-11.50229812 34.50028205 -11.50203689 30.45812311 -11.49632454 26.41577148 C-11.49617104 24.47647154 -11.50223894 22.53716084 -11.51461601 20.59790039 C-11.52947712 17.8877539 -11.51888567 15.17885709 -11.50170898 12.46875 C-11.51137695 11.66655029 -11.52104492 10.86435059 -11.53100586 10.0378418 C-11.4839014 6.49253764 -11.29271838 4.40219958 -9.17889404 1.49777222 C-5.9746603 -0.70481873 -3.81190442 -0.45406019 0 0 Z " fill="#090809" transform="translate(223,213)"/>
<path d="M0 0 C1.39575256 -0.00788544 1.39575256 -0.00788544 2.81970215 -0.01593018 C5.89559717 -0.0291343 8.97097471 -0.0203905 12.046875 -0.01025391 C14.18392028 -0.01227452 16.32096489 -0.01518585 18.45800781 -0.01895142 C22.93691574 -0.02337533 27.41564418 -0.01694142 31.89453125 -0.00292969 C37.6381865 0.0141621 43.38142121 0.0043213 49.12506104 -0.01364708 C53.53795546 -0.024483 57.95075004 -0.02103943 62.36364746 -0.0132637 C64.48156789 -0.01126117 66.59949735 -0.01372281 68.71740723 -0.02070236 C71.67643275 -0.02831355 74.63477539 -0.01671701 77.59375 0 C78.47075562 -0.00607269 79.34776123 -0.01214539 80.25134277 -0.0184021 C83.75794903 0.01833461 86.1733209 0.07440624 89.33691406 1.66635132 C91.34771914 4.03783195 91.32652472 6.32278398 91.42578125 9.35302734 C90.41558513 12.62204708 88.66670125 13.5840517 85.796875 15.38818359 C82.75645499 15.97001281 79.76797218 15.93507188 76.6796875 15.90576172 C75.7701532 15.912771 74.8606189 15.91978027 73.92352295 15.92700195 C70.92266134 15.94458006 67.92274589 15.93295971 64.921875 15.91943359 C62.83349426 15.92212856 60.74511473 15.92601101 58.65673828 15.93103027 C54.28210491 15.93692508 49.90779847 15.92836274 45.53320312 15.90966797 C39.92743914 15.88687866 34.3224412 15.9000018 28.71670532 15.92395782 C24.40497065 15.93841613 20.0934174 15.93380961 15.78167725 15.92344666 C13.71482248 15.92077947 11.64795121 15.92404882 9.58111572 15.93336487 C6.69165451 15.94353079 3.80343155 15.92802849 0.9140625 15.90576172 C-0.36564423 15.9179071 -0.36564423 15.9179071 -1.67120361 15.93029785 C-5.71662972 15.87258114 -7.72770352 15.68705989 -11.23364258 13.48303223 C-13.203125 11.38818359 -13.203125 11.38818359 -13.83203125 9.35302734 C-13.65407133 3.92001559 -13.65407133 3.92001559 -11.74316406 1.66635132 C-7.88668382 -0.27426001 -4.26042341 -0.02950066 0 0 Z " fill="#0A0A0A" transform="translate(95.203125,121.61181640625)"/>
<path d="M0 0 C3.72591476 1.4903659 7.03679121 3.01214576 10.54296875 4.90625 C12.14205078 5.76827026 12.14205078 5.76827026 13.7734375 6.64770508 C14.90007812 7.2589624 16.02671875 7.87021973 17.1875 8.5 C18.91806641 9.43525513 18.91806641 9.43525513 20.68359375 10.3894043 C29.08221185 14.93690606 37.44676652 19.54315452 45.78125 24.20703125 C47.50491188 25.16717786 49.23525826 26.11762913 51 27 C49.71847272 30.84458185 48.55679476 31.05919723 45.0234375 32.8984375 C43.97019287 33.45450684 42.91694824 34.01057617 41.83178711 34.58349609 C40.69104736 35.17469238 39.55030762 35.76588867 38.375 36.375 C36.00793305 37.62283537 33.64193703 38.87250328 31.27734375 40.125 C30.67465164 40.44318695 30.07195953 40.7613739 29.45100403 41.08920288 C22.19539049 44.93182255 15.07209198 49.00610373 7.94873047 53.08740234 C7.04654785 53.60254395 6.14436523 54.11768555 5.21484375 54.6484375 C4.42198975 55.10395996 3.62913574 55.55948242 2.81225586 56.02880859 C1 57 1 57 0 57 C0 38.19 0 19.38 0 0 Z " fill="#F3F6F6" transform="translate(227,233)"/>
<path d="M0 0 C10.56 0 21.12 0 32 0 C32 6.93 32 13.86 32 21 C21.44 21 10.88 21 0 21 C0 14.07 0 7.14 0 0 Z " fill="#CED3E1" transform="translate(403,358)"/>
<path d="M0 0 C3.2885563 2.5021624 4.79401403 3.90140815 5.5625 8 C4.87642343 11.65907504 3.57265686 13.35167676 1 16 C-1.85324437 17.42662219 -3.83454549 17.31033868 -7 17 C-10.74785043 14.91786087 -11.79482295 13.7052961 -13 9.5625 C-13 5.5815106 -12.5177436 4.03865607 -10 1 C-6.61628555 -1.56695579 -3.96674699 -1.2143103 0 0 Z " fill="#EBEEEE" transform="translate(115,341)"/>
<path d="M0 0 C2.4375 1.625 2.4375 1.625 4 4 C4.5625 6.9375 4.5625 6.9375 4 10 C1.9375 12.9375 1.9375 12.9375 -1 15 C-4.85210127 15.06641554 -6.99848005 14.87229157 -9.9375 12.3125 C-11.33817538 9.26397123 -11.4842732 7.32073048 -11 4 C-8.05899778 -0.47032338 -5.13105401 -0.73300772 0 0 Z " fill="#151309" transform="translate(124,41)"/>
<path d="M0 0 C2.4375 1.625 2.4375 1.625 4 4 C4.5625 6.9375 4.5625 6.9375 4 10 C1.68262395 13.04569423 0.22174087 14.73181298 -3.5625 15.5625 C-6.93473771 14.7842913 -8.0572794 13.87810459 -10 11 C-10.63857688 7.47363655 -10.65841319 4.23936601 -8.9375 1 C-5.82090489 -0.60856522 -3.43737531 -0.42213381 0 0 Z " fill="#0E0D07" transform="translate(91,41)"/>
<path d="M0 0 C1.9375 1 1.9375 1 3 3 C3.7518797 9.76691729 3.7518797 9.76691729 1.4375 13.5625 C-1 15 -1 15 -4.5625 15 C-8 14 -8 14 -9.9375 12.3125 C-11.33817538 9.26397123 -11.4842732 7.32073048 -11 4 C-8.05323917 -0.47907646 -5.13567732 -0.65363166 0 0 Z " fill="#0F0E07" transform="translate(59,41)"/>
</svg>
